<?xml version="1.0" encoding="iso-8859-1"?>
<!-- Uploaded to: SVG Repo, www.svgrepo.com, Generator: SVG Repo Mixer Tools -->
<svg height="800px" width="800px" version="1.1" id="Layer_1" xmlns="http://www.w3.org/2000/svg" xmlns:xlink="http://www.w3.org/1999/xlink" 
	 viewBox="0 0 512 512" xml:space="preserve">
<path style="fill:#3EAC92;" d="M213.702,373.52c0,0-13.305,28.666-39.458,38.735s-55.246-2.27-55.246-2.27
	s13.305-28.666,39.458-38.735C184.608,361.18,213.702,373.52,213.702,373.52z"/>
<path style="fill:#328777;" d="M202.155,369.913c-5.181,8.749-17.44,26.117-36.615,33.5c-15.875,6.113-32.822,3.966-43.699,1.337
	c-1.885,3.184-2.842,5.235-2.842,5.235s29.095,12.34,55.246,2.27s39.457-38.735,39.457-38.735S209.197,371.616,202.155,369.913z"/>
<path style="fill:#3EAC92;" d="M387.395,326.967c0,0-24.438,20.039-52.367,17.747c-27.93-2.292-48.774-26.046-48.774-26.046
	s24.438-20.039,52.367-17.747C366.551,303.212,387.395,326.967,387.395,326.967z"/>
<g>
	<path style="fill:#328777;" d="M379.628,319.586c-9.392,5.757-26.242,13.899-44.602,12.393
		c-17.669-1.45-32.493-11.485-41.007-18.667c-4.896,3.001-7.766,5.354-7.766,5.354s20.844,23.754,48.774,26.046
		s52.368-17.746,52.368-17.746S384.573,323.756,379.628,319.586z"/>
	<path style="fill:#328777;" d="M231.156,512c-4.305,0-7.796-3.489-7.796-7.796c0-150.334-71.924-263.704-72.651-264.832
		c-2.332-3.619-1.288-8.444,2.331-10.775c3.618-2.333,8.443-1.289,10.775,2.33c0.772,1.198,19.121,29.899,37.668,78.061
		c17.093,44.382,37.467,114.278,37.467,195.216C238.952,508.511,235.461,512,231.156,512z"/>
	<path style="fill:#328777;" d="M253.208,512c-4.305,0-7.796-3.489-7.796-7.796c0-86.227,27.875-179.53,51.258-242.618
		c25.273-68.187,50.938-116.852,51.194-117.336c2.015-3.805,6.733-5.253,10.537-3.238c3.804,2.015,5.254,6.734,3.239,10.538
		c-0.253,0.476-25.514,48.4-50.433,115.672c-22.904,61.832-50.206,153.138-50.206,236.981C261.004,508.511,257.514,512,253.208,512z
		"/>
</g>
<path style="fill:#EAC9F1;" d="M261.884,206.207c0-8.929-26.105-16.169-58.305-16.169c-10.709,0-20.736,1.792-29.361,4.179
	c7.786-4.41,16.144-10.233,23.716-17.806c22.769-22.769,36.109-46.347,29.795-52.661c-6.314-6.314-29.891,7.025-52.661,29.795
	c-7.573,7.573-13.396,15.93-17.806,23.716c2.387-8.625,4.179-18.651,4.179-29.361c0-32.202-7.238-58.305-16.169-58.305
	c-8.931,0-16.169,26.103-16.169,58.305c0,10.709,1.792,20.736,4.179,29.36c-4.41-7.786-10.233-16.144-17.806-23.716
	c-22.769-22.77-46.347-36.11-52.661-29.795c-6.314,6.314,7.025,29.891,29.795,52.661c7.573,7.573,15.93,13.395,23.716,17.806
	c-8.625-2.387-18.651-4.179-29.361-4.179c-32.201,0-58.305,7.238-58.305,16.169c0,8.929,26.105,16.169,58.305,16.169
	c10.709,0,20.736-1.792,29.36-4.179c-7.786,4.41-16.143,10.233-23.716,17.806c-22.769,22.77-36.109,46.347-29.795,52.661
	c6.314,6.314,29.891-7.025,52.661-29.794c7.573-7.573,13.395-15.93,17.806-23.716c-2.387,8.625-4.179,18.651-4.179,29.361
	c0,32.201,7.239,58.305,16.169,58.305s16.169-26.105,16.169-58.305c0-10.71-1.792-20.736-4.179-29.361
	c4.41,7.786,10.233,16.144,17.806,23.716c22.769,22.769,46.347,36.109,52.661,29.794c6.314-6.314-7.025-29.891-29.795-52.661
	c-7.573-7.572-15.93-13.395-23.716-17.806c8.625,2.387,18.651,4.179,29.36,4.179C235.78,222.375,261.884,215.136,261.884,206.207z"
	/>
<circle style="fill:#C141C8;" cx="145.278" cy="206.207" r="27.014"/>
<path style="fill:#EAC9F1;" d="M483.339,116.61c0-8.929-26.105-16.169-58.305-16.169c-10.709,0-20.736,1.792-29.361,4.179
	c7.786-4.41,16.144-10.233,23.716-17.806c22.769-22.769,36.109-46.347,29.795-52.661s-29.891,7.025-52.661,29.795
	c-7.573,7.573-13.396,15.93-17.806,23.716c2.387-8.625,4.179-18.651,4.179-29.361C382.897,26.103,375.658,0,366.728,0
	c-8.93,0-16.169,26.103-16.169,58.305c0,10.709,1.792,20.736,4.179,29.36c-4.41-7.786-10.233-16.144-17.806-23.716
	c-22.769-22.77-46.347-36.11-52.661-29.795s7.025,29.891,29.795,52.661c7.573,7.573,15.93,13.395,23.716,17.806
	c-8.625-2.387-18.651-4.179-29.361-4.179c-32.201,0-58.305,7.238-58.305,16.169c0,8.929,26.105,16.169,58.305,16.169
	c10.709,0,20.736-1.792,29.36-4.179c-7.786,4.41-16.143,10.233-23.716,17.806c-22.769,22.77-36.109,46.347-29.795,52.661
	c6.314,6.314,29.891-7.025,52.661-29.794c7.573-7.573,13.395-15.93,17.806-23.716c-2.387,8.625-4.179,18.651-4.179,29.361
	c0,32.201,7.239,58.305,16.169,58.305c8.93,0,16.169-26.105,16.169-58.305c0-10.71-1.792-20.736-4.179-29.361
	c4.41,7.786,10.233,16.144,17.806,23.716c22.769,22.769,46.347,36.109,52.661,29.794c6.314-6.314-7.025-29.891-29.795-52.661
	c-7.573-7.572-15.93-13.395-23.716-17.806c8.625,2.388,18.651,4.179,29.36,4.179C457.234,132.778,483.339,125.54,483.339,116.61z"/>
<g>
	<circle style="fill:#C141C8;" cx="366.732" cy="116.61" r="27.014"/>
	<circle style="opacity:0.2;fill:#C141C8;enable-background:new    ;" cx="368.146" cy="120.425" r="27.014"/>
	<circle style="opacity:0.2;fill:#C141C8;enable-background:new    ;" cx="147.388" cy="209.917" r="27.014"/>
</g>
</svg>