<?xml version="1.0" encoding="iso-8859-1"?>
<!-- Uploaded to: SVG Repo, www.svgrepo.com, Generator: SVG Repo Mixer Tools -->
<svg version="1.1" id="Layer_1" xmlns="http://www.w3.org/2000/svg" xmlns:xlink="http://www.w3.org/1999/xlink" 
	 viewBox="0 0 511.842 511.842" xml:space="preserve">
<g>
	<path style="fill:#8CC153;" d="M245.256,511.842c0,0,103.54-31.99,157.772-213.278C403.028,298.564,298.56,323.228,245.256,511.842
		z"/>
	<path style="fill:#8CC153;" d="M270.859,490.521c0,0-5.607-49.329-131.772-170.62C139.086,319.9,144.287,480.524,270.859,490.521z"
		/>
</g>
<rect x="245.261" y="225.071" style="fill:#A0D468;" width="21.321" height="286.77"/>
<path style="fill:#E6E9ED;" d="M253.285,160.528c71.267,38.066,111.411-147.908,91.886-159.17
	C325.646-9.92,182.01,122.462,253.285,160.528z"/>
<path style="fill:#CCD1D9;" d="M259.673,159.872c68.598-42.69-72.368-170.448-91.893-159.17
	C148.255,11.964,191.07,202.578,259.673,159.872z"/>
<path style="fill:#E6E9ED;" d="M262.314,154.014c-2.672-80.756-183.803-22.54-183.803,0S264.985,234.771,262.314,154.014z"/>
<path style="fill:#CCD1D9;" d="M258.55,148.797c-71.276-38.067-111.419,147.908-91.895,159.185
	C186.181,319.244,329.831,186.864,258.55,148.797z"/>
<path style="fill:#E6E9ED;" d="M252.161,149.453c-68.604,42.69,72.36,170.447,91.885,159.17
	C363.571,297.361,320.741,106.748,252.161,149.453z"/>
<path style="fill:#CCD1D9;" d="M249.521,155.311c2.671,80.757,183.81,22.54,183.81,0S246.85,74.554,249.521,155.311z"/>
<path style="fill:#FFCE54;" d="M255.925,186.661c-17.651,0-32.006-14.355-32.006-32.006c0-17.635,14.355-31.99,32.006-31.99
	c17.642,0,31.982,14.355,31.982,31.99C287.907,172.306,273.567,186.661,255.925,186.661z"/>
<path style="fill:#F6BB42;" d="M255.925,112.011c-23.571,0-42.659,19.088-42.659,42.644c0,23.571,19.088,42.659,42.659,42.659
	c23.546,0,42.634-19.088,42.634-42.659C298.56,131.1,279.472,112.011,255.925,112.011z M255.925,175.992
	c-11.762,0-21.337-9.576-21.337-21.337c0-11.747,9.575-21.322,21.337-21.322c11.746,0,21.33,9.575,21.33,21.322
	C277.255,166.417,267.671,175.992,255.925,175.992z"/>
</svg>