<?xml version="1.0" encoding="iso-8859-1"?>
<!-- Uploaded to: SVG Repo, www.svgrepo.com, Generator: SVG Repo Mixer Tools -->
<svg version="1.1" id="Layer_1" xmlns="http://www.w3.org/2000/svg" xmlns:xlink="http://www.w3.org/1999/xlink" 
	 viewBox="0 0 511.843 511.843" xml:space="preserve">
<g>
	<path style="fill:#8CC153;" d="M240.061,478.496l-10.419-18.603c0.516-0.297,52.257-29.646,79.483-71.603l17.886,11.622
		C296.863,446.351,242.373,477.2,240.061,478.496z"/>
	<path style="fill:#8CC153;" d="M232.032,415.781c-49.11-13.527-69.229-43.424-70.072-44.689l17.823-11.73l-0.031-0.047
		c0.172,0.25,17.026,24.633,57.936,35.911L232.032,415.781z"/>
</g>
<g>
	<path style="fill:#A0D468;" d="M311.702,406.098c-48.227-1.344-101.835-102.766,109.139-110.764
		C415.984,506.395,313.765,454.301,311.702,406.098z"/>
	<path style="fill:#A0D468;" d="M168.114,368.405c32.006-2.593,64.059-71.915-76.461-69.775
		C102.338,438.759,168.442,400.521,168.114,368.405z"/>
	<rect x="224.192" y="255.923" style="fill:#A0D468;" width="21.337" height="255.92"/>
</g>
<path style="fill:#4FC2E9;" d="M113.709,80.134c1.625,26.961,105.484,78.398,120.838,81.569v0.203
	c0.141-0.031,0.297-0.062,0.484-0.094c0.172,0.031,0.343,0.062,0.484,0.094v-0.203c15.355-3.171,119.002-54.608,120.626-81.569
	c2.422-40.144-46.079-81.475-121.11-80.101C159.992-1.341,111.288,39.99,113.709,80.134z"/>
<g>
	<path style="fill:#3BAFDA;" d="M352.691,83.727c-18.682-14.167-99.353,30.288-111.442,37.098l-0.125-0.109
		c-0.078,0.094-0.172,0.203-0.25,0.328c-0.141,0.078-0.281,0.141-0.391,0.203l0.125,0.125
		c-7.951,10.356,15.824,43.409,32.372,59.404c24.634,23.79,25.43,73.431,73.541,30.709
		C396.411,170.31,380.479,104.814,352.691,83.727z"/>
	<path style="fill:#3BAFDA;" d="M192.997,181.603c16.558-15.995,44.174-49.875,36.223-60.231l0.141-0.125
		c-0.125-0.062-0.25-0.125-0.391-0.203c-0.094-0.125-0.171-0.234-0.25-0.328l-0.125,0.109
		c-12.106-6.811-92.753-51.266-111.435-37.098c-27.788,21.087-43.721,86.583,6.17,127.758
		C171.425,254.206,168.38,205.393,192.997,181.603z"/>
</g>
<path style="fill:#4FC2E9;" d="M357.376,179.885c-1.672-24.118-106.162-43.799-121.955-46.642v-0.188
	c-0.156,0.031-0.328,0.062-0.5,0.094c-0.188-0.031-0.359-0.062-0.5-0.094v0.188c-15.808,2.843-120.276,22.524-121.947,46.642
	c-2.499,35.896,45.221,99.188,122.447,97.955C312.155,279.073,359.876,215.78,357.376,179.885z"/>
<path style="fill:#FFCE54;" d="M234.922,153.331c-12.309,0-22.321-10.013-22.321-22.321c0-12.309,10.012-22.321,22.321-22.321
	s22.321,10.012,22.321,22.321C257.243,143.318,247.231,153.331,234.922,153.331z"/>
<path style="fill:#F6BB42;" d="M234.922,98.019c-18.229,0-32.99,14.777-32.99,32.99s14.761,32.99,32.99,32.99
	c18.212,0,32.989-14.777,32.989-32.99S253.134,98.019,234.922,98.019z M234.922,142.662c-6.436,0-11.668-5.232-11.668-11.652
	c0-6.436,5.233-11.668,11.668-11.668c6.42,0,11.652,5.233,11.652,11.668C246.574,137.429,241.342,142.662,234.922,142.662z"/>
</svg>