<?xml version="1.0" encoding="iso-8859-1"?>
<!-- Uploaded to: SVG Repo, www.svgrepo.com, Generator: SVG Repo Mixer Tools -->
<svg height="800px" width="800px" version="1.1" id="Layer_1" xmlns="http://www.w3.org/2000/svg" xmlns:xlink="http://www.w3.org/1999/xlink" 
	 viewBox="0 0 512 512" xml:space="preserve">
<path style="fill:#9BF57D;" d="M117.3,318.004c2.809,53.057,45.334,95.581,98.391,98.391c3.02,0.159,5.609-2.429,5.449-5.449
	c-2.809-53.057-45.334-95.581-98.391-98.391C119.73,312.395,117.141,314.984,117.3,318.004z"/>
<path style="fill:#7DC86E;" d="M305.525,367.017c-3.39-3.39-8.882-3.39-12.272,0l-28.575,28.577V260.339h-17.356v169.967
	l-71.966-71.966c-3.39-3.39-8.882-3.39-12.272,0c-3.39,3.39-3.39,8.882,0,12.272l84.238,84.237v48.474
	c0,4.792,3.881,8.678,8.678,8.678c4.797,0,8.678-3.886,8.678-8.678v-83.187l40.847-40.847
	C308.915,375.898,308.915,370.407,305.525,367.017z"/>
<path style="fill:#9BF57D;" d="M363.166,303.931c-38.633,2.761-69.493,33.62-72.253,72.253c-0.217,3.033,2.414,5.663,5.447,5.447
	c38.633-2.761,69.493-33.62,72.253-72.253C368.83,306.343,366.199,303.714,363.166,303.931z"/>
<g>
	<path style="fill:#FFE9C3;" d="M157.82,180.925c-15.492,15.492-15.492,40.611,0,56.103s40.611,15.492,56.103,0
		c7.051-7.051,28.707-47.601,42.077-73.635l-24.545-24.546C205.428,152.215,164.869,173.876,157.82,180.925z"/>
	<path style="fill:#FFE9C3;" d="M354.18,96.77c15.492-15.492,15.492-40.611,0-56.103c-15.492-15.492-40.611-15.492-56.102,0
		c-7.051,7.051-28.707,47.601-42.077,73.635l24.543,24.546C306.572,125.48,347.132,103.819,354.18,96.77z"/>
	<path style="fill:#FFE9C3;" d="M354.18,180.925c-7.051-7.051-47.601-28.707-73.635-42.077L256,163.392
		c13.367,26.027,35.028,66.586,42.077,73.636c15.492,15.492,40.611,15.491,56.103,0C369.673,221.535,369.673,196.417,354.18,180.925
		z"/>
	<path style="fill:#FFE9C3;" d="M231.455,138.847L256,114.303c-13.367-26.027-35.028-66.586-42.077-73.636
		c-15.492-15.492-40.611-15.491-56.103,0c-15.492,15.492-15.492,40.611,0,56.103C164.871,103.821,205.42,125.477,231.455,138.847z"
		/>
</g>
<g>
	<path style="fill:#FFF5DC;" d="M216.33,238.025c0,21.909,17.762,39.67,39.67,39.67s39.67-17.762,39.67-39.67
		c0-9.971-13.36-53.957-22.314-81.821h-34.712C229.693,184.06,216.33,228.056,216.33,238.025z"/>
	<path style="fill:#FFF5DC;" d="M295.671,39.67C295.671,17.762,277.91,0,256,0s-39.67,17.762-39.67,39.67
		c0,9.971,13.36,53.957,22.314,81.821h34.712C282.307,93.635,295.671,49.639,295.671,39.67z"/>
	<path style="fill:#FFF5DC;" d="M355.177,178.519c21.91,0,39.67-17.762,39.67-39.671s-17.762-39.67-39.67-39.67
		c-9.971,0-53.957,13.36-81.821,22.314v34.712C301.212,165.155,345.208,178.519,355.177,178.519z"/>
	<path style="fill:#FFF5DC;" d="M156.823,99.176c-21.909,0-39.67,17.762-39.67,39.671s17.762,39.67,39.67,39.67
		c9.971,0,53.957-13.36,81.821-22.314v-34.712C210.788,112.54,166.792,99.176,156.823,99.176z"/>
</g>
<path style="fill:#FFE9C3;" d="M325.424,130.169h-60.746V69.424c0-4.792-3.886-8.678-8.678-8.678c-4.792,0-8.678,3.886-8.678,8.678
	v60.746h-60.746c-4.792,0-8.678,3.886-8.678,8.678s3.886,8.678,8.678,8.678h60.746v60.746c0,4.792,3.886,8.678,8.678,8.678
	c4.792,0,8.678-3.886,8.678-8.678v-60.746h60.746c4.792,0,8.678-3.886,8.678-8.678S330.217,130.169,325.424,130.169z"/>
<circle style="fill:#FFDC64;" cx="256" cy="138.847" r="39.67"/>
<circle style="fill:#FFF082;" cx="256" cy="138.847" r="26.034"/>
</svg>