<?xml version="1.0" encoding="iso-8859-1"?>
<!-- Uploaded to: SVG Repo, www.svgrepo.com, Generator: SVG Repo Mixer Tools -->
<svg version="1.1" id="Layer_1" xmlns="http://www.w3.org/2000/svg" xmlns:xlink="http://www.w3.org/1999/xlink" 
	 viewBox="0 0 511.843 511.843" xml:space="preserve">
<g>
	<path style="fill:#8CC153;" d="M362.561,266.578c0-5.889-4.779-10.653-10.668-10.653c-1.078,0-2.125,0.156-3.108,0.453l0,0l0,0
		c-0.031,0.016-0.078,0.031-0.109,0.031c-1.921,0.609-23.618,7.514-46.751,23.071c-32.225,21.649-51.805,49.829-56.624,81.46
		l21.079,3.217c3.93-25.789,19.736-48.219,46.979-66.666c21.087-14.293,41.394-20.635,41.644-20.713
		C359.375,275.45,362.561,271.39,362.561,266.578z"/>
	<path style="fill:#8CC153;" d="M241.021,405.364c-20.08-21.15-38.77-35.256-55.553-41.957c-0.039-0.016-0.07-0.031-0.109-0.047
		c-0.055-0.016-0.109-0.047-0.164-0.062l0,0c-1.218-0.468-2.531-0.749-3.921-0.749c-5.889,0-10.661,4.78-10.661,10.669
		c0,4.498,2.804,8.341,6.748,9.902v0.016c13.699,5.405,30.295,18.104,48.009,36.724c13.808,14.511,23.375,27.507,23.477,27.632
		l17.197-12.59C265.629,434.323,255.719,420.843,241.021,405.364z"/>
</g>
<rect x="245.172" y="223.763" style="fill:#A0D468;" width="21.329" height="288.08"/>
<g>
	<path style="fill:#8CC153;" d="M208.796,187.993C208.796,186.65,208.687,189.305,208.796,187.993L208.796,187.993z"/>
	<path style="fill:#8CC153;" d="M208.976,140.866l-0.18,47.126c0,25.93,21.025,46.955,46.955,46.955
		c25.929,0,46.954-21.025,46.954-46.955l0.188-47.126H208.976z"/>
</g>
<g>
	<path style="fill:#5D9CEC;" d="M434.352,65.733c-0.406-10.95-24.258,5.186-31.521,0.781c-7.264-4.389,4.186-29.382-6.045-38.332
		c-10.075-8.826-28.633,14.074-36.38,10.559c-7.763-3.53-13.386-30.1-19.962-34.489c-6.576-4.405-39.52,24.305-48.158,24.118
		c-8.638-0.188-23.391-27.976-36.441-28.366c-13.059-0.391-27.813,28.178-36.443,28.366c-8.638,0.188-41.417-28.507-48.001-24.118
		c-6.584,4.405-12.363,30.959-20.119,34.489c-7.755,3.515-26.086-19.291-36.161-10.465c-10.224,8.95,0.914,33.068-6.357,37.457
		c-7.264,4.405-30.858-10.95-31.272,0c-1.453,38.254,41.534,71.619,63.84,75.133c20.135,3.187,45.268-2.155,52.047,0
		c10.528,3.358,15.417,18.776,15.417,18.776h47.048h47.047c0,0,4.89-15.417,15.417-18.776c6.779-2.155,31.912,3.187,52.047,0
		C392.646,137.352,435.805,103.987,434.352,65.733z"/>
	<path style="fill:#5D9CEC;" d="M108.764,87.07c4.639-2.812,1.788-13.652,1.772-23.461c-0.406,0.921-0.976,1.64-1.772,2.124
		c-7.264,4.405-30.858-10.95-31.272,0c-0.234,6.045,0.648,11.965,2.382,17.651C86.115,81.135,102.852,90.648,108.764,87.07z"/>
	<path style="fill:#5D9CEC;" d="M402.83,87.852c5.904,3.577,22.806-6.436,29.116-4.39c1.749-5.717,2.64-11.668,2.405-17.729
		c-0.406-10.95-24.258,5.186-31.521,0.781c-0.672-0.406-1.188-0.984-1.562-1.703C400.986,74.59,398.348,85.133,402.83,87.852z"/>
</g>
<path style="fill:#4A89DC;" d="M115.122,49.598c10.075-8.826,28.405,13.98,36.161,10.465s13.535-30.084,20.119-34.474
	c6.584-4.405,39.363,24.305,48.001,24.102c8.63-0.187,23.384-28.757,36.442-28.366c13.05,0.391,27.803,28.179,36.441,28.366
	c8.639,0.203,41.582-28.522,48.158-24.117s12.199,30.975,19.962,34.489c7.747,3.515,26.305-19.385,36.38-10.559
	c1.796,1.562,2.905,3.639,3.592,5.982c0.625-9.263,2.969-21.572-3.592-27.304c-10.075-8.826-28.633,14.074-36.38,10.559
	c-7.763-3.53-13.386-30.1-19.962-34.489c-6.576-4.405-39.52,24.305-48.158,24.118c-8.638-0.188-23.391-27.976-36.441-28.366
	c-13.059-0.391-27.813,28.178-36.443,28.366c-8.638,0.188-41.417-28.507-48.001-24.118c-6.584,4.405-12.363,30.959-20.119,34.489
	c-7.755,3.515-26.086-19.291-36.161-10.465c-6.803,5.951-4.155,18.604-3.757,27.726C112.044,53.487,113.208,51.269,115.122,49.598z"
	/>
</svg>