<?xml version="1.0" encoding="iso-8859-1"?>
<!-- Uploaded to: SVG Repo, www.svgrepo.com, Generator: SVG Repo Mixer Tools -->
<svg version="1.1" id="Layer_1" xmlns="http://www.w3.org/2000/svg" xmlns:xlink="http://www.w3.org/1999/xlink" 
	 viewBox="0 0 511.852 511.852" xml:space="preserve">
<g>
	<path style="fill:#8CC153;" d="M223.744,511.852c0,0,158.241-39.332,201.556-213.278
		C425.3,298.573,229.265,371.895,223.744,511.852z"/>
	<path style="fill:#8CC153;" d="M234.405,447.824c0,0-3.804-87.895-127.961-149.251
		C106.444,298.573,121.299,451.823,234.405,447.824z"/>
</g>
<rect x="223.746" y="280.576" style="fill:#A0D468;" width="21.329" height="231.27"/>
<path style="fill:#E9573F;" d="M354.853,115.597c10.825-24.523,6.201-54.218-13.887-74.29
	C320.895,21.219,291.2,16.596,266.684,27.42C250.868,5.787,222.845-5.053,195.408,2.288c-27.437,7.357-46.291,30.756-49.165,57.404
	c-26.64,2.874-50.047,21.728-57.396,49.157c-7.357,27.445,3.491,55.468,25.125,71.291c-10.833,24.508-6.209,54.202,13.879,74.274
	c20.087,20.087,49.773,24.711,74.29,13.886c15.808,21.635,43.831,32.475,71.283,25.117c27.43-7.341,46.283-30.74,49.157-57.389
	c26.647-2.874,50.048-21.728,57.389-49.157C387.326,159.428,376.487,131.405,354.853,115.597z"/>
<path style="fill:#FC6E51;" d="M292.887,181.624c13.543-5.249,23.134-18.385,23.134-33.771c0-15.37-9.591-28.522-23.134-33.755
	c2.234-14.339-4.342-29.226-17.666-36.911c-13.324-7.701-29.507-5.951-40.809,3.155c-11.309-9.106-27.484-10.84-40.808-3.155
	s-19.9,22.571-17.674,36.911c-13.527,5.233-23.126,18.385-23.126,33.755c0,15.386,9.599,28.538,23.134,33.771
	c-2.234,14.339,4.342,29.226,17.667,36.911c13.324,7.685,29.499,5.951,40.808-3.155c11.301,9.106,27.477,10.84,40.809,3.155
	C288.545,210.85,295.121,195.964,292.887,181.624z"/>
<path style="fill:#FFCE54;" d="M255.734,147.853c0,11.778-9.544,21.337-21.322,21.337c-11.786,0-21.33-9.56-21.33-21.337
	s9.544-21.322,21.33-21.322C246.19,126.531,255.734,136.075,255.734,147.853z"/>
</svg>