<?xml version="1.0" encoding="iso-8859-1"?>
<!-- Uploaded to: SVG Repo, www.svgrepo.com, Generator: SVG Repo Mixer Tools -->
<svg version="1.1" id="Layer_1" xmlns="http://www.w3.org/2000/svg" xmlns:xlink="http://www.w3.org/1999/xlink" 
	 viewBox="0 0 511.841 511.841" xml:space="preserve">
<path style="fill:#8CC153;" d="M248.832,478.135c26.165,70.135,156.375-158.233,156.375-158.233
	C312.078,315.841,235.523,442.489,248.832,478.135z"/>
<rect x="245.26" y="224.131" style="fill:#A0D468;" width="21.322" height="287.71"/>
<path style="fill:#D94452;" d="M306.143,101.344c-13.715,51.203-38.676,89.004-55.741,84.427s-19.775-49.781-6.061-100.984
	c13.723-51.188,38.669-88.989,55.741-84.412C317.139,4.936,319.858,50.156,306.143,101.344z"/>
<path style="fill:#EC5564;" d="M267.506,84.787c13.707,51.203,11.004,96.408-6.061,100.984
	c-17.065,4.577-42.027-33.224-55.741-84.427C191.99,50.156,194.7,4.936,211.765,0.375C228.83-4.202,253.783,33.599,267.506,84.787z"
	/>
<path style="fill:#D94452;" d="M225.76,89.769c37.482,37.473,57.733,77.992,45.245,90.488c-12.496,12.48-53.008-7.763-90.48-45.252
	c-37.481-37.473-57.732-77.992-45.244-90.472C147.776,32.037,188.288,52.296,225.76,89.769z"/>
<path style="fill:#EC5564;" d="M192.107,114.949c51.195,13.714,88.981,38.675,84.421,55.749
	c-4.577,17.057-49.783,19.775-100.986,6.061c-51.195-13.73-88.989-38.676-84.419-55.749
	C95.699,103.953,140.903,101.234,192.107,114.949z"/>
<path style="fill:#D94452;" d="M175.542,153.594c51.203-13.73,96.409-11.013,100.986,6.061
	c4.561,17.057-33.226,42.018-84.421,55.733c-51.203,13.714-96.408,11.012-100.984-6.061
	C86.553,192.269,124.346,167.308,175.542,153.594z"/>
<path style="fill:#EC5564;" d="M225.76,240.567c-37.473,37.489-77.984,57.748-90.48,45.251s7.763-53.015,45.244-90.488
	c37.473-37.473,77.984-57.732,90.48-45.236C283.493,162.591,263.242,203.094,225.76,240.567z"/>
<path style="fill:#D94452;" d="M267.506,245.55c-13.723,51.203-38.676,88.988-55.741,84.427
	c-17.065-4.577-19.783-49.782-6.061-100.984c13.714-51.203,38.676-88.988,55.741-84.427
	C278.51,149.142,281.213,194.362,267.506,245.55z"/>
<path style="fill:#EC5564;" d="M306.143,228.992c13.715,51.202,10.996,96.407-6.061,100.984
	c-17.072,4.562-42.019-33.224-55.741-84.427c-13.715-51.188-11.004-96.408,6.061-100.985
	C267.467,140.004,292.428,177.789,306.143,228.992z"/>
<path style="fill:#D94452;" d="M331.322,195.331c37.473,37.473,57.732,77.992,45.236,90.488c-12.48,12.496-53-7.763-90.473-45.251
	c-37.481-37.473-57.732-77.992-45.244-90.472C253.338,137.599,293.85,157.858,331.322,195.331z"/>
<path style="fill:#EC5564;" d="M336.305,153.594c51.188,13.714,88.989,38.675,84.412,55.733
	c-4.561,17.073-49.781,19.775-100.969,6.061c-51.195-13.715-88.997-38.676-84.42-55.733
	C239.897,142.581,285.102,139.863,336.305,153.594z"/>
<path style="fill:#D94452;" d="M319.748,114.949c51.188-13.715,96.408-10.997,100.969,6.061
	c4.577,17.073-33.225,42.019-84.412,55.749c-51.203,13.714-96.408,10.997-100.977-6.061
	C230.751,153.625,268.553,128.664,319.748,114.949z"/>
<path style="fill:#EC5564;" d="M331.322,135.005c-37.473,37.489-77.984,57.732-90.48,45.252
	c-12.488-12.496,7.763-53.015,45.244-90.488c37.473-37.473,77.977-57.732,90.473-45.236
	C389.055,57.014,368.795,97.533,331.322,135.005z"/>
<path style="fill:#FFCE54;" d="M255.923,218.48c-14.238,0-27.625-5.545-37.7-15.604c-20.783-20.791-20.783-54.608,0-75.399
	c10.075-10.075,23.461-15.62,37.7-15.62c14.239,0,27.632,5.545,37.692,15.62c20.791,20.791,20.791,54.608,0,75.399
	C283.556,212.935,270.162,218.48,255.923,218.48z"/>
<g>
	<path style="fill:#F6BB42;" d="M255.923,101.188L255.923,101.188L255.923,101.188z"/>
	<path style="fill:#F6BB42;" d="M301.16,119.932c-12.496-12.497-28.867-18.745-45.237-18.745s-32.748,6.248-45.236,18.745
		c-24.985,24.992-24.985,65.496,0,90.472c12.488,12.496,28.866,18.744,45.236,18.744s32.741-6.248,45.237-18.744
		C326.137,185.428,326.137,144.924,301.16,119.932z M286.086,195.331c-8.06,8.06-18.768,12.497-30.163,12.497
		s-22.103-4.437-30.155-12.497c-16.627-16.635-16.627-43.689,0-60.31c8.052-8.06,18.768-12.496,30.155-12.496
		c11.395,0,22.103,4.436,30.147,12.496C302.706,151.641,302.706,178.695,286.086,195.331z"/>
</g>
</svg>