<?xml version="1.0" encoding="iso-8859-1"?>
<!-- Uploaded to: SVG Repo, www.svgrepo.com, Generator: SVG Repo Mixer Tools -->
<svg height="800px" width="800px" version="1.1" id="Layer_1" xmlns="http://www.w3.org/2000/svg" xmlns:xlink="http://www.w3.org/1999/xlink" 
	 viewBox="0 0 512 512" xml:space="preserve">
<path style="fill:#A3682D;" d="M247.467,512c-4.713,0-8.533-3.821-8.533-8.533v-179.2c0-4.713,3.821-8.533,8.533-8.533
	c4.713,0,8.533,3.821,8.533,8.533v179.2C256,508.179,252.179,512,247.467,512z"/>
<path style="fill:#FFC552;" d="M418.133,170.667c0-16.438-7.756-31.057-19.798-40.425c5.745-14.134,5.153-30.672-3.067-44.909
	s-22.245-23.019-37.359-25.11c-2.091-15.113-10.873-29.138-25.109-37.358s-30.774-8.812-44.909-3.067
	C278.524,7.756,263.905,0,247.467,0c-16.438,0-31.057,7.756-40.425,19.798c-14.134-5.745-30.672-5.153-44.909,3.067
	s-23.019,22.245-25.11,37.358c-15.113,2.092-29.138,10.874-37.358,25.11s-8.812,30.774-3.067,44.909
	C84.556,139.61,76.8,154.228,76.8,170.667s7.756,31.057,19.798,40.425c-5.745,14.134-5.153,30.672,3.067,44.909
	c8.22,14.237,22.245,23.019,37.359,25.11c2.092,15.113,10.874,29.139,25.11,37.358c14.237,8.22,30.774,8.812,44.909,3.067
	c9.366,12.043,23.985,19.798,40.423,19.798c16.438,0,31.057-7.756,40.425-19.798c14.134,5.745,30.672,5.153,44.909-3.067
	s23.019-22.245,25.11-37.358c15.113-2.092,29.139-10.874,37.359-25.11c8.22-14.237,8.812-30.774,3.067-44.909
	C410.378,201.724,418.133,187.105,418.133,170.667z"/>
<circle style="fill:#FC9C47;" cx="247.467" cy="170.667" r="119.467"/>
<circle style="fill:#FFE5BA;" cx="247.467" cy="170.667" r="102.4"/>
<circle style="fill:#72CCC5;" cx="247.467" cy="170.667" r="76.8"/>
<path style="fill:#11BBA3;" d="M273.067,230.4c-42.416,0-76.8-34.385-76.8-76.8c0-21.097,8.511-40.202,22.282-54.082
	c-28.079,11.424-47.882,38.966-47.882,71.149c0,42.415,34.384,76.8,76.8,76.8c21.318,0,40.604-8.691,54.518-22.718
	C293.057,228.382,283.3,230.4,273.067,230.4z"/>
<path style="fill:#198A82;" d="M247.467,85.867c-46.758,0-84.8,38.042-84.8,84.8s38.042,84.8,84.8,84.8
	c46.759,0,84.8-38.042,84.8-84.8S294.226,85.867,247.467,85.867z M306.858,205.333h-20.685c1.73-8.211,2.848-17.165,3.251-26.667
	h26.364C314.666,188.3,311.548,197.328,306.858,205.333z M188.076,136h20.685c-1.73,8.211-2.848,17.165-3.251,26.667h-26.363
	C180.268,153.034,183.386,144.005,188.076,136z M264.497,120h-34.061c5.149-11.689,11.619-18.133,17.03-18.133
	C252.878,101.867,259.348,108.311,264.497,120z M276.615,108.366c6.37,2.992,12.211,6.927,17.338,11.634H281.7
	C280.191,115.791,278.489,111.902,276.615,108.366z M221.519,162.667c0.462-9.974,1.771-18.912,3.637-26.667h44.622
	c1.867,7.755,3.175,16.692,3.637,26.667H221.519z M273.414,178.667c-0.462,9.974-1.771,18.912-3.637,26.667h-44.622
	c-1.867-7.755-3.175-16.692-3.637-26.667H273.414z M213.233,120H200.98c5.126-4.707,10.967-8.641,17.338-11.634
	C216.445,111.902,214.742,115.791,213.233,120z M205.51,178.667c0.403,9.502,1.52,18.455,3.251,26.667h-20.685
	c-4.69-8.005-7.808-17.034-8.929-26.667H205.51z M213.233,221.333c1.509,4.209,3.213,8.098,5.085,11.634
	c-6.37-2.992-12.211-6.927-17.338-11.634H213.233z M230.436,221.333h34.061c-5.149,11.689-11.619,18.133-17.03,18.133
	C242.055,239.467,235.585,233.022,230.436,221.333z M281.7,221.333h12.253c-5.126,4.707-10.967,8.641-17.338,11.634
	C278.489,229.431,280.191,225.542,281.7,221.333z M289.423,162.667c-0.403-9.502-1.52-18.455-3.251-26.667h20.685
	c4.69,8.005,7.808,17.034,8.929,26.667H289.423z"/>
<g>
	<circle style="fill:#FFE5BA;" cx="409.6" cy="25.6" r="25.6"/>
	<circle style="fill:#FFE5BA;" cx="469.333" cy="341.333" r="25.6"/>
	<circle style="fill:#FFE5BA;" cx="42.667" cy="204.8" r="25.6"/>
</g>
<path style="fill:#66BF00;" d="M406.49,326.609c-1.651-1.651-3.943-2.496-6.27-2.32c-3.324,0.256-81.759,6.627-113.654,38.524
	c-26.857,26.857-29.507,66.282-6.034,89.756c10.726,10.726,24.78,15.997,39.447,15.997c17.429,0,35.724-7.446,50.308-22.031
	c31.895-31.895,38.268-110.332,38.524-113.654C408.989,330.551,408.141,328.26,406.49,326.609z"/>
<path style="fill:#58AB23;" d="M407.595,327.996c-2.977,23.579-12.291,77.222-37.309,102.24
	c-14.585,14.585-32.878,22.031-50.308,22.031c-8.083,0-15.977-1.611-23.233-4.843l16.708-16.647h33.074c4.418,0,8-3.582,8-8
	s-3.582-8-8-8h-17.015l34.731-34.605c3.131-3.119,3.139-8.183,0.021-11.313c-3.119-3.131-8.185-3.139-11.313-0.021l-34.625,34.5
	v-16.766c0-4.418-3.582-8-8-8c-4.418,0-8,3.582-8,8v32.707l-19.347,19.278c-0.831-0.735-1.65-1.491-2.446-2.287
	c-8.729-8.729-13.838-19.664-15.441-31.337c-2.304,17.537,2.731,34.925,15.441,47.635c10.726,10.726,24.78,15.997,39.447,15.997
	c17.429,0,35.724-7.446,50.308-22.031c31.895-31.895,38.268-110.332,38.524-113.654
	C408.943,331.148,408.506,329.438,407.595,327.996z"/>
<path style="fill:#66BF00;" d="M88.444,326.609c1.651-1.651,3.943-2.496,6.27-2.32c3.324,0.256,81.759,6.627,113.654,38.524
	c26.857,26.857,29.507,66.282,6.034,89.756c-10.726,10.726-24.78,15.997-39.447,15.997c-17.429,0-35.724-7.446-50.308-22.031
	C92.751,414.639,86.379,336.203,86.123,332.88C85.945,330.551,86.793,328.26,88.444,326.609z"/>
<path style="fill:#58AB23;" d="M229.398,402.045c-1.111,12.752-6.319,24.781-15.763,34.225c-0.666,0.666-1.344,1.309-2.034,1.933
	l-18.992-18.923v-32.707c0-4.418-3.582-8-8-8c-4.418,0-8,3.582-8,8v16.766l-34.625-34.5c-3.129-3.118-8.194-3.11-11.313,0.021
	c-3.118,3.13-3.109,8.195,0.021,11.313l34.731,34.605h-17.015c-4.418,0-8,3.582-8,8c0,4.418,3.582,8,8,8h33.074l16.475,16.415
	c-7.402,3.393-15.486,5.075-23.766,5.075c-17.429,0-35.724-7.446-50.308-22.031c-24.603-24.603-34.018-76.889-37.155-101.041
	c-0.48,1.153-0.7,2.411-0.602,3.685c0.256,3.324,6.627,81.759,38.524,113.654c14.583,14.585,32.878,22.031,50.308,22.031
	c14.667,0,28.721-5.27,39.447-15.997C227.811,439.161,232.681,420.547,229.398,402.045z"/>
</svg>