<?xml version="1.0" encoding="iso-8859-1"?>
<!-- Uploaded to: SVG Repo, www.svgrepo.com, Generator: SVG Repo Mixer Tools -->
<svg version="1.1" id="Layer_1" xmlns="http://www.w3.org/2000/svg" xmlns:xlink="http://www.w3.org/1999/xlink" 
	 viewBox="0 0 511.846 511.846" xml:space="preserve">
<g>
	<path style="fill:#8CC153;" d="M245.513,490.384c75.625,16.808,202.54-317.481,202.54-317.481
		C350.629,203.893,201.465,480.59,245.513,490.384z"/>
	<path style="fill:#8CC153;" d="M248.856,511.096c-75.633,16.809-162.7-254.531-162.7-254.531
		C183.595,287.57,292.897,501.303,248.856,511.096z"/>
</g>
<path style="fill:#FFCE54;" d="M241.593,1.611C113.663-13.056,51.526,77.01,65.802,86.898
	c155.984,107.936,175.791,255.843,175.791,255.843C348.177,143.537,369.498,16.263,241.593,1.611z"/>
<rect x="237.583" y="287.803" style="fill:#A0D468;" width="21.321" height="223.9"/>
<path style="fill:#F6BB42;" d="M241.593,1.611C113.663-13.056,51.526,77.01,65.802,86.898c7.966,5.514,15.574,11.122,22.837,16.823
	c50.797,12.496,141.16,26.398,198.416,19.416c18.072-2.218,42.908-25.368,42.596-32.115C327.387,41.24,299.988,8.297,241.593,1.611z
	"/>
<path style="fill:#A0D468;" d="M204.854,240.882c26.664,49.923,34.693,89.707,36.364,99.517l1.515,0.188
	c19.228-36.036,35.622-69.697,48.835-100.75C272.465,243.772,236.735,248.895,204.854,240.882z"/>
<path style="fill:#FFCE54;" d="M329.089,81.571c-2.405-8.966-8.981-16.776-19.182-22.415c-24.524-13.559-68.361-13.137-90.339,7.732
	c-4.264,4.061-4.436,10.809-0.375,15.073c4.045,4.265,10.793,4.452,15.073,0.391c6.482-6.17,17.776-10.169,30.975-10.95
	c12.848-0.766,25.703,1.625,34.356,6.42c10.591,5.857,9.341,12.027,8.936,14.058c-0.438,2.156-1.75,8.732-15.262,14.246
	c-23.797,9.747-71.954,10.294-132.139,1.484c-43.237-6.326-80.929-15.87-96.361-21.743c0.281,0.406,0.625,0.75,1.031,1.031
	c15.308,10.591,29.304,21.572,42.112,32.771c15.604,3.358,32.803,6.498,50.141,9.044c28.522,4.17,55.577,6.42,78.226,6.482
	c0.359,0,0.703,0,1.062,0c27.351,0,48.883-3.14,64.02-9.325c15.963-6.545,25.414-16.558,28.069-29.788c0.109-0.5,0.188-1,0.265-1.5
	C329.682,90.1,329.48,85.757,329.089,81.571z"/>
</svg>