<?xml version="1.0" encoding="iso-8859-1"?>
<!-- Uploaded to: SVG Repo, www.svgrepo.com, Generator: SVG Repo Mixer Tools -->
<svg height="800px" width="800px" version="1.1" id="Layer_1" xmlns="http://www.w3.org/2000/svg" xmlns:xlink="http://www.w3.org/1999/xlink" 
	 viewBox="0 0 512.003 512.003" xml:space="preserve">
<g>
	<g>
		<path style="fill:#81C784;" d="M364.474,303.731c0,58.958-49.907,78.102-78.102,78.102
			C286.372,345.776,305.516,303.731,364.474,303.731"/>
		<path style="fill:#81C784;" d="M156.203,225.63c0,58.958,49.907,78.102,78.102,78.102
			C234.305,267.674,215.161,225.63,156.203,225.63"/>
	</g>
	<g>
		<path style="fill:#4CAF50;" d="M258.042,420.825c-2.977,0-5.875-1.527-7.489-4.278c-2.43-4.131-1.05-9.45,3.081-11.88
			c16.991-9.997,24.81-26.355,24.88-26.52c2.031-4.339,7.194-6.213,11.542-4.165c4.339,2.031,6.205,7.203,4.174,11.542
			c-0.408,0.868-10.223,21.409-31.796,34.104C261.054,420.443,259.535,420.825,258.042,420.825"/>
		<path style="fill:#4CAF50;" d="M251.537,512.003c-0.286,0-0.573-0.009-0.868-0.043c-4.764-0.477-8.253-4.721-7.775-9.494
			c8.444-85.079,14.223-231.806,0.633-291.614c-1.067-4.669,1.866-9.32,6.535-10.379c4.712-1.059,9.329,1.866,10.388,6.535
			c14.813,65.18,7.689,216.871-0.286,297.177C259.721,508.662,255.946,512.003,251.537,512.003"/>
	</g>
	<path style="fill:#48A0DC;" d="M327.961,75.976c-3.098,0-8.487,1.293-8.348,1.154c11.134-11.125,15.707-28.177,1.475-42.418
		c-14.379-14.371-30.633-8.999-41.758,2.126c-0.148,0.148,1.146-5.25,1.146-8.348c0-15.733-12.757-28.49-28.49-28.49
		s-28.49,12.757-28.49,28.49c0,3.098,1.302,8.496,1.154,8.348c-11.125-11.125-28.177-16.358-42.409-2.126
		c-14.379,14.379-9.008,31.293,2.117,42.418c0.148,0.139-5.25-1.154-8.34-1.154c-15.742,0-28.49,12.757-28.49,28.49
		s12.748,28.49,28.49,28.49c3.089,0,8.487-1.293,8.34-1.154c-11.125,11.125-16.358,27.527-2.117,41.758
		c13.694,13.694,31.284,9.659,42.409-1.467c0.148-0.139-1.154,5.25-1.154,8.348c0,15.733,12.757,27.83,28.49,27.83
		s28.49-12.097,28.49-27.83c0-3.098-1.293-8.487-1.146-8.348c11.125,11.125,28.125,15.1,41.758,1.467
		c13.824-13.824,9.659-30.633-1.475-41.758c-0.139-0.139,5.25,1.154,8.348,1.154c15.733,0,27.839-12.757,27.839-28.49
		S343.694,75.976,327.961,75.976"/>
	<path style="fill:#4CAF50;" d="M260.33,338.477c-2.829,0-5.606-1.38-7.272-3.931c-11.247-17.2-22.467-22.971-22.571-23.023
		c-4.261-2.143-6.031-7.324-3.94-11.594c2.1-4.278,7.203-6.092,11.507-4.027c1.562,0.755,15.655,7.923,29.531,29.149
		c2.621,4.009,1.493,9.39-2.517,12.01C263.601,338.017,261.953,338.477,260.33,338.477"/>
	<path style="fill:#FFFFFF;" d="M278.023,104.138c0-14.379-11.655-26.034-26.034-26.034c-14.379,0-26.034,11.655-26.034,26.034
		s11.655,26.034,26.034,26.034C266.368,130.172,278.023,118.518,278.023,104.138"/>
</g>
</svg>