<?xml version="1.0" encoding="iso-8859-1"?>
<!-- Uploaded to: SVG Repo, www.svgrepo.com, Generator: SVG Repo Mixer Tools -->
<svg height="800px" width="800px" version="1.1" id="Layer_1" xmlns="http://www.w3.org/2000/svg" xmlns:xlink="http://www.w3.org/1999/xlink" 
	 viewBox="0 0 511.844 511.844" xml:space="preserve">
<g>
	<path style="fill:#8CC153;" d="M234.116,511.844c0,0,177.04-11.277,212.122-255.25C446.238,256.594,234.116,277.26,234.116,511.844
		z"/>
	<path style="fill:#8CC153;" d="M255.445,127.961c0-23.509,19.127-42.644,42.65-42.644c23.525,0,42.66,19.135,42.66,42.644h21.32
		c0-35.333-28.646-63.98-63.98-63.98c-35.332,0-63.979,28.647-63.979,63.98c0,18.963,8.239,35.974,21.329,47.688V127.961z"/>
	<path style="fill:#8CC153;" d="M191.465,191.942c-35.341,0-63.98,28.647-63.98,63.98h21.329c0-23.509,19.128-42.644,42.651-42.644
		c23.517,0,42.651,19.135,42.651,42.644v47.689c13.09-11.716,21.329-28.727,21.329-47.689
		C255.445,220.589,226.798,191.942,191.465,191.942z"/>
</g>
<path style="fill:#A0D468;" d="M191.465,0c-35.341,0-63.98,28.647-63.98,63.98h21.329c0-23.509,19.128-42.644,42.651-42.644
	c23.517,0,42.651,19.135,42.651,42.644v47.688v400.175h21.329V63.981C255.445,28.648,226.798,0,191.465,0z"/>
<path style="fill:#AC92EB;" d="M190.723,101.094c-0.53-11.012-1.069-22.384-8.067-31.928c-7.92-10.809-21.431-15.839-42.526-15.839
	h-0.375h-0.406c-21.087,0-34.599,5.03-42.518,15.839c-6.998,9.544-7.545,20.916-8.068,31.928
	c-0.672,14.074-1.522,23.009-10.122,29.132l-13.034,9.294l13.597,8.451c1.562,0.968,15.644,9.497,28.304,9.497
	c0.977,0,1.938-0.047,2.867-0.141c5.42,6.326,14.784,15.573,25.71,19.088l3.28,1.062l0.375-0.125l0.375,0.125l3.288-1.062
	c10.919-3.515,20.291-12.762,25.711-19.088c0.93,0.094,1.883,0.141,2.866,0.141l0,0c12.668,0,26.742-8.529,28.304-9.497
	l13.598-8.451l-13.043-9.294C192.238,124.103,191.395,115.168,190.723,101.094z"/>
<g>
	<path style="fill:#967ADC;" d="M410.922,194.206c-8.607-6.123-9.451-15.058-10.123-29.132c-0.531-11.012-1.077-22.384-8.075-31.928
		c-7.903-10.809-21.431-15.839-42.519-15.839h-0.375h-0.406c-21.087,0-34.598,5.03-42.518,15.839
		c-6.998,9.544-7.529,20.916-8.061,31.928c-0.688,14.074-1.53,23.009-10.121,29.132L275.68,203.5l13.605,8.451
		c1.562,0.968,15.635,9.497,28.303,9.497c0.969,0,1.938-0.047,2.859-0.141c5.42,6.326,14.792,15.573,25.711,19.088l3.295,1.062
		l0.359-0.125l0.375,0.125l3.297-1.062c10.918-3.515,20.274-12.762,25.711-19.088c0.921,0.094,1.873,0.141,2.857,0.141
		c12.668,0,26.742-8.529,28.305-9.497l13.605-8.451L410.922,194.206z"/>
	<path style="fill:#967ADC;" d="M190.723,293.035c-0.53-11.012-1.069-22.383-8.067-31.928c-7.92-10.809-21.431-15.839-42.526-15.839
		h-0.375h-0.406c-21.087,0-34.599,5.03-42.518,15.839c-6.998,9.545-7.545,20.916-8.068,31.928
		c-0.672,14.074-1.522,23.01-10.122,29.133l-13.034,9.293l13.597,8.451c1.562,0.969,15.644,9.497,28.304,9.497
		c0.977,0,1.938-0.047,2.867-0.141c5.42,6.326,14.784,15.573,25.71,19.088l3.28,1.062l0.375-0.125l0.375,0.125l3.288-1.062
		c10.919-3.515,20.291-12.762,25.711-19.088c0.93,0.094,1.883,0.141,2.866,0.141l0,0c12.668,0,26.742-8.528,28.304-9.497
		l13.598-8.451l-13.043-9.293C192.238,316.045,191.395,307.11,190.723,293.035z"/>
</g>
</svg>