<?xml version="1.0" encoding="iso-8859-1"?>
<!-- Uploaded to: SVG Repo, www.svgrepo.com, Generator: SVG Repo Mixer Tools -->
<svg height="800px" width="800px" version="1.1" id="Layer_1" xmlns="http://www.w3.org/2000/svg" xmlns:xlink="http://www.w3.org/1999/xlink" 
	 viewBox="0 0 512 512" xml:space="preserve">
<path style="fill:#328777;" d="M358.42,428.653c0,0-27.884,15-54.904,7.373c-27.02-7.628-42.943-34.994-42.943-34.994
	s27.884-15,54.904-7.373C342.497,401.286,358.42,428.653,358.42,428.653z"/>
<path style="fill:#3EAC92;" d="M240.018,512c-4.263,0-7.719-3.455-7.719-7.719c0-53.983,16.834-96.462,30.956-122.592
	c15.367-28.434,30.697-44.011,31.343-44.661c3.004-3.024,7.891-3.038,10.915-0.034c3.023,3.004,3.039,7.887,0.039,10.912
	c-0.276,0.28-14.743,15.112-28.995,41.64c-13.147,24.47-28.82,64.238-28.82,114.734C247.736,508.544,244.281,512,240.018,512z"/>
<g>
	<path style="fill:#328777;" d="M305.552,347.906c3.001-3.024,2.983-7.908-0.039-10.912c-3.024-3.004-7.912-2.99-10.915,0.034
		c-0.539,0.542-11.333,11.514-23.832,31.694h18.415C298.278,355.367,305.36,348.101,305.552,347.906z"/>
	<path style="fill:#328777;" d="M217.774,333.126c0,0-13.331,28.719-39.532,38.808s-55.35-2.274-55.35-2.274
		s13.331-28.719,39.532-38.808C188.625,320.763,217.774,333.126,217.774,333.126z"/>
</g>
<path style="fill:#3EAC92;" d="M240.018,512c-4.263,0-7.719-3.455-7.719-7.719c0-142.953,18.871-243.435,34.702-302.555
	c17.282-64.543,34.482-94.822,35.206-96.079c2.125-3.696,6.845-4.967,10.539-2.839c3.695,2.126,4.966,6.845,2.839,10.539
	c-0.354,0.623-17.238,30.686-33.91,93.259c-15.482,58.109-33.939,156.924-33.939,297.675C247.736,508.544,244.281,512,240.018,512z"
	/>
<path style="fill:#328777;" d="M315.587,113.346c2.126-3.695,0.855-8.413-2.839-10.539c-3.695-2.127-8.414-0.856-10.539,2.839
	c-0.541,0.94-10.291,18.107-22.399,53.676h16.363C306.93,128.77,315.338,113.784,315.587,113.346z"/>
<path style="fill:#3EAC92;" d="M240.018,512c-4.263,0-7.719-3.455-7.719-7.719c0-183.343-70.892-277.964-71.608-278.897
	c-2.593-3.384-1.952-8.229,1.431-10.822c3.384-2.593,8.229-1.952,10.821,1.432c0.775,1.011,19.187,25.309,37.674,73.18
	c16.935,43.849,37.119,116.761,37.119,215.108C247.736,508.544,244.281,512,240.018,512z"/>
<path style="fill:#328777;" d="M172.944,215.993c-2.593-3.384-7.438-4.024-10.821-1.432c-3.384,2.593-4.024,7.439-1.431,10.822
	c0.236,0.308,8.099,10.803,18.534,31.294h17.326C183.767,230.274,173.518,216.741,172.944,215.993z"/>
<path style="fill:#FFDA44;" d="M160.715,84.384L160.715,84.384c5.191,5.191,12.232,8.108,19.574,8.108l0,0
	c15.288,0,27.682,12.394,27.682,27.682l0,0c0,7.342,2.917,14.382,8.108,19.574l0,0c10.81,10.81,10.81,28.338,0,39.149l0,0
	c-5.191,5.191-8.108,12.232-8.108,19.574l0,0c0,15.288-12.394,27.682-27.682,27.682l0,0c-7.342,0-14.382,2.917-19.574,8.108l0,0
	c-10.81,10.81-28.338,10.81-39.149,0l0,0c-5.191-5.191-12.232-8.108-19.574-8.108l0,0c-15.288,0-27.682-12.394-27.682-27.682l0,0
	c0-7.342-2.917-14.382-8.108-19.574l0,0c-10.81-10.81-10.81-28.338,0-39.149l0,0c5.191-5.191,8.108-12.232,8.108-19.574l0,0
	c0-15.288,12.394-27.682,27.682-27.682l0,0c7.342,0,14.382-2.917,19.574-8.108l0,0C132.377,73.574,149.905,73.574,160.715,84.384z"
	/>
<circle style="fill:#FFEB99;" cx="141.138" cy="159.322" r="40.736"/>
<path style="opacity:0.1;fill:#AA6100;enable-background:new    ;" d="M216.079,140.985L216.079,140.985
	c-5.191-5.191-8.108-12.232-8.108-19.574c0-14.833-11.666-26.94-26.324-27.648c0.022,0.45,0.034,0.903,0.034,1.358
	c0,7.342,2.917,14.382,8.108,19.574l0,0c10.81,10.81,10.81,28.338,0,39.149c-5.191,5.191-8.108,12.232-8.108,19.574
	c0,15.288-12.394,27.682-27.682,27.682l0,0c-7.342,0-14.382,2.917-19.574,8.108c-10.81,10.81-28.338,10.81-39.149,0
	c-5.191-5.191-12.232-8.108-19.574-8.108l0,0c-0.456,0-0.908-0.012-1.358-0.034c0.708,14.657,12.815,26.325,27.648,26.325l0,0
	c7.342,0,14.382,2.917,19.574,8.108c10.81,10.81,28.338,10.81,39.149,0c5.191-5.191,12.232-8.108,19.574-8.108l0,0
	c15.288,0,27.682-12.393,27.682-27.682c0-7.342,2.917-14.383,8.108-19.574C226.89,169.322,226.89,151.795,216.079,140.985z"/>
<path style="fill:#FFDA44;" d="M366.639,214.966L366.639,214.966c5.191,5.191,12.232,8.108,19.574,8.108l0,0
	c15.288,0,27.682,12.394,27.682,27.682l0,0c0,7.342,2.917,14.382,8.108,19.574l0,0c10.81,10.81,10.81,28.338,0,39.149l0,0
	c-5.191,5.191-8.108,12.232-8.108,19.574l0,0c0,15.288-12.394,27.682-27.682,27.682l0,0c-7.342,0-14.382,2.917-19.574,8.108l0,0
	c-10.81,10.81-28.338,10.81-39.149,0l0,0c-5.191-5.191-12.232-8.108-19.574-8.108l0,0c-15.288,0-27.682-12.394-27.682-27.682l0,0
	c0-7.342-2.917-14.382-8.108-19.574l0,0c-10.81-10.81-10.81-28.338,0-39.149l0,0c5.191-5.191,8.108-12.232,8.108-19.574l0,0
	c0-15.288,12.394-27.682,27.682-27.682l0,0c7.342,0,14.382-2.917,19.574-8.108l0,0C338.301,204.156,355.829,204.156,366.639,214.966
	z"/>
<circle style="fill:#FFEB99;" cx="347.07" cy="289.9" r="40.736"/>
<path style="fill:#FFDA44;" d="M390.434,8.108L390.434,8.108c5.191,5.191,12.232,8.108,19.574,8.108l0,0
	c15.288,0,27.682,12.394,27.682,27.682l0,0c0,7.342,2.917,14.382,8.108,19.574l0,0c10.81,10.81,10.81,28.338,0,39.149l0,0
	c-5.191,5.191-8.108,12.232-8.108,19.574l0,0c0,15.288-12.394,27.682-27.682,27.682l0,0c-7.342,0-14.382,2.917-19.574,8.108l0,0
	c-10.81,10.81-28.338,10.81-39.149,0l0,0c-5.191-5.191-12.232-8.108-19.574-8.108l0,0c-15.288,0-27.682-12.394-27.682-27.682l0,0
	c0-7.342-2.917-14.382-8.108-19.574l0,0c-10.81-10.81-10.81-28.338,0-39.149l0,0c5.191-5.191,8.108-12.232,8.108-19.574l0,0
	c0-15.288,12.394-27.682,27.682-27.682l0,0c7.342,0,14.382-2.917,19.574-8.108l0,0C362.096-2.703,379.624-2.703,390.434,8.108z"/>
<circle style="fill:#FFEB99;" cx="370.863" cy="83.042" r="40.736"/>
<g>
	<path style="opacity:0.1;fill:#AA6100;enable-background:new    ;" d="M445.798,63.472L445.798,63.472
		c-5.191-5.191-8.108-12.232-8.108-19.574c0-14.833-11.666-26.94-26.324-27.648c0.022,0.45,0.034,0.903,0.034,1.358
		c0,7.342,2.917,14.382,8.108,19.574l0,0c10.81,10.81,10.81,28.338,0,39.149c-5.191,5.191-8.108,12.232-8.108,19.574
		c0,15.288-12.394,27.682-27.682,27.682l0,0c-7.342,0-14.382,2.917-19.574,8.108c-10.81,10.81-28.338,10.81-39.149,0
		c-5.191-5.191-12.232-8.108-19.574-8.108l0,0c-0.456,0-0.908-0.012-1.358-0.034c0.708,14.657,12.815,26.325,27.648,26.325l0,0
		c7.342,0,14.382,2.917,19.574,8.108c10.81,10.81,28.338,10.81,39.149,0c5.191-5.191,12.232-8.108,19.574-8.108l0,0
		c15.288,0,27.682-12.393,27.682-27.682c0-7.342,2.917-14.383,8.108-19.574C456.608,91.81,456.608,74.283,445.798,63.472z"/>
	<path style="opacity:0.1;fill:#AA6100;enable-background:new    ;" d="M422.004,270.33L422.004,270.33
		c-5.191-5.191-8.108-12.232-8.108-19.574c0-14.833-11.666-26.94-26.323-27.648c0.022,0.45,0.034,0.903,0.034,1.358
		c0,7.342,2.917,14.382,8.108,19.574l0,0c10.81,10.81,10.81,28.338,0,39.149c-5.191,5.191-8.108,12.232-8.108,19.574
		c0,15.288-12.394,27.682-27.682,27.682l0,0c-7.342,0-14.382,2.917-19.574,8.108c-10.81,10.81-28.338,10.81-39.149,0
		c-5.191-5.191-12.232-8.108-19.574-8.108l0,0c-0.456,0-0.908-0.012-1.358-0.034c0.708,14.657,12.815,26.325,27.648,26.325l0,0
		c7.342,0,14.382,2.917,19.574,8.108c10.81,10.81,28.338,10.81,39.149,0c5.191-5.191,12.232-8.108,19.574-8.108l0,0
		c15.288,0,27.682-12.393,27.682-27.682c0-7.342,2.917-14.383,8.108-19.574C432.814,298.668,432.814,281.14,422.004,270.33z"/>
</g>
</svg>