<?xml version="1.0" encoding="iso-8859-1"?>
<!-- Uploaded to: SVG Repo, www.svgrepo.com, Generator: SVG Repo Mixer Tools -->
<svg height="800px" width="800px" version="1.1" id="Layer_1" xmlns="http://www.w3.org/2000/svg" xmlns:xlink="http://www.w3.org/1999/xlink" 
	 viewBox="0 0 512.001 512.001" xml:space="preserve">
<path style="fill:#F0E6D7;" d="M305.53,130.374c-6.165-6.165-14.629-8.606-22.63-7.359l-1.573,1.544
	c1.073-4.156,1.135-8.481,0.143-12.653l0.969,0.986c8.137,1.416,16.808-0.999,23.091-7.283
	c18.792-18.792,30.455-51.845,34.987-66.695c1.02-3.341-2.098-6.46-5.439-5.439c-14.85,4.532-47.903,16.195-66.695,34.987
	c-6.165,6.165-8.606,14.629-7.359,22.63l1.544,1.573c-4.218-1.089-8.611-1.127-12.839-0.089l1.203-1.208
	c1.348-8.084-1.078-16.67-7.314-22.907c-18.792-18.792-51.845-30.455-66.695-34.987c-3.341-1.02-6.46,2.098-5.439,5.439
	c4.532,14.85,16.195,47.903,34.987,66.695c6.267,6.267,14.907,8.686,23.024,7.295l1.054-1.058c-0.984,4.09-0.968,8.33,0.036,12.416
	l-1.207-1.202c-8.084-1.347-16.671,1.078-22.907,7.314c-18.792,18.792-30.455,51.845-34.987,66.695
	c-1.02,3.341,2.098,6.46,5.439,5.439c14.85-4.532,47.903-16.195,66.695-34.987c6.267-6.267,8.686-14.907,7.295-23.024l-1.058-1.054
	c4.028,0.967,8.202,0.976,12.232,0.019l-0.986,0.969c-1.415,8.137,0.999,16.808,7.284,23.092
	c18.792,18.792,51.845,30.455,66.695,34.987c3.341,1.02,6.46-2.098,5.439-5.439C335.985,182.22,324.322,149.168,305.53,130.374z"/>
<circle style="fill:#E6DECD;" cx="255.996" cy="117.995" r="52.534"/>
<g>
	<path style="fill:#9BF57D;" d="M381.353,285.291c2.98-0.53,5.574,2.063,5.043,5.043c-2.633,14.807-11.458,53.627-34.471,76.64
		c-15.946,15.946-39.441,18.304-52.479,5.267c-13.037-13.037-10.68-36.533,5.267-52.479
		C327.726,296.749,366.546,287.925,381.353,285.291z"/>
	<path style="fill:#9BF57D;" d="M130.648,250.268c-2.98-0.53-5.574,2.063-5.043,5.043c2.633,14.807,11.458,53.627,34.471,76.64
		c15.946,15.946,39.441,18.304,52.479,5.267s10.68-36.533-5.267-52.479C184.274,261.726,145.455,252.902,130.648,250.268z"/>
</g>
<g>
	<path style="fill:#8CE16E;" d="M160.076,331.951c15.945,15.946,39.441,18.304,52.479,5.268l-85.745-85.745
		c-0.955,0.954-1.47,2.348-1.205,3.838C128.238,270.119,137.061,308.938,160.076,331.951z"/>
	<path style="fill:#8CE16E;" d="M381.353,285.291c-14.807,2.634-53.627,11.458-76.64,34.472
		c-15.945,15.945-18.304,39.441-5.267,52.479l85.745-85.745C384.237,285.541,382.843,285.026,381.353,285.291z"/>
</g>
<path style="fill:#7DC86E;" d="M340.992,330.695c-3.42-3.42-8.961-3.42-12.382,0l-63.411,63.411c-0.158,0.158-0.29,0.332-0.444,0.49
	V205.55h-17.511v154.023c-0.155-0.159-0.288-0.333-0.444-0.49l-63.411-63.411c-3.42-3.42-8.961-3.42-12.382,0s-3.42,8.961,0,12.382
	l63.411,63.411c8.269,8.269,12.826,19.265,12.826,30.961v100.819c0,4.84,3.916,8.756,8.756,8.756s8.756-3.916,8.756-8.756v-65.797
	c0-11.698,4.557-22.693,12.826-30.961l63.411-63.411C344.412,339.656,344.412,334.115,340.992,330.695z"/>
<path style="fill:#FAF3E3;" d="M299.779,91.724c-8.72,0-16.429,4.259-21.206,10.798l-0.02,2.204c-2.18-3.697-5.194-6.8-8.847-9.048
	l1.382,0.012c6.755-4.752,11.178-12.591,11.178-21.478c0-26.577-15.126-58.195-22.421-71.9c-1.642-3.084-6.051-3.084-7.693,0
	c-7.296,13.705-22.421,45.323-22.421,71.9c0,8.719,4.259,16.429,10.799,21.205l2.204,0.02c-3.753,2.212-6.886,5.292-9.141,9.016
	l-0.003-1.705c-4.763-6.669-12.55-11.026-21.369-11.026c-26.577,0-58.195,15.126-71.9,22.421c-3.084,1.642-3.084,6.051,0,7.693
	c13.705,7.296,45.323,22.421,71.9,22.421c8.862,0,16.682-4.4,21.438-11.122l-0.003-1.494c2.197,3.588,5.206,6.574,8.805,8.754
	l-1.703,0.003c-6.669,4.763-11.026,12.55-11.026,21.371c0,26.577,15.126,58.195,22.421,71.9c1.642,3.084,6.051,3.084,7.693,0
	c7.296-13.705,22.421-45.323,22.421-71.9c0-8.862-4.399-16.682-11.122-21.438l-1.494,0.003c3.532-2.164,6.49-5.109,8.662-8.636
	l-0.012,1.382c4.753,6.755,12.592,11.178,21.479,11.178c26.577,0,58.195-15.126,71.9-22.421c3.084-1.642,3.084-6.051,0-7.693
	C357.974,106.85,326.355,91.724,299.779,91.724z"/>
<path style="fill:#F0E6D7;" d="M291.932,142.918c4.922-7.08,7.847-15.65,7.847-24.925c0-9.276-2.924-17.844-7.845-24.923
	c-5.395,1.706-10.094,4.982-13.361,9.454l-0.02,2.204c-2.18-3.697-5.194-6.8-8.847-9.048l1.382,0.012
	c4.659-3.278,8.083-8.085,9.837-13.63c-7.08-4.922-15.65-7.847-24.925-7.847c-9.275,0-17.843,2.924-24.923,7.845
	c1.706,5.395,4.982,10.094,9.455,13.361l2.204,0.02c-3.753,2.212-6.886,5.292-9.141,9.016l-0.003-1.705
	c-3.274-4.584-8.038-7.948-13.523-9.683c-4.922,7.08-7.846,15.649-7.846,24.924c0,9.277,2.924,17.845,7.846,24.925
	c5.524-1.748,10.315-5.149,13.592-9.78l-0.003-1.494c2.197,3.588,5.206,6.574,8.805,8.754l-1.703,0.003
	c-4.584,3.275-7.948,8.039-9.684,13.524c7.08,4.922,15.649,7.846,24.924,7.846c9.277,0,17.845-2.924,24.925-7.846
	c-1.748-5.524-5.148-10.315-9.78-13.592l-1.494,0.003c3.532-2.164,6.49-5.109,8.662-8.636l-0.012,1.382
	C281.579,137.74,286.386,141.164,291.932,142.918z"/>
<circle style="fill:#FFDC64;" cx="255.996" cy="117.995" r="26.267"/>
</svg>