<?xml version="1.0" encoding="iso-8859-1"?>
<!-- Uploaded to: SVG Repo, www.svgrepo.com, Generator: SVG Repo Mixer Tools -->
<svg height="800px" width="800px" version="1.1" id="Layer_1" xmlns="http://www.w3.org/2000/svg" xmlns:xlink="http://www.w3.org/1999/xlink" 
	 viewBox="0 0 512 512" xml:space="preserve">
<g>
	<path style="fill:#88E2E2;" d="M292.296,376.623c-20.098,20.098-32.19,45.165-36.295,71.245
		c26.081-4.105,51.148-16.198,71.245-36.296c17.979-17.979,29.553-39.936,34.732-63.037c0.891-3.972-2.671-7.534-6.643-6.643
		C332.232,347.07,310.275,358.644,292.296,376.623z"/>
	<path style="fill:#88E2E2;" d="M217.87,376.623c20.098,20.098,32.19,45.165,36.295,71.245
		c-26.081-4.105-51.148-16.198-71.245-36.296c-17.979-17.979-29.553-39.936-34.732-63.037c-0.891-3.972,2.671-7.534,6.643-6.643
		C177.933,347.07,199.89,358.644,217.87,376.623z"/>
</g>
<g>
	<path style="fill:#67D1D3;" d="M327.245,382.749c-17.831,17.831-39.576,29.345-62.468,34.587
		c-4.195,9.85-7.135,20.106-8.777,30.532c26.081-4.105,51.148-16.198,71.245-36.295c17.977-17.977,29.549-39.93,34.729-63.027
		c0.889-3.961-2.656-7.534-6.616-6.645c-0.198,0.044-0.396,0.09-0.594,0.134C348.465,356.824,339.308,370.686,327.245,382.749z"/>
	<path style="fill:#67D1D3;" d="M182.92,382.749c-12.064-12.064-21.221-25.924-27.519-40.713c-0.198-0.046-0.396-0.09-0.594-0.134
		c-3.961-0.89-7.505,2.684-6.616,6.645c5.18,23.098,16.753,45.05,34.729,63.027c20.098,20.098,45.165,32.19,71.245,36.295
		c-1.642-10.427-4.581-20.682-8.777-30.532C222.496,412.095,200.751,400.58,182.92,382.749z"/>
</g>
<path style="fill:#EDA156;" d="M256.001,512c-4.713,0-8.533-3.875-8.533-8.657V283.43c0-4.782,3.821-8.657,8.533-8.657
	c4.713,0,8.533,3.875,8.533,8.657v219.913C264.534,508.125,260.713,512,256.001,512z"/>
<g>
	<path style="fill:#F09EA0;" d="M294.053,128.833c30.664-22.571,58.742-43.585,63.308-48.151c10.686-10.686,10.686-28.011,0-38.697
		s-28.011-10.686-38.697,0c-4.566,4.566-25.579,32.644-48.151,63.308L294.053,128.833z"/>
	<path style="fill:#F09EA0;" d="M217.947,157.859c-30.664,22.571-58.742,43.585-63.308,48.151
		c-10.686,10.686-10.686,28.011,0,38.697c10.686,10.686,28.011,10.686,38.697,0c4.566-4.566,25.579-32.644,48.151-63.308
		L217.947,157.859z"/>
	<path style="fill:#F09EA0;" d="M270.513,181.399c22.571,30.664,43.585,58.742,48.151,63.308c10.686,10.686,28.011,10.686,38.697,0
		c10.686-10.686,10.686-28.011,0-38.697c-4.566-4.566-32.644-25.579-63.308-48.151L270.513,181.399z"/>
	<path style="fill:#F09EA0;" d="M241.486,105.293c-22.571-30.664-43.585-58.742-48.151-63.308
		c-10.686-10.686-28.011-10.686-38.697,0c-10.686,10.686-10.686,28.011,0,38.697c4.566,4.566,32.644,25.579,63.308,48.151
		L241.486,105.293z"/>
</g>
<g>
	<path style="fill:#F9DE8F;" d="M272.645,106.176c5.722-37.642,10.718-72.356,10.718-78.813C283.363,12.25,271.112,0,255.999,0
		c-15.112,0-27.363,12.25-27.363,27.363c0,6.457,4.996,41.17,10.718,78.813H272.645z"/>
	<path style="fill:#F9DE8F;" d="M239.355,180.516c-5.722,37.642-10.718,72.356-10.718,78.813c0,15.112,12.25,27.363,27.363,27.363
		c15.112,0,27.363-12.25,27.363-27.363c0-6.457-4.996-41.17-10.718-78.813H239.355z"/>
	<path style="fill:#F9DE8F;" d="M293.171,159.992c37.643,5.722,72.356,10.718,78.813,10.718c15.112,0,27.363-12.25,27.363-27.363
		c0-15.112-12.25-27.363-27.363-27.363c-6.457,0-41.17,4.996-78.813,10.718L293.171,159.992L293.171,159.992z"/>
	<path style="fill:#F9DE8F;" d="M218.829,126.702c-37.643-5.722-72.356-10.718-78.813-10.718c-15.112,0-27.364,12.25-27.364,27.363
		c0,15.112,12.25,27.363,27.364,27.363c6.457,0,41.17-4.996,78.813-10.718V126.702z"/>
</g>
<g>
	<path style="fill:#EF8990;" d="M357.36,53.32c-3.879,3.88-24.73,19.63-49.719,38.122c-7.798,5.771-18.648,4.97-25.508-1.89l0,0
		c-3.774,5.095-7.673,10.377-11.621,15.741l23.539,23.539c30.664-22.571,58.742-43.585,63.308-48.151
		c8.957-8.957,10.375-22.564,4.319-33.031C360.51,49.673,359.091,51.59,357.36,53.32z"/>
	<path style="fill:#EF8990;" d="M193.336,217.343c-10.686,10.686-28.011,10.686-38.697,0c-1.729-1.729-3.149-3.647-4.319-5.667
		c-6.058,10.466-4.638,24.074,4.319,33.031c10.686,10.686,28.011,10.686,38.697,0c4.566-4.566,25.579-32.644,48.151-63.308
		l-11.622-11.622C212.069,193.801,197.104,213.577,193.336,217.343z"/>
	<path style="fill:#EF8990;" d="M357.36,217.343c-10.686,10.686-28.011,10.686-38.697,0c-3.767-3.767-18.732-23.543-36.528-47.567
		l-11.621,11.622c22.571,30.663,43.585,58.742,48.151,63.308c10.686,10.686,28.011,10.686,38.697,0
		c8.957-8.957,10.375-22.564,4.319-33.031C360.51,213.698,359.091,215.614,357.36,217.343z"/>
	<path style="fill:#EF8990;" d="M229.865,89.552c-6.86,6.86-17.709,7.661-25.508,1.89c-24.989-18.492-45.839-34.242-49.719-38.122
		c-1.729-1.729-3.149-3.645-4.319-5.667c-6.058,10.466-4.638,24.074,4.319,33.031c4.566,4.566,32.644,25.578,63.308,48.151
		l23.539-23.539C237.537,99.927,233.639,94.646,229.865,89.552L229.865,89.552z"/>
</g>
<g>
	<path style="fill:#F7CF6D;" d="M255.999,78.813L255.999,78.813c-9.58,0-17.716-7.018-19.132-16.492
		c-2.605-17.431-4.895-33.31-6.393-44.816c-1.182,3.059-1.838,6.382-1.838,9.859c0,6.457,4.996,41.17,10.718,78.813h33.29
		c5.722-37.642,10.718-72.356,10.718-78.813c0-3.477-0.655-6.799-1.837-9.859c-1.498,11.506-3.788,27.385-6.393,44.816
		C273.716,71.796,265.579,78.813,255.999,78.813z"/>
	<path style="fill:#F7CF6D;" d="M255.999,259.33c-11.635,0-21.568-7.266-25.525-17.505c-1.153,8.847-1.838,15.114-1.838,17.505
		c0,15.112,12.25,27.363,27.363,27.363c15.113,0,27.363-12.25,27.363-27.363c0-2.39-0.686-8.657-1.838-17.505
		C277.567,252.064,267.635,259.33,255.999,259.33z"/>
	<path style="fill:#F7CF6D;" d="M371.983,143.346c-6.457,0-41.17-4.996-78.813-10.718v-5.927l0,0v33.29
		c37.642,5.722,72.356,10.718,78.813,10.718c15.112,0,27.363-12.252,27.363-27.363c0-4.986-1.34-9.656-3.669-13.682
		C390.944,137.841,382.109,143.346,371.983,143.346z"/>
	<path style="fill:#F7CF6D;" d="M116.324,129.664c-2.33,4.025-3.669,8.696-3.669,13.682c0,15.112,12.25,27.363,27.364,27.363
		c6.457,0,41.17-4.996,78.813-10.718v-27.363c-37.643,5.722-72.356,10.718-78.813,10.718
		C129.891,143.346,121.056,137.841,116.324,129.664z"/>
</g>
<circle style="fill:#88E2E2;" cx="255.999" cy="143.348" r="44.963"/>
</svg>