<?xml version="1.0" encoding="iso-8859-1"?>
<!-- Uploaded to: SVG Repo, www.svgrepo.com, Generator: SVG Repo Mixer Tools -->
<svg height="800px" width="800px" version="1.1" id="Layer_1" xmlns="http://www.w3.org/2000/svg" xmlns:xlink="http://www.w3.org/1999/xlink" 
	 viewBox="0 0 511.842 511.842" xml:space="preserve">
<g>
	<path style="fill:#8CC153;" d="M363.358,212.901c0,0-115.448,142.801-90.551,282.603
		C272.807,495.504,392.239,418.434,363.358,212.901z"/>
	<path style="fill:#8CC153;" d="M214.028,200.687c-2.39-8.81-12.543-35.192-27.194-40.644c-5.858-2.187-12.388-0.765-19.963,4.343
		l-11.918-17.713c16.838-11.34,30.709-9.856,39.378-6.623c27.555,10.294,39.098,50.516,40.316,55.077l-20.619,5.545l10.31-2.78
		L214.028,200.687z"/>
</g>
<path style="fill:#A0D468;" d="M273.416,511.842h22.229c-8.264-28.241-31.507-111.388-46.627-201.235
	c-10.84-64.434-15.433-119.511-13.621-163.731c2.172-53.343,13.496-90.145,33.693-109.404c9.434-8.997,20.665-14.105,34.333-15.636
	c15.276-1.718,33.583,1.234,54.374,8.763l7.264-20.087c-47.455-17.167-84.693-13.293-110.7,11.512
	c-43.206,41.206-52.078,139.489-26.398,292.13C242.301,399.299,263.858,478.57,273.416,511.842z"/>
<path style="fill:#4A89DC;" d="M168.417,145.813c0,0-9.466-6.076-27.726-6.076c-19.744,0-49.766,7.107-89.238,36.661
	c-16.714,12.527-33.412,14.699-42.956,14.699c-5.076,0-8.138-0.609-8.138-0.609c8.247,28.585,27.663,31.334,36.224,31.334
	c2.046,0,3.467-0.156,3.967-0.156c0.125,0,0.188,0,0.203,0.031c0.328,0.375-3.062,32.412,8.154,43.628
	c7.216,7.216,23.071,8.387,33.552,8.387c4.999,0,8.778-0.265,9.81-0.265c0.156,0,0.25,0,0.266,0.031
	c0.484,0.39-5.748,29.726,31.209,40.394c0,0-5.092-25.492,14.09-51.094C194.722,186.8,168.417,145.813,168.417,145.813z"/>
<path style="fill:#5D9CEC;" d="M505.002,63.291c-8.936,0-25.852-2.046-42.55-15.167c-38.659-30.397-68.151-37.441-87.192-37.441
	c-16.447,0-25.07,5.264-25.07,5.264s-26.336,39.003,26.898,113.637c17.947,25.164,12.449,49.672,12.449,49.672
	c35.942-9.466,30.568-37.941,31.053-38.316c0.016-0.016,0.078-0.016,0.172-0.016c0.984,0,6.092,0.516,12.574,0.516
	c9.95,0,23.118-1.218,29.569-7.373c11.091-10.591,8.544-41.597,8.856-41.972c0.016-0.016,0.062-0.016,0.156-0.016
	c0.516,0,2.25,0.25,4.765,0.25c8.653,0,26.491-2.983,34.802-29.46C511.484,62.869,509.078,63.291,505.002,63.291z"/>
</svg>