<?xml version="1.0" encoding="iso-8859-1"?>
<!-- Uploaded to: SVG Repo, www.svgrepo.com, Generator: SVG Repo Mixer Tools -->
<svg version="1.1" id="Layer_1" xmlns="http://www.w3.org/2000/svg" xmlns:xlink="http://www.w3.org/1999/xlink" 
	 viewBox="0 0 512 512" xml:space="preserve">
<path style="fill:#4E894D;" d="M378.88,341.333c0,45.28-36.64,81.92-81.92,81.92h-27.307v-27.307c0-45.28,36.64-81.92,81.92-81.92
	h27.307V341.333z"/>
<path style="fill:#6DC180;" d="M215.04,368.64c-45.28,0-81.92-36.64-81.92-81.92v-27.307h27.307c45.28,0,81.92,36.64,81.92,81.92
	v27.307H215.04z"/>
<rect x="235.52" y="150.187" style="fill:#5CA15D;" width="40.96" height="361.813"/>
<path style="fill:#E592BF;" d="M358.4,102.4c0-14.228-6.225-26.995-16.092-35.75c0.786-13.167-3.839-26.597-13.9-36.658
	c-10.061-10.061-23.491-14.687-36.658-13.9C282.995,6.226,270.228,0,256,0s-26.995,6.226-35.75,16.092
	c-13.167-0.786-26.597,3.839-36.658,13.9s-14.687,23.491-13.9,36.658c-9.867,8.755-16.092,21.522-16.092,35.75
	s6.225,26.995,16.092,35.75c-0.786,13.167,3.839,26.597,13.9,36.658c10.061,10.061,23.491,14.687,36.658,13.9
	c8.755,9.866,21.522,16.092,35.75,16.092s26.995-6.226,35.75-16.092c13.167,0.786,26.597-3.839,36.658-13.9
	c10.061-10.061,14.687-23.491,13.9-36.658C352.175,129.395,358.4,116.628,358.4,102.4z"/>
<path style="fill:#E176AF;" d="M358.4,102.4c0-14.228-6.225-26.995-16.092-35.75c0.786-13.167-3.839-26.597-13.9-36.658
	c-10.061-10.061-23.491-14.687-36.658-13.9C282.995,6.226,270.228,0,256,0v204.8c14.228,0,26.995-6.226,35.75-16.092
	c13.167,0.786,26.597-3.839,36.658-13.9c10.061-10.061,14.687-23.491,13.9-36.658C352.175,129.395,358.4,116.628,358.4,102.4z"/>
<path style="fill:#FFEA8A;" d="M256,129.707c-15.057,0-27.307-12.25-27.307-27.307S240.943,75.093,256,75.093
	c15.057,0,27.307,12.25,27.307,27.307S271.057,129.707,256,129.707z"/>
<path style="fill:#FFDB2D;" d="M256,75.093v54.613c15.057,0,27.307-12.25,27.307-27.307S271.057,75.093,256,75.093z"/>
</svg>