<?xml version="1.0" encoding="iso-8859-1"?>
<!-- Uploaded to: SVG Repo, www.svgrepo.com, Generator: SVG Repo Mixer Tools -->
<svg version="1.1" id="Layer_1" xmlns="http://www.w3.org/2000/svg" xmlns:xlink="http://www.w3.org/1999/xlink" 
	 viewBox="0 0 511.852 511.852" xml:space="preserve">
<g>
	<path style="fill:#8CC153;" d="M232.754,511.844c0,0,124.782-63.965,170.565-257.546
		C403.319,254.298,239.33,382.415,232.754,511.844z"/>
	<path style="fill:#8CC153;" d="M254.075,511.844c0,0-0.141-140.582-117.276-213.075
		C136.799,298.769,135.674,459.126,254.075,511.844z"/>
</g>
<rect x="232.756" y="283.982" style="fill:#A0D468;" width="21.321" height="227.87"/>
<g>
	<path style="fill:#E9573F;" d="M110.088,231.68c12.496,21.649,187.028,47.954,133.756-77.227
		C162.072,45.721,97.592,210.045,110.088,231.68z"/>
	<path style="fill:#E9573F;" d="M243.844,0c-24.992,0-135.052,138.021,0,154.453C378.889,138.021,268.836,0,243.844,0z"/>
	<path style="fill:#E9573F;" d="M377.592,231.68c12.496-21.635-51.984-185.959-133.748-77.227
		C190.548,279.634,365.096,253.329,377.592,231.68z"/>
</g>
<g>
	<path style="fill:#FC6E51;" d="M120.491,81.257c-11.715,20.306,48.813,174.587,125.587,72.493
		C296.101,36.224,132.222,60.935,120.491,81.257z"/>
	<path style="fill:#FC6E51;" d="M371.656,81.257c-11.73-20.322-175.61-45.033-125.578,72.493
		C322.843,255.844,383.387,101.563,371.656,81.257z"/>
	<path style="fill:#FC6E51;" d="M246.078,298.769c23.461,0,126.796-129.57,0-145.019
		C119.288,169.198,222.616,298.769,246.078,298.769z"/>
</g>
<path style="fill:#FFCE54;" d="M275.389,151.376c0,17.666-14.316,31.99-31.982,31.99c-17.667,0-31.975-14.324-31.975-31.99
	c0-17.651,14.308-31.975,31.975-31.975C261.072,119.401,275.389,133.725,275.389,151.376z"/>
</svg>