<?xml version="1.0" encoding="iso-8859-1"?>
<!-- Uploaded to: SVG Repo, www.svgrepo.com, Generator: SVG Repo Mixer Tools -->
<svg version="1.1" id="Layer_1" xmlns="http://www.w3.org/2000/svg" xmlns:xlink="http://www.w3.org/1999/xlink" 
	 viewBox="0 0 511.852 511.852" xml:space="preserve">
<g>
	<path style="fill:#8CC153;" d="M283.87,415.545l-4.296-9.762c-0.391,0.172-9.684,4.295-19.932,10.605
		c-15.104,9.31-24.258,18.307-27.959,27.508l19.79,7.95c3.452-8.575,23.931-20.915,36.692-26.538L283.87,415.545z"/>
	<path style="fill:#8CC153;" d="M251.583,364.279c-3.686-9.199-12.84-18.197-27.944-27.507
		c-10.247-6.311-19.541-10.435-19.932-10.606l-8.591,19.525c12.746,5.607,33.225,17.932,36.692,26.539L251.583,364.279z"/>
</g>
<rect x="231.026" y="208.582" style="fill:#A0D468;" width="21.337" height="303.27"/>
<path style="fill:#AC92EB;" d="M241.696,0C171.047,0,113.58,47.845,113.58,106.64c0,58.794,57.467,106.639,128.116,106.639
	c70.65,0,128.117-47.845,128.117-106.639C369.813,47.845,312.346,0,241.696,0z"/>
<path style="fill:#967ADC;" d="M369.813,106.64L369.813,106.64c-0.047,0-0.109,0-0.156,0c-11.762,0-21.321-9.56-21.321-21.322
	c0-0.484,0.016-0.968,0.047-1.437c5.92-1.562,11.325-4.374,15.948-8.123c-2.547-6.997-5.936-13.698-10.075-20.009
	c-3.905,5.014-9.981,8.231-16.823,8.231c-11.043,0-20.15-8.435-21.212-19.213c0.031-0.688,0.047-1.406,0.047-2.108
	c0-0.469-0.016-0.922-0.031-1.391c6.42-1.671,12.262-4.811,17.136-9.044c-5.654-4.827-11.855-9.2-18.525-13.074
	c-2.844,1.391-6.029,2.187-9.404,2.187c-9.559,0-17.666-6.342-20.369-15.026c-7.138-2.155-14.573-3.78-22.242-4.842
	c0.016,0.218,0,0.437,0.016,0.655c-1.062,10.763-10.169,19.213-21.213,19.213c-11.262,0-20.509-8.778-21.274-19.837
	c-7.778,1.077-15.308,2.749-22.54,4.951c-2.733,8.622-10.809,14.886-20.337,14.886c-3.265,0-6.373-0.749-9.139-2.062
	c-6.686,3.89-12.887,8.294-18.557,13.152c4.843,4.14,10.638,7.217,16.979,8.856c0.031,0.453,0.062,0.922,0.062,1.375
	c0,11.762-9.575,21.321-21.337,21.321c-6.686,0-12.653-3.093-16.558-7.92c-4.108,6.312-7.451,12.996-9.966,19.979
	c4.654,3.718,10.091,6.467,16.042,7.967c0.031,0.438,0.047,0.874,0.047,1.312c0,11.763-9.56,21.322-21.322,21.322
	c-0.047,0-0.109,0-0.155,0l0,0c0,46.438,35.848,86.036,85.724,100.625c3.858-2.296,7.31-5.186,10.263-8.544
	c7.81,8.903,19.244,14.542,32.021,14.558c0,0,0.031,0,0.062,0c12.685-0.016,24.086-5.561,31.896-14.37
	c2.938,3.327,6.389,6.186,10.231,8.45C333.809,192.832,369.813,153.172,369.813,106.64z M305.535,70.947
	c5.576,6.295,12.996,10.918,21.416,13.059c0.031,0.422,0.047,0.858,0.047,1.312c0,11.763-9.561,21.322-21.322,21.322
	c-11.043,0-20.15-8.436-21.228-19.213c0.047-0.703,0.062-1.406,0.062-2.109c0-0.469-0.016-0.937-0.031-1.405
	C292.742,81.74,300.022,77.149,305.535,70.947z M252.349,41.284c8.31-2.155,15.651-6.748,21.196-12.98
	c5.545,6.248,12.918,10.856,21.275,13.012c-0.016,0.438-0.031,0.891-0.031,1.344c0,0.702,0.016,1.421,0.047,2.108
	c-1.062,10.778-10.169,19.213-21.213,19.213c-11.762,0-21.337-9.56-21.337-21.321C252.286,42.206,252.318,41.737,252.349,41.284z
	 M241.556,70.76c5.576,6.373,13.042,11.059,21.493,13.215c-0.016,0.453-0.031,0.89-0.031,1.343c0,0.703,0.031,1.406,0.062,2.109
	c-1.062,10.777-10.185,19.213-21.229,19.213c-11.762,0-21.321-9.56-21.321-21.322c0-0.5,0.016-0.983,0.062-1.468
	C228.824,81.615,236.088,77.008,241.556,70.76z M188.197,41.284c8.404-2.171,15.808-6.842,21.369-13.168
	c5.514,6.295,12.855,10.935,21.181,13.137c0.031,0.469,0.062,0.938,0.062,1.406c0,11.762-9.575,21.321-21.337,21.321
	c-11.747,0-21.322-9.56-21.322-21.321C188.15,42.206,188.181,41.737,188.197,41.284z M156.441,83.881
	c8.264-2.188,15.558-6.795,21.041-13.027c5.607,6.342,13.058,10.996,21.509,13.152c0.031,0.422,0.047,0.858,0.047,1.312
	c0,11.763-9.56,21.322-21.322,21.322c-11.762,0-21.321-9.56-21.321-21.322C156.394,84.833,156.409,84.35,156.441,83.881z
	 M124.169,127.961c0-0.438,0.016-0.875,0.047-1.312c8.467-2.14,15.917-6.794,21.509-13.136c5.499,6.232,12.777,10.824,21.041,13.026
	c0.031,0.469,0.062,0.953,0.062,1.422c0,11.762-9.575,21.337-21.337,21.337C133.744,149.298,124.169,139.723,124.169,127.961z
	 M177.482,191.942c-11.747,0-21.322-9.56-21.322-21.321c0-0.453,0.031-0.922,0.047-1.375c8.373-2.171,15.729-6.795,21.275-13.074
	c5.545,6.279,12.918,10.903,21.274,13.074c0.031,0.453,0.062,0.922,0.062,1.375C198.819,182.382,189.243,191.942,177.482,191.942z
	 M209.472,149.298c-11.747,0-21.322-9.575-21.322-21.337c0-0.438,0.016-0.875,0.047-1.312c8.498-2.155,15.979-6.841,21.587-13.229
	c5.468,6.232,12.715,10.855,20.963,13.073c0.031,0.484,0.062,0.984,0.062,1.469C230.809,139.723,221.234,149.298,209.472,149.298z
	 M241.633,191.942c-11.762,0-21.337-9.56-21.337-21.321c0-0.469,0.031-0.938,0.062-1.406c8.326-2.202,15.667-6.842,21.197-13.137
	c5.529,6.311,12.901,10.966,21.274,13.152c-0.016,0.469-0.031,0.922-0.031,1.391c0,0.702,0.016,1.421,0.047,2.108
	C261.783,183.507,252.677,191.942,241.633,191.942z M273.623,149.298c-11.762,0-21.337-9.575-21.337-21.337
	c0-0.438,0.031-0.875,0.047-1.312c8.419-2.124,15.839-6.747,21.431-13.042c5.498,6.201,12.793,10.777,21.057,12.948
	c-0.016,0.469-0.031,0.938-0.031,1.406c0,0.719,0.016,1.422,0.047,2.124C293.774,140.848,284.667,149.298,273.623,149.298z
	 M305.442,191.942c-11.043,0-20.15-8.435-21.212-19.213c0.031-0.688,0.047-1.406,0.047-2.108c0-0.453-0.016-0.906-0.031-1.344
	c8.356-2.155,15.729-6.764,21.29-13.012c5.529,6.232,12.871,10.825,21.182,12.98c0.031,0.453,0.062,0.922,0.062,1.375
	C326.78,182.382,317.203,191.942,305.442,191.942z M316.22,130.085c0.031-0.702,0.047-1.405,0.047-2.124
	c0-0.438-0.016-0.891-0.031-1.328c8.419-2.155,15.854-6.794,21.431-13.12c5.498,6.232,12.777,10.824,21.041,13.026
	c0.031,0.469,0.062,0.953,0.062,1.422c0,11.762-9.576,21.337-21.338,21.337C326.389,149.298,317.281,140.848,316.22,130.085z"/>
<g>
	<path style="fill:#A0D468;" d="M411.972,313.717c0,0-188.817-25.805-137.271,110.029
		C396.055,503.628,411.972,313.717,411.972,313.717z"/>
	<path style="fill:#A0D468;" d="M99.88,253.657c0,0,155.858-21.307,113.309,90.831C113.017,410.422,99.88,253.657,99.88,253.657z"/>
</g>
</svg>