<?xml version="1.0" encoding="iso-8859-1"?>
<!-- Uploaded to: SVG Repo, www.svgrepo.com, Generator: SVG Repo Mixer Tools -->
<svg version="1.1" id="Layer_1" xmlns="http://www.w3.org/2000/svg" xmlns:xlink="http://www.w3.org/1999/xlink" 
	 viewBox="0 0 511.842 511.842" xml:space="preserve">
<g>
	<path style="fill:#8CC153;" d="M234.599,490.507c-0.266,10.606,95.97-4.655,181.273-191.941
		C415.872,298.566,238.785,318.169,234.599,490.507z"/>
	<path style="fill:#8CC153;" d="M255.109,435.883c-3.343,29.975-97.689,13.871-159.139-168.277
		C95.97,267.606,266.526,333.57,255.109,435.883z"/>
</g>
<rect x="234.601" y="266.012" style="fill:#A0D468;" width="21.322" height="245.83"/>
<path style="fill:#C15F9E;" d="M351.001,184.834c0,51.031-47.345,92.41-105.749,92.41s-105.733-41.379-105.733-92.41
	C139.519,133.787,192.378,0,245.252,0C298.126,0,351.001,133.787,351.001,184.834z"/>
<path style="fill:#D770AD;" d="M338.88,141.863c27.133,45.205,7.201,101.062-44.502,124.79
	c-51.719,23.712-115.637,6.295-142.785-38.895c-27.132-45.205-51.438-185.146-4.624-206.625
	C193.783-0.328,311.732,96.674,338.88,141.863z"/>
<path style="fill:#EC87C0;" d="M151.64,141.863c-27.132,45.205-7.217,101.062,44.502,124.79
	c51.719,23.712,115.636,6.295,142.769-38.895c27.148-45.205,51.453-185.146,4.639-206.625
	C296.721-0.328,178.773,96.674,151.64,141.863z"/>
</svg>