<?xml version="1.0" encoding="iso-8859-1"?>
<!-- Uploaded to: SVG Repo, www.svgrepo.com, Generator: SVG Repo Mixer Tools -->
<svg version="1.1" id="Layer_1" xmlns="http://www.w3.org/2000/svg" xmlns:xlink="http://www.w3.org/1999/xlink" 
	 viewBox="0 0 511.838 511.838" xml:space="preserve">
<g>
	<path style="fill:#8CC153;" d="M255.016,511.837c0,0,135.553-165.918,117.371-272.065
		C367.7,212.499,193.87,476.521,255.016,511.837z"/>
	<path style="fill:#8CC153;" d="M255.016,511.837c0,0-121.088-101.875-117.511-208.561
		C138.825,264.015,316.153,476.521,255.016,511.837z"/>
</g>
<rect x="244.139" y="138.618" style="fill:#A0D468;" width="21.33" height="373.22"/>
<g>
	<path style="fill:#D770AD;" d="M360.593,34.631C337.772,11.81,232.062,8.342,249.97,145.613
		C385.539,161.811,383.398,57.437,360.593,34.631z"/>
	<path style="fill:#D770AD;" d="M295.145,276.519c31.162-8.365,87.02-98.181-40.816-151.306
		C172.525,234.508,263.982,284.859,295.145,276.519z"/>
	<path style="fill:#D770AD;" d="M118.394,98.893c-8.349,31.162,41.503,124.446,151.431,40.3
		C216.066,13.7,126.742,67.73,118.394,98.893z"/>
</g>
<g>
	<path style="fill:#EC87C0;" d="M216.699,0.892c-31.162,8.341-87.028,98.158,40.816,151.282
		C339.318,42.879,247.862-7.465,216.699,0.892z"/>
	<path style="fill:#EC87C0;" d="M393.442,178.494c8.356-31.147-41.487-124.446-151.423-40.3
		C295.785,263.687,385.102,209.671,393.442,178.494z"/>
	<path style="fill:#EC87C0;" d="M151.251,242.755c22.813,22.822,128.539,26.289,110.623-110.982
		C126.313,115.575,128.437,219.95,151.251,242.755z"/>
</g>
<path style="fill:#FFCE54;" d="M254.805,181.415c-23.602,0-42.799-19.197-42.799-42.799s19.197-42.799,42.799-42.799
	c23.595,0,42.792,19.197,42.792,42.799S278.399,181.415,254.805,181.415z"/>
<g>
	<path style="fill:#F6BB42;" d="M308.188,149.206c5.904,0,10.668-4.764,10.668-10.653s-4.764-10.668-10.668-10.668
		c-0.344,0-0.656,0.016-1,0.047c-0.438-2.171-1.031-4.312-1.719-6.373c0.312-0.141,0.594-0.297,0.906-0.469
		c5.092-2.952,6.842-9.466,3.905-14.574c-2.952-5.092-9.466-6.842-14.573-3.905c-0.297,0.188-0.609,0.375-0.891,0.578
		c-1.453-1.64-3-3.202-4.655-4.655c0.203-0.281,0.391-0.578,0.562-0.891c2.952-5.107,1.202-11.621-3.905-14.558
		c-5.092-2.953-11.621-1.203-14.559,3.889c-0.188,0.312-0.343,0.625-0.483,0.953c-2.069-0.688-4.187-1.281-6.365-1.718
		c0.039-0.344,0.055-0.688,0.055-1.047c0-5.889-4.772-10.668-10.661-10.668s-10.668,4.78-10.668,10.668
		c0,0.359,0.023,0.703,0.055,1.047c-2.171,0.437-4.295,1.031-6.365,1.718c-0.141-0.328-0.305-0.641-0.484-0.953
		c-2.944-5.092-9.466-6.842-14.566-3.905c-5.1,2.952-6.849,9.466-3.905,14.573c0.18,0.312,0.375,0.609,0.578,0.891
		c-1.648,1.453-3.21,3.015-4.663,4.655c-0.289-0.203-0.578-0.391-0.89-0.578c-5.1-2.937-11.622-1.187-14.566,3.905
		c-2.944,5.108-1.195,11.622,3.905,14.574c0.297,0.172,0.602,0.328,0.906,0.469c-0.695,2.077-1.281,4.202-1.726,6.373
		c-0.328-0.031-0.664-0.047-1-0.047c-5.889,0-10.661,4.78-10.661,10.668s4.772,10.653,10.661,10.653
		c0.328,0,0.656-0.016,0.976-0.047c0.438,2.187,1.015,4.327,1.71,6.404c-0.289,0.141-0.586,0.281-0.867,0.438
		c-5.1,2.952-6.849,9.466-3.905,14.574c2.944,5.092,9.466,6.842,14.566,3.905c0.281-0.171,0.546-0.343,0.812-0.531
		c1.46,1.671,3.022,3.233,4.686,4.702c-0.187,0.266-0.359,0.531-0.523,0.796c-2.944,5.108-1.195,11.622,3.905,14.574
		c5.1,2.937,11.622,1.188,14.566-3.905c0.156-0.266,0.297-0.547,0.422-0.828c2.093,0.703,4.225,1.296,6.42,1.734
		c-0.023,0.297-0.047,0.609-0.047,0.906c0,5.904,4.78,10.668,10.668,10.668s10.661-4.764,10.661-10.668
		c0-0.297-0.023-0.609-0.047-0.906c2.194-0.438,4.335-1.031,6.42-1.734c0.141,0.281,0.265,0.562,0.421,0.828
		c2.938,5.092,9.467,6.841,14.559,3.905c5.107-2.952,6.857-9.466,3.905-14.574c-0.156-0.265-0.328-0.531-0.5-0.796
		c1.655-1.468,3.218-3.03,4.687-4.686c0.25,0.172,0.516,0.344,0.797,0.515c5.107,2.937,11.621,1.188,14.573-3.905
		c2.937-5.108,1.187-11.622-3.905-14.574c-0.281-0.156-0.578-0.297-0.875-0.438c0.703-2.077,1.281-4.217,1.719-6.404
		C307.531,149.19,307.859,149.206,308.188,149.206z M254.805,170.746c-17.721,0-32.131-14.402-32.131-32.131
		c0-17.713,14.41-32.131,32.131-32.131c17.705,0,32.139,14.417,32.139,32.131C286.943,156.344,272.51,170.746,254.805,170.746z"/>
	<path style="fill:#F6BB42;" d="M254.672,128.743c-5.896,0-10.668,4.764-10.668,10.653s4.772,10.669,10.668,10.669
		c5.889,0,10.661-4.78,10.661-10.669C265.333,133.507,260.561,128.743,254.672,128.743z"/>
</g>
</svg>