<?xml version="1.0" encoding="iso-8859-1"?>
<!-- Uploaded to: SVG Repo, www.svgrepo.com, Generator: SVG Repo Mixer Tools -->
<svg version="1.1" id="Layer_1" xmlns="http://www.w3.org/2000/svg" xmlns:xlink="http://www.w3.org/1999/xlink" 
	 viewBox="0 0 512 512" xml:space="preserve">
<g>
	<path style="fill:#DDB200;" d="M237.06,153.187c-2.998,0-5.857-1.733-7.152-4.65L183.375,43.723
		c-1.753-3.947,0.027-8.568,3.975-10.32c3.949-1.752,8.569,0.027,10.321,3.975l46.534,104.814c1.753,3.947-0.027,8.568-3.975,10.32
		C239.199,152.97,238.121,153.187,237.06,153.187z"/>
	<path style="fill:#DDB200;" d="M273.409,153.187c-1.015,0-2.046-0.198-3.041-0.618c-3.978-1.681-5.842-6.27-4.161-10.248
		l45.221-107.034c1.681-3.978,6.268-5.844,10.248-4.161c3.978,1.681,5.842,6.27,4.161,10.248l-45.221,107.034
		C279.355,151.392,276.458,153.187,273.409,153.187z"/>
	<path style="fill:#DDB200;" d="M255.306,153.185c-4.319,0-7.821-3.501-7.821-7.821V23.349c0-4.32,3.502-7.821,7.821-7.821
		c4.319,0,7.821,3.501,7.821,7.821v122.016C263.126,149.684,259.625,153.185,255.306,153.185z"/>
</g>
<path style="fill:#328777;" d="M361.393,363.066c-67.524,38.435-87.973,112.962-93.247,139.365
	c-0.076,0.384-0.411,0.651-0.802,0.651l0,0c-0.453,0-0.821-0.367-0.821-0.821V341.903h-23.823v160.358
	c0,0.453-0.367,0.821-0.821,0.821l0,0c-0.391,0-0.725-0.267-0.802-0.651c-5.273-26.403-25.723-100.929-93.247-139.365
	c0,0-5.105,86.436,94.868,148.934h23.823v-0.036h0.004c-0.001,0.013-0.004,0.036-0.004,0.036c0.02-0.012,0.038-0.024,0.057-0.036
	h0.124l0.092-0.138C366.484,449.342,361.393,363.066,361.393,363.066z"/>
<rect x="242.705" y="341.903" style="fill:#266659;" width="23.823" height="38.76"/>
<path style="fill:#FF3F62;" d="M255.235,145.364h-53.209c-55.985,0-101.371,45.386-101.371,101.371s120.251,101.371,154.58,101.371
	s154.58-45.385,154.58-101.371s-45.386-101.371-101.371-101.371L255.235,145.364L255.235,145.364z"/>
<circle style="fill:#FFDA44;" cx="255.301" cy="14.983" r="14.983"/>
<path style="fill:#C70024;" d="M356.605,246.735c0,55.985-67.042,101.371-101.371,101.371c-31.906,0-101.371-45.385-101.371-101.371
	s45.386-101.371,101.371-101.371S356.605,190.75,356.605,246.735z"/>
<g>
	<path style="fill:#610012;" d="M255.824,350.262c-4.319,0-7.821-3.348-7.821-7.481V236.419c0-4.131,3.502-7.481,7.821-7.481
		c4.319,0,7.821,3.348,7.821,7.481v106.363C263.645,346.914,260.143,350.262,255.824,350.262z"/>
	<path style="fill:#610012;" d="M255.231,350.938c-3.354,0-6.455-2.174-7.48-5.549c-1.255-4.134,1.077-8.501,5.21-9.756
		c40.54-12.318,46.909-83.898,46.968-84.62c0.356-4.301,4.133-7.499,8.433-7.153c4.302,0.352,7.507,4.122,7.158,8.425
		c-0.274,3.378-7.297,82.906-58.011,98.314C256.751,350.827,255.984,350.938,255.231,350.938z"/>
	<path style="fill:#610012;" d="M255.238,350.938c-0.753,0-1.519-0.109-2.276-0.34c-50.715-15.408-57.738-94.937-58.012-98.314
		c-0.349-4.305,2.857-8.078,7.163-8.428c4.312-0.354,8.077,2.856,8.428,7.161c0.077,0.919,6.486,72.316,46.968,84.617
		c4.132,1.255,6.465,5.624,5.21,9.756C261.692,348.764,258.591,350.938,255.238,350.938z"/>
	<path style="opacity:0.28;fill:#610012;enable-background:new    ;" d="M357.473,157.166c12.969,17.033,20.674,38.289,20.674,61.35
		c0,50.948-99.575,93.111-143.367,100.287c-2.757,1.385-5.667,2.563-8.737,3.508c-0.023,0.007-0.047,0.016-0.07,0.023
		c-0.045,0.014-0.088,0.029-0.132,0.044c-0.19,0.057-0.38,0.086-0.57,0.128c-0.174,0.039-0.343,0.09-0.52,0.117
		c-0.373,0.058-0.745,0.087-1.115,0.09c-0.022,0-0.044,0.005-0.066,0.005c-0.001,0-0.002,0-0.003,0s-0.002,0-0.003,0
		c-0.022,0-0.044-0.005-0.066-0.005c-0.369-0.003-0.741-0.032-1.115-0.09c-0.176-0.027-0.346-0.078-0.52-0.117
		c-0.19-0.043-0.381-0.071-0.57-0.128c-0.045-0.014-0.088-0.029-0.132-0.044c-0.023-0.007-0.047-0.016-0.07-0.023
		c-3.07-0.946-5.98-2.124-8.737-3.508c-23.931-3.922-64.517-18.291-96.411-38.832c28.851,35.152,95.825,61.514,129.61,67.05
		c2.757,1.385,5.667,2.563,8.737,3.508c0.023,0.007,0.047,0.016,0.07,0.023c0.045,0.014,0.088,0.029,0.132,0.044
		c0.19,0.057,0.38,0.086,0.57,0.128c0.174,0.039,0.343,0.09,0.52,0.117c0.373,0.058,0.745,0.087,1.115,0.09
		c0.022,0,0.044,0.005,0.066,0.005c0.001,0,0.002,0,0.003,0c0.001,0,0.002,0,0.003,0c0.022,0,0.044-0.005,0.066-0.005
		c0.369-0.003,0.741-0.032,1.115-0.09c0.176-0.027,0.346-0.078,0.52-0.117c0.19-0.043,0.381-0.071,0.57-0.128
		c0.045-0.014,0.088-0.029,0.132-0.044c0.023-0.007,0.047-0.016,0.07-0.023c3.07-0.946,5.98-2.124,8.737-3.508
		c43.792-7.176,143.367-49.34,143.367-100.287C411.346,207.914,389.519,174.196,357.473,157.166z"/>
</g>
<g>
	<circle style="fill:#FFDA44;" cx="190.034" cy="40.55" r="14.983"/>
	<circle style="fill:#FFDA44;" cx="318.629" cy="38.331" r="14.983"/>
</g>
</svg>