<?xml version="1.0" encoding="iso-8859-1"?>
<!-- Uploaded to: SVG Repo, www.svgrepo.com, Generator: SVG Repo Mixer Tools -->
<svg height="800px" width="800px" version="1.1" id="Layer_1" xmlns="http://www.w3.org/2000/svg" xmlns:xlink="http://www.w3.org/1999/xlink" 
	 viewBox="0 0 512 512" xml:space="preserve">
<path style="fill:#DDDD47;" d="M256,512c-9.23,0-16.719-7.484-16.719-16.719V197.118c0-9.236,7.489-16.719,16.719-16.719
	c9.23,0,16.719,7.484,16.719,16.719v298.163C272.719,504.516,265.23,512,256,512z"/>
<path style="fill:#C7D100;" d="M272.719,495.281V197.118c0-9.236-7.489-16.719-16.719-16.719V512
	C265.23,512,272.719,504.516,272.719,495.281z"/>
<path style="fill:#7CCC92;" d="M356.317,300.169h-16.719c-34.888,0-65.54,18.057-83.597,45.142c0,0-0.446-0.669-0.67-0.892
	c-18.502-27.308-49.265-44.251-82.927-44.251h-16.719c-9.253,0-16.719,7.579-16.719,16.831v16.831
	c0,55.731,45.031,100.874,100.317,100.874h33.439c55.286,0,100.317-45.142,100.317-100.874V317
	C373.036,307.749,365.569,300.169,356.317,300.169z"/>
<path style="fill:#34B772;" d="M373.036,317v16.831c0,55.731-45.031,100.874-100.317,100.874H256v-89.393
	c18.057-27.085,48.709-45.142,83.597-45.142h16.719C365.569,300.169,373.036,307.749,373.036,317z"/>
<path style="fill:#79695A;" d="M222.561,100.317c-9.236,0-16.719-7.484-16.719-16.719V16.719C205.842,7.484,213.325,0,222.561,0
	c9.236,0,16.719,7.484,16.719,16.719v66.878C239.281,92.833,231.797,100.317,222.561,100.317z"/>
<path style="fill:#6C5B52;" d="M289.439,100.317c-9.236,0-16.719-7.484-16.719-16.719V16.719C272.719,7.484,280.203,0,289.439,0
	s16.719,7.484,16.719,16.719v66.878C306.158,92.833,298.675,100.317,289.439,100.317z"/>
<path style="fill:#7C84E8;" d="M289.439,267.511h-66.878c-27.658,0-50.158-22.5-50.158-50.158v-66.878
	c0-9.236,7.484-16.719,16.719-16.719h133.755c9.236,0,16.719,7.484,16.719,16.719v66.878
	C339.597,245.011,317.097,267.511,289.439,267.511z"/>
<path style="fill:#515BE0;" d="M322.878,133.755H256v133.755h33.439c27.658,0,50.158-22.5,50.158-50.158v-66.878
	C339.597,141.239,332.114,133.755,322.878,133.755z"/>
<path style="fill:#9DF1FD;" d="M322.878,167.194H189.122c-27.658,0-50.158-22.5-50.158-50.158s22.5-50.158,50.158-50.158h133.755
	c27.658,0,50.158,22.5,50.158,50.158S350.536,167.194,322.878,167.194z"/>
<path style="fill:#87D7E4;" d="M322.878,66.878H256v100.317h66.878c27.658,0,50.158-22.5,50.158-50.158
	S350.536,66.878,322.878,66.878z"/>
</svg>