<?xml version="1.0" encoding="iso-8859-1"?>
<!-- Uploaded to: SVG Repo, www.svgrepo.com, Generator: SVG Repo Mixer Tools -->
<svg version="1.1" id="Layer_1" xmlns="http://www.w3.org/2000/svg" xmlns:xlink="http://www.w3.org/1999/xlink" 
	 viewBox="0 0 512 512" xml:space="preserve">
<path style="fill:#AF2E08;" d="M255.999,18.265C276.081,6.649,299.397,0,324.267,0v136.533"/>
<path style="fill:#4E894D;" d="M378.88,341.333c0,45.28-36.64,81.92-81.92,81.92h-27.307v-27.307c0-45.28,36.64-81.92,81.92-81.92
	h27.307V341.333z"/>
<path style="fill:#6DC180;" d="M215.04,368.64c-45.28,0-81.92-36.64-81.92-81.92v-27.307h27.307c45.28,0,81.92,36.64,81.92,81.92
	v27.307H215.04z"/>
<rect x="235.52" y="191.147" style="fill:#5CA15D;" width="40.96" height="320.853"/>
<path style="fill:#E17858;" d="M187.733,0v136.533c0,37.702,30.564,68.267,68.267,68.267s68.267-30.564,68.267-68.267
	C324.267,61.127,263.139,0,187.733,0z"/>
<path style="fill:#FF4F19;" d="M256,18.271V204.8c37.702,0,68.267-30.564,68.267-68.267C324.267,85.997,296.808,41.878,256,18.271z"
	/>
</svg>