<?xml version="1.0" encoding="iso-8859-1"?>
<!-- Uploaded to: SVG Repo, www.svgrepo.com, Generator: SVG Repo Mixer Tools -->
<svg height="800px" width="800px" version="1.1" id="Layer_1" xmlns="http://www.w3.org/2000/svg" xmlns:xlink="http://www.w3.org/1999/xlink" 
	 viewBox="0 0 512 512" xml:space="preserve">
<path style="fill:#90BC42;" d="M292.555,413.793v0.013c20.728,20.726,51.484,23.598,84.469-9.387
	c32.985-32.998,34.99-110.072,34.99-110.072s-77.088,1.993-110.085,34.977C268.957,362.296,271.815,393.052,292.555,413.793z"/>
<path style="fill:#80A334;" d="M292.555,413.806c20.728,20.726,51.484,23.598,84.469-9.387
	c32.985-32.998,34.99-110.072,34.99-110.072L292.555,413.806z"/>
<path style="fill:#90BC42;" d="M219.958,413.793v0.013c-20.728,20.726-51.484,23.598-84.469-9.387
	c-32.984-32.998-34.99-110.072-34.99-110.072s77.088,1.993,110.085,34.977C243.555,362.296,240.697,393.052,219.958,413.793z"/>
<path style="fill:#80A334;" d="M219.958,413.806c-20.728,20.726-51.484,23.598-84.469-9.387
	c-32.984-32.998-34.99-110.072-34.99-110.072L219.958,413.806z"/>
<path style="fill:#B27214;" d="M362.682,343.665c-2.325-2.326-6.099-2.326-8.424,0l-88.947,88.947V306.69l88.373-91.527
	l-12.857-12.414l-75.516,78.211V144.082c0-4.935-4-8.936-8.936-8.936c-4.936,0-8.936,4.001-8.936,8.936v137.635l-76.267-78.969
	l-12.855,12.416l89.121,92.279v125.412l-33.943-33.935c-0.073-0.08-0.145-0.157-0.222-0.232l-55.021-55.021
	c-2.325-2.326-6.099-2.326-8.424,0c-2.327,2.327-2.327,6.099,0,8.425l54.799,54.801c0.071,0.079,0.145,0.157,0.222,0.234
	l42.588,42.578v53.362c0,4.935,4,8.936,8.936,8.936c4.936,0,8.936-4.001,8.936-8.936v-53.602l97.372-97.372
	C365.009,349.764,365.009,345.992,362.682,343.665z"/>
<path style="fill:#F95428;" d="M301.055,38.043c11.819,11.2,19.194,27.046,19.194,44.62c0,34.743-28.833,62.753-63.873,61.419
	c-31.156-1.191-56.844-26.081-58.917-57.201c-1.311-19.504,6.493-37.209,19.552-49.314l47.733-14.079l35.823,14.079
	C300.721,37.733,300.888,37.888,301.055,38.043z"/>
<path style="fill:#E54728;" d="M247.536,124.398c-21.196-22.876-21.756-58.643-1.215-82.114c5.88-6.725,12.85-11.819,20.38-15.324
	l-5.64-5.705c-17.8-0.679-35.839,6.327-48.694,21.029c-20.541,23.471-19.981,59.239,1.215,82.114
	c16.432,17.731,40.632,23.507,62.129,17.343C265.291,138.761,255.5,132.99,247.536,124.398z"/>
<path style="fill:#F95428;" d="M172.831,220.274c-12.463,13.451-29.405,20.028-46.24,19.718
	c-15.346-0.274-30.632-6.279-42.344-17.991c-12.427-12.415-18.42-28.833-17.979-45.108l59.096-59.763
	c0.5-0.024,1.013-0.036,1.513-0.036c0.56-0.012,1.108-0.012,1.668,0c3.682,0.048,7.351,0.417,10.973,1.132
	c12.868,2.502,25.104,9.15,34.54,19.933C194.587,161.632,194.039,197.399,172.831,220.274z"/>
<path style="fill:#E54728;" d="M143.045,237.622c-5.362,1.537-10.914,2.335-16.454,2.371c-15.346-0.274-30.632-6.279-42.344-17.991
	c-12.427-12.415-18.42-28.833-17.979-45.108l18.17-37.837l40.926-21.926c0.5-0.024,1.013-0.036,1.513-0.036s1.013,0.012,1.513,0.036
	l0.155-0.036c3.682,0.048,7.351,0.417,10.973,1.132c-9.52,6.184-21.732,15.215-25.866,19.933
	c-20.541,23.471-19.981,59.239,1.215,82.114C122.838,228.865,132.62,234.631,143.045,237.622z"/>
<g>
	<path style="fill:#E09B2D;" d="M300.566,37.566H217.01c10.02-9.269,15.632-22.363,15.632-36.017V0h52.281v1.537
		C284.922,15.203,290.76,28.059,300.566,37.566z"/>
	<path style="fill:#E09B2D;" d="M125.364,117.131l-59.096,59.763c0.381-13.892-4.575-27.403-14.405-37.221l-1.096-1.096
		l36.971-36.971l1.096,1.096C98.485,112.353,111.71,117.655,125.364,117.131z"/>
</g>
<path style="fill:#F95428;" d="M445.732,176.894c0.441,16.275-5.552,32.693-17.967,45.108
	c-24.568,24.568-64.755,23.996-88.596-1.728c-21.196-22.876-21.756-58.643-1.215-82.114c12.856-14.702,30.894-21.708,48.694-21.029
	l44.5,17.955L445.732,176.894z"/>
<path style="fill:#E54728;" d="M373.124,220.274c-21.196-22.876-21.756-58.643-1.215-82.114c5.88-6.725,12.85-11.819,20.38-15.324
	l-5.64-5.705c-17.8-0.679-35.839,6.327-48.694,21.029c-20.541,23.471-19.981,59.239,1.215,82.114
	c16.432,17.731,40.632,23.507,62.129,17.343C390.878,234.637,381.086,228.867,373.124,220.274z"/>
<path style="fill:#E09B2D;" d="M461.232,138.577l-1.084,1.096c-9.829,9.818-14.786,23.329-14.417,37.221l-59.084-59.763
	c13.642,0.524,26.867-4.778,36.518-14.428l1.096-1.096L461.232,138.577z"/>
</svg>