<?xml version="1.0" encoding="iso-8859-1"?>
<!-- Uploaded to: SVG Repo, www.svgrepo.com, Generator: SVG Repo Mixer Tools -->
<svg version="1.1" id="Layer_1" xmlns="http://www.w3.org/2000/svg" xmlns:xlink="http://www.w3.org/1999/xlink" 
	 viewBox="0 0 512 512" xml:space="preserve">
<path style="fill:#A7AFF3;" d="M383.143,277.389l-3.594,23.259c-0.146,0.919-3.594,22.904-12.507,48.003
	c-12.664,35.61-29.706,59.382-50.678,70.677c-9.101,4.89-18.871,7.346-29.017,7.346c-10.125,0-20.626-2.435-31.232-7.304
	L256,419.318l-0.115,0.052c-10.606,4.869-21.107,7.304-31.232,7.304c-10.156,0-19.916-2.456-29.017-7.346
	c-20.971-11.295-38.024-35.067-50.678-70.677c-8.913-25.098-12.372-47.083-12.507-48.003l-3.594-23.259l22.852,5.653
	c50.698,12.56,85.629,30.741,104.291,54.188c18.662-23.448,53.593-41.629,104.291-54.188L383.143,277.389z"/>
<path style="fill:#7885EB;" d="M383.143,277.389l-3.594,23.259c-0.146,0.919-3.594,22.904-12.507,48.003
	c-12.664,35.61-29.706,59.382-50.678,70.677c-9.101,4.89-18.871,7.346-29.017,7.346c-10.125,0-20.626-2.435-31.232-7.304
	L256,419.318l-0.115,0.052c-10.606,4.869-21.107,7.304-31.232,7.304c-10.156,0-19.916-2.456-29.017-7.346
	c-20.971-11.295-38.024-35.067-50.678-70.677c-8.913-25.098-12.372-47.083-12.507-48.003l-3.594-23.259L256,409.6L383.143,277.389z"
	/>
<rect x="240.327" y="240.379" style="fill:#867B6E;" width="31.347" height="271.621"/>
<rect x="256" y="240.379" style="fill:#766957;" width="15.673" height="271.621"/>
<path style="fill:#FF738E;" d="M356.394,128.021c0,33.395-9.927,64.961-27.972,88.889c-19.038,25.234-44.753,39.142-72.422,39.142
	c-10.47,0-20.658-1.996-30.302-5.831c-15.862-6.311-30.281-17.627-42.12-33.311c-18.045-23.928-27.972-55.495-27.972-88.889
	s9.927-64.951,27.972-88.879C202.616,13.897,228.331,0,256,0c0.7,0,1.4,0.01,2.1,0.031c26.864,0.679,51.764,14.503,70.322,39.111
	C346.467,63.07,356.394,94.626,356.394,128.021z"/>
<path style="fill:#FF3C62;" d="M356.394,128.021c0,33.395-9.927,64.961-27.972,88.889c-19.038,25.234-44.753,39.142-72.422,39.142
	c-10.47,0-20.658-1.996-30.302-5.831c54.774-43.175,49.988-118.7,49.988-118.7L258.1,0.031
	c26.864,0.679,51.764,14.503,70.322,39.111C346.467,63.07,356.394,94.626,356.394,128.021z"/>
<path style="fill:#DFCCBE;" d="M317.503,51.573c0,13.229-5.883,25.79-16.583,35.355c-11.515,10.305-27.888,16.218-44.92,16.218
	s-33.405-5.913-44.92-16.218c-10.7-9.565-16.593-22.125-16.593-35.355c0-13.237,5.893-25.79,16.593-35.355
	C222.595,5.914,238.968,0,256,0s33.405,5.914,44.92,16.218C311.62,25.783,317.503,38.336,317.503,51.573z"/>
<path style="fill:#BD9B7B;" d="M317.503,51.573c0,13.229-5.883,25.79-16.583,35.355c-11.515,10.305-27.888,16.218-44.92,16.218V0
	c17.032,0,33.405,5.914,44.92,16.218C311.62,25.783,317.503,38.336,317.503,51.573z"/>
</svg>