<?xml version="1.0" encoding="iso-8859-1"?>
<!-- Uploaded to: SVG Repo, www.svgrepo.com, Generator: SVG Repo Mixer Tools -->
<svg height="800px" width="800px" version="1.1" id="Layer_1" xmlns="http://www.w3.org/2000/svg" xmlns:xlink="http://www.w3.org/1999/xlink" 
	 viewBox="0 0 512 512" xml:space="preserve">
<g>
	<path style="fill:#A7B65F;" d="M272.605,349.267h-33.211c-4.585,0-8.303-3.717-8.303-8.303s3.717-8.303,8.303-8.303h33.211
		c4.585,0,8.303,3.717,8.303,8.303S277.191,349.267,272.605,349.267z"/>
	<path style="fill:#A7B65F;" d="M272.605,316.057h-33.211c-4.585,0-8.303-3.717-8.303-8.303s3.717-8.303,8.303-8.303h33.211
		c4.585,0,8.303,3.717,8.303,8.303S277.191,316.057,272.605,316.057z"/>
</g>
<path style="fill:#566916;" d="M247.697,249.082v254.616c0,4.585,3.717,8.303,8.303,8.303c4.585,0,8.303-3.717,8.303-8.303V249.082
	H247.697z"/>
<polygon style="fill:#F89890;" points="281.541,0 304.002,0 326.984,66.421 281.541,132.843 "/>
<polygon style="fill:#FFC5BF;" points="208.001,0 281.541,0 293.773,66.421 239.396,110.702 185.019,66.421 "/>
<path style="fill:#EA3F31;" d="M349.224,66.421H318.15l-62.148,204.8c55.019,0,99.632-44.602,99.632-99.632
	C355.634,170.095,349.224,66.421,349.224,66.421z"/>
<path style="fill:#F89890;" d="M162.779,66.421c0,0-6.41,103.673-6.41,105.167c0,13.561,2.712,26.491,7.616,38.281v-0.642
	L306.792,66.421H162.779z"/>
<path style="fill:#F16C60;" d="M318.15,66.421c0,0,4.273,103.673,4.273,105.167c0,55.03-29.735,99.632-66.421,99.632
	c-41.469,0-77.016-25.329-92.016-61.351v-0.642c0-78.931,63.875-142.806,142.806-142.806H318.15z"/>
<path style="fill:#C4CE94;" d="M319.287,324.412c28.403-28.402,70.521-36.431,111.547-25.439l-41.203,97.942l-95.785,39.044
	C282.853,394.932,290.884,352.814,319.287,324.412z"/>
<path style="fill:#8A9D29;" d="M430.836,298.975l-52.842,84.145l-84.153,52.834c41.025,10.998,83.155,2.967,111.555-25.433
	C433.795,382.123,441.819,340,430.836,298.975z"/>
<path style="fill:#A7B65F;" d="M430.836,298.975c-0.838,29.206-16.611,63.578-45.01,91.977c-28.4,28.4-62.779,44.18-91.985,45.003
	L430.836,298.975z"/>
<path style="fill:#C4CE94;" d="M192.713,324.412c-28.403-28.402-70.521-36.431-111.547-25.439l41.203,97.942l95.785,39.044
	C229.146,394.932,221.116,352.814,192.713,324.412z"/>
<path style="fill:#8A9D29;" d="M81.164,298.975l52.842,84.145l84.153,52.834c-41.025,10.998-83.155,2.967-111.555-25.433
	C78.205,382.123,70.181,340,81.164,298.975z"/>
<path style="fill:#A7B65F;" d="M81.164,298.975c0.838,29.206,16.611,63.578,45.011,91.977c28.4,28.4,62.779,44.18,91.985,45.003
	L81.164,298.975z"/>
<polygon style="fill:#566916;" points="291.648,426.414 255.999,462.065 220.352,426.414 208.609,438.154 250.129,479.678 
	261.871,479.678 303.39,438.154 "/>
</svg>