<?xml version="1.0" encoding="iso-8859-1"?>
<!-- Uploaded to: SVG Repo, www.svgrepo.com, Generator: SVG Repo Mixer Tools -->
<svg height="800px" width="800px" version="1.1" id="Layer_1" xmlns="http://www.w3.org/2000/svg" xmlns:xlink="http://www.w3.org/1999/xlink" 
	 viewBox="0 0 512 512" xml:space="preserve">
<path style="fill:#BBD7D8;" d="M272.968,373.709c0.499,15.975-5.713,31.634-17.047,42.968l-0.046,0.046
	c-10.963,10.945-26.384,17.269-41.784,17.269c-1.017,0-2.025-0.027-3.041-0.084c-15.041-0.822-28.334-7.516-37.413-18.831
	c-6.933-8.653-22.306-30.331-34.029-51.705c-13.136-23.952-25.968-53.683-8.404-71.32l0.037-0.037
	c17.462-17.481,47.849-4.123,75.278,11.251c22.741,12.757,44.309,28.019,48.515,31.727
	C266.128,344.793,272.497,358.54,272.968,373.709z"/>
<path style="fill:#B1CCCD;" d="M272.968,373.709c0.499,15.975-5.713,31.634-17.047,42.968l-0.046,0.046L131.206,292.053l0.037-0.037
	c17.462-17.481,47.849-4.123,75.278,11.251c22.741,12.757,44.309,28.019,48.515,31.727
	C266.128,344.793,272.497,358.54,272.968,373.709z"/>
<path style="fill:#BBD7D8;" d="M300.952,435.216c-1.017,0.055-2.025,0.084-3.041,0.084c-15.401,0-30.83-6.333-41.794-17.278
	l-0.037-0.037c-11.333-11.333-17.546-26.993-17.047-42.968c0.472-15.171,6.841-28.916,17.934-38.716
	c4.197-3.717,25.764-18.979,48.515-31.727c27.428-15.373,57.814-28.732,75.278-11.251l0.027,0.027
	c17.573,17.63,4.743,47.377-8.395,71.329c-11.722,21.373-27.095,43.051-34.029,51.703
	C329.286,427.7,315.993,434.394,300.952,435.216z"/>
<path style="fill:#B1CCCD;" d="M300.952,435.216c-1.017,0.055-2.025,0.084-3.041,0.084c-15.401,0-30.83-6.333-41.794-17.278
	l124.67-124.669c17.573,17.63,4.743,47.377-8.395,71.329c-11.722,21.373-27.095,43.051-34.029,51.703
	C329.286,427.7,315.993,434.394,300.952,435.216z"/>
<path style="fill:#477777;" d="M276.921,225.349V492.39c0,10.825-8.785,19.61-19.61,19.61c-0.405,0-0.797-0.013-1.19-0.039
	c-10.289-0.614-18.421-9.151-18.421-19.571V225.349c0-10.42,8.132-18.957,18.421-19.571c0.392-0.026,0.784-0.039,1.19-0.039
	C268.136,205.739,276.921,214.524,276.921,225.349z"/>
<path style="fill:#437171;" d="M276.921,225.349V492.39c0,10.825-8.785,19.61-19.61,19.61c-0.405,0-0.797-0.013-1.19-0.039V205.778
	c0.392-0.026,0.784-0.039,1.19-0.039C268.136,205.739,276.921,214.524,276.921,225.349z"/>
<path style="fill:#FFDCE1;" d="M354.042,122.473c0,9.936-0.928,19.702-2.745,29.141c-3.974,20.695-12.185,39.77-24.055,55.445
	c-18.512,24.448-43.64,37.9-70.728,37.9h-0.392c-26.958-0.131-51.928-13.57-70.349-37.9c-17.283-22.813-26.801-52.856-26.801-84.586
	c0-18.787,3.334-36.972,9.648-53.432c4.354-11.335,10.106-21.846,17.153-31.141c0.784-1.046,1.582-2.066,2.406-3.059
	C206.337,12.446,230.314,0.131,256.121,0h0.392c27.088,0,52.216,13.453,70.728,37.9c14.917,19.702,24.055,44.777,26.265,71.682
	C353.859,113.832,354.042,118.146,354.042,122.473z"/>
<path style="fill:#F4CED2;" d="M354.042,122.473c0,31.73-9.518,61.773-26.801,84.586c-18.512,24.448-43.64,37.9-70.728,37.9h-0.392
	V0h0.392c27.088,0,52.216,13.453,70.728,37.9C344.525,60.714,354.042,90.757,354.042,122.473z"/>
<path style="fill:#F5888E;" d="M354.042,122.473c0,9.936-0.928,19.702-2.745,29.141l-95.176-43.025L168.62,69.041
	c4.353-11.335,10.106-21.846,17.152-31.141c0.784-1.046,1.582-2.066,2.406-3.059l67.943,30.71l97.385,44.032
	C353.859,113.832,354.042,118.146,354.042,122.473z"/>
<path style="fill:#F76976;" d="M354.042,122.473c0,9.936-0.928,19.702-2.745,29.141l-95.176-43.025V65.551l97.385,44.032
	C353.859,113.832,354.042,118.146,354.042,122.473z"/>
</svg>