<?xml version="1.0" encoding="iso-8859-1"?>
<!-- Uploaded to: SVG Repo, www.svgrepo.com, Generator: SVG Repo Mixer Tools -->
<svg version="1.1" id="Layer_1" xmlns="http://www.w3.org/2000/svg" xmlns:xlink="http://www.w3.org/1999/xlink" 
	 viewBox="0 0 512 512" xml:space="preserve">
<path style="fill:#BDEA9C;" d="M274.004,490.484c-12.236-100.503-58.279-155.133-94.748-183.266
	c-40.111-30.939-77.672-37.483-79.252-37.747l-26.209-4.37l22.419,106.423c9.129,43.337,30.107,81.229,59.071,106.694
	c25.146,22.11,54.882,33.778,85.287,33.778c6.045,0,12.118-0.462,18.185-1.393l17.373-2.67L274.004,490.484z"/>
<path style="fill:#A2DBB1;" d="M276.129,507.932l-2.125-17.45c-12.236-100.503-58.279-155.133-94.748-183.266
	c-40.111-30.939-77.672-37.483-79.252-37.747l-26.209-4.37"/>
<path style="fill:#BDEA9C;" d="M411.995,269.471c-1.579,0.264-39.141,6.808-79.252,37.747
	c-36.471,28.133-82.513,82.762-94.748,183.266l-2.125,17.45l17.373,2.67c6.069,0.932,12.139,1.393,18.185,1.393
	c30.402,0,60.142-11.67,85.287-33.778c28.963-25.466,49.941-63.357,59.07-106.694l22.419-106.423L411.995,269.471z"/>
<path style="fill:#A2DBB1;" d="M256.402,483.292v27.736c5.014,0.636,10.029,0.97,15.026,0.97c30.402,0,60.142-11.67,85.287-33.778
	c28.963-25.466,49.941-63.357,59.07-106.694l22.419-106.423L256.402,483.292z"/>
<rect x="237.868" y="239.936" style="fill:#6DA544;" width="36.275" height="272.064"/>
<path style="fill:#EE5DA2;" d="M273.449,84.479c-8.71-7.071-39.45-37.505-64.913-63.658L195.714,7.649l-12.999,12.999
	c-30.004,30.004-65.771,77.562-65.771,133.743c0,34.11,11.149,62.501,32.239,82.108c19.437,18.07,45.921,27.621,76.587,27.621
	h58.443V87.236L273.449,84.479z"/>
<path style="fill:#EA348B;" d="M329.283,20.648L316.284,7.649l-12.822,13.173C278,46.975,247.259,77.409,238.55,84.48l-10.764,2.756
	V264.12h58.443c30.666,0,57.149-9.55,76.587-27.621c21.09-19.607,32.239-47.998,32.239-82.108
	C395.054,98.209,359.287,50.651,329.283,20.648z"/>
<path style="fill:#F285B9;" d="M296.323,12.276L285.455,0l-29.455,21.202L226.543,0l-10.868,12.276
	c-29.877,33.748-46.333,83.288-46.333,139.49c0,28.969,8.359,56.416,23.538,77.289c16.445,22.61,38.86,35.064,63.119,35.064
	s46.675-12.453,63.12-35.064c15.179-20.873,23.538-48.32,23.538-77.289C342.657,95.562,326.202,46.025,296.323,12.276z"/>
<path style="fill:#EE5DA2;" d="M255.999,264.12c24.258,0,46.675-12.453,63.12-35.064c15.179-20.873,23.538-48.32,23.538-77.289
	c0-56.204-16.454-105.742-46.333-139.49L285.455,0l-29.455,21.202"/>
</svg>