<?xml version="1.0" encoding="iso-8859-1"?>
<!-- Uploaded to: SVG Repo, www.svgrepo.com, Generator: SVG Repo Mixer Tools -->
<svg height="800px" width="800px" version="1.1" id="Layer_1" xmlns="http://www.w3.org/2000/svg" xmlns:xlink="http://www.w3.org/1999/xlink" 
	 viewBox="0 0 512 512" xml:space="preserve">
<g>
	<path style="fill:#9DE687;" d="M133.492,235.002c-6.922,25.471,1.884,56.311,25.048,78.729
		c23.163,22.418,54.275,30.208,79.507,22.456c6.922-25.471-1.884-56.311-25.048-78.729
		C189.835,235.041,158.723,227.25,133.492,235.002z"/>
	<path style="fill:#9DE687;" d="M378.508,235.002c6.922,25.471-1.884,56.311-25.048,78.729
		c-23.163,22.418-54.275,30.208-79.507,22.456c-6.922-25.471,1.884-56.311,25.048-78.729
		C322.165,235.041,353.277,227.25,378.508,235.002z"/>
</g>
<path style="fill:#8CCC78;" d="M237.263,512V180.379c0-10.348,8.388-18.736,18.736-18.736c10.349,0,18.737,8.388,18.737,18.736V512
	L237.263,512L237.263,512z"/>
<circle style="fill:#CC809A;" cx="256.002" cy="24.982" r="24.982"/>
<path style="fill:#D988A5;" d="M208.265,15.569c40.161,0,72.718,32.557,72.718,72.718v67.11l0,0
	c-40.161,0-72.718-32.557-72.718-72.718L208.265,15.569L208.265,15.569z"/>
<path style="fill:#E690AF;" d="M303.735,15.569c-40.161,0-72.718,32.557-72.718,72.718v67.11l0,0
	c40.161,0,72.718-32.557,72.718-72.718V15.569L303.735,15.569z"/>
<path style="opacity:0.1;enable-background:new    ;" d="M256.001,212.29c6.394,0,12.656-0.579,18.737-1.684v-30.227
	c0-10.348-8.388-18.737-18.737-18.737c-10.348,0-18.737,8.389-18.737,18.737v30.227C243.345,211.71,249.606,212.29,256.001,212.29z"
	/>
<path style="fill:#F298B8;" d="M255.999,113.268c0-40.161-32.557-72.718-72.718-72.718l0,0v67.11
	c0,40.161,32.557,72.718,72.718,72.718l0,0l32.28-30.558v-36.552C288.28,113.268,255.999,113.268,255.999,113.268z"/>
<path style="fill:#FFA0C1;" d="M328.717,40.551c-40.161,0-72.718,32.557-72.718,72.718v67.11l0,0
	c40.161,0,72.718-32.557,72.718-72.718V40.551L328.717,40.551z"/>
</svg>