<?xml version="1.0" encoding="iso-8859-1"?>
<!-- Uploaded to: SVG Repo, www.svgrepo.com, Generator: SVG Repo Mixer Tools -->
<svg version="1.1" id="Layer_1" xmlns="http://www.w3.org/2000/svg" xmlns:xlink="http://www.w3.org/1999/xlink" 
	 viewBox="0 0 512 512" xml:space="preserve">
<polygon style="fill:#CFDCE5;" points="350.545,311.174 351.612,452.174 256.006,512 160.388,452.174 161.455,311.174 
	230.756,304.589 281.232,304.589 "/>
<rect x="230.756" y="117.495" style="fill:#FF6F52;" width="50.476" height="155.444"/>
<rect x="230.756" y="128.967" style="fill:#E25749;" width="17.219" height="132.5"/>
<path style="fill:#DCE8EF;" d="M281.232,304.589v44.04c0,21.716-9.166,42.434-25.238,57.05c-8.03-7.308-14.34-16.141-18.642-25.858
	c-4.302-9.728-6.596-20.328-6.596-31.192v-44.04v-31.651h50.476V304.589z"/>
<path style="fill:#CFDCE5;" d="M349.731,49.547c0.184,12.711-7.239,24.297-18.86,29.437l-49.639,21.923v26.007h-50.476v-26.007
	l-49.627-21.923c-11.632-5.139-19.055-16.726-18.871-29.437L162.992,0h186.005L349.731,49.547z M318.149,50.063l-0.275-18.481
	H194.115l-0.275,18.481l62.166,27.464L318.149,50.063z"/>
<g>
	<path style="fill:#FCD577;" d="M281.232,281.542h-50.476c-4.752,0-8.604-3.852-8.604-8.604c0-4.752,3.852-8.604,8.604-8.604h50.476
		c4.753,0,8.604,3.852,8.604,8.604C289.836,277.69,285.985,281.542,281.232,281.542z"/>
	<path style="fill:#FCD577;" d="M281.232,135.854h-50.476c-4.752,0-8.604-3.852-8.604-8.604s3.852-8.604,8.604-8.604h50.476
		c4.753,0,8.604,3.852,8.604,8.604S285.985,135.854,281.232,135.854z"/>
</g>
<g>
	<path style="fill:#EAC36E;" d="M239.36,127.25c0-4.752,3.852-8.604,8.604-8.604h-17.208c-4.752,0-8.604,3.852-8.604,8.604
		s3.852,8.604,8.604,8.604h17.208C243.212,135.854,239.36,132.002,239.36,127.25z"/>
	<path style="fill:#EAC36E;" d="M239.36,272.938c0-4.752,3.852-8.604,8.604-8.604h-17.208c-4.752,0-8.604,3.852-8.604,8.604
		c0,4.752,3.852,8.604,8.604,8.604h17.208C243.212,281.542,239.36,277.69,239.36,272.938z"/>
</g>
</svg>