<?xml version="1.0" encoding="iso-8859-1"?>
<!-- Uploaded to: SVG Repo, www.svgrepo.com, Generator: SVG Repo Mixer Tools -->
<svg height="800px" width="800px" version="1.1" id="Layer_1" xmlns="http://www.w3.org/2000/svg" xmlns:xlink="http://www.w3.org/1999/xlink" 
	 viewBox="0 0 512.001 512.001" xml:space="preserve">
<path style="fill:#BAC6CC;" d="M316.786,272.605c0,0,90.58-102.332,39.097-192.453c0,0-80.455,28.352-101.809,106.301"/>
<path style="fill:#CFDCE5;" d="M355.87,80.168c-0.412,1.515-26.839,97.083-84.178,130.489l-17.618-24.21
	C275.255,109.105,354.634,80.606,355.87,80.168z"/>
<path style="fill:#FF6F52;" d="M322.845,266.547l150.99,156.349c18.267,18.915,18.853,48.717,1.344,68.336l0,0
	c-19.447,21.79-53.314,22.457-73.604,1.448L199.482,283.416"/>
<path style="fill:#E25749;" d="M437.927,492.678L235.835,283.415l91.251-12.477l-4.241-4.391l-123.362,16.868l202.092,209.263
	c14.562,15.079,36.119,18.99,54.319,11.941C449.322,502.076,443.169,498.107,437.927,492.678z"/>
<path style="fill:#FF6F52;" d="M252.596,335.163v0.012l-1.49,1.696l-23.01,26.149L112,494.939
	c-17.364,19.751-47.027,22.756-68.014,6.907c-17.97-13.62-24.113-36.836-17.073-56.805c2.084-5.877,5.295-11.475,9.682-16.455
	l121.632-138.244l22.865-25.979L252.596,335.163z"/>
<path style="fill:#E25749;" d="M80.342,501.845c-17.97-13.62-24.113-36.836-17.073-56.805c2.084-5.877,5.295-11.475,9.682-16.455
	L194.582,290.34l5.936-6.744l-19.426-19.235l-22.865,25.979L36.595,428.585c-4.386,4.98-7.597,10.578-9.682,16.455
	c-7.04,19.969-0.897,43.185,17.073,56.805c14.337,10.828,32.721,12.849,48.469,6.752C88.217,506.951,84.136,504.712,80.342,501.845z
	"/>
<path style="fill:#CFDCE5;" d="M260.132,180.395c-7.62-18.025-11.844-37.836-11.844-58.636c0-48.647,23.056-91.902,58.83-119.458
	c-47.24-8.331-97.688,5.957-133.913,42.883c-57.366,58.479-57.189,153.145,0.384,211.419l80.309,83.159l68.947-73.214
	C322.845,266.547,274.251,207.422,260.132,180.395z"/>
<path style="fill:#E25749;" d="M252.596,335.163v0.012l-1.49,1.696l-23.01,26.149l-62.985-65.214
	c-2.399-2.423-4.689-4.92-6.883-7.464l22.865-25.979L252.596,335.163z"/>
<circle style="fill:#314A5F;" cx="251.08" cy="262.445" r="19.484"/>
</svg>