<?xml version="1.0" encoding="iso-8859-1"?>

<!DOCTYPE svg PUBLIC "-//W3C//DTD SVG 1.1//EN" "http://www.w3.org/Graphics/SVG/1.1/DTD/svg11.dtd">
<!-- Uploaded to: SVG Repo, www.svgrepo.com, Generator: SVG Repo Mixer Tools -->
<svg height="800px" width="800px" version="1.1" id="_x36_" xmlns="http://www.w3.org/2000/svg" xmlns:xlink="http://www.w3.org/1999/xlink" 
	 viewBox="0 0 512 512"  xml:space="preserve">
<g>
	<g>
		<path style="fill:#CBC9B7;" d="M109.21,0v351.13c0-3.366-0.194-6.539-0.583-9.451c-1.877-15.601-8.48-26.219-16.572-33.339
			c-0.194-0.13-0.388-0.324-0.582-0.454c-0.453-0.454-0.971-0.842-1.489-1.23c-11.588-8.999-25.635-11.523-33.986-11.523
			c-15.99,0-47.516,14.177-47.516,14.177c-3.237,0-6.085-1.878-7.51-4.596c-0.064-0.13-0.129-0.259-0.194-0.389
			c-0.13-0.258-0.259-0.518-0.259-0.776c-0.13-0.259-0.259-0.583-0.324-0.907C0.065,302.06,0,301.413,0,300.765l2.784-195.439
			c0-20.651,6.085-40.007,16.508-56.385C38,19.615,70.886,0,108.11,0H109.21z"/>
		<path style="fill:#B4ACA3;" d="M218.42,300.765c0,0.582-0.065,1.166-0.194,1.747c0,0.065,0,0.13,0,0.13
			c-0.129,0.324-0.194,0.648-0.324,0.907c0,0.065-0.065,0.129-0.065,0.194c-0.064,0.194-0.129,0.388-0.194,0.582
			c-0.065,0.13-0.13,0.259-0.194,0.389v0.065c-0.582,1.035-1.294,1.878-2.136,2.525c-0.453,0.388-0.842,0.712-1.36,0.971
			c-0.388,0.194-0.777,0.388-1.165,0.518s-0.777,0.258-1.165,0.323c-0.518,0.13-1.101,0.194-1.683,0.194
			c0,0-31.527-14.177-47.517-14.177c-2.007,0-4.337,0.13-6.862,0.518c-0.388,0-0.712,0.065-1.1,0.13
			c-0.906,0.13-1.877,0.323-2.848,0.518c-0.194,0.065-0.388,0.065-0.518,0.13c-1.23,0.259-2.46,0.518-3.754,0.906
			c-0.971,0.323-1.942,0.582-2.913,0.906c-0.777,0.259-1.554,0.518-2.33,0.842c-0.712,0.323-1.489,0.647-2.266,0.971
			c-3.884,1.618-7.768,3.819-11.394,6.603c-0.518,0.388-0.971,0.776-1.424,1.23h-0.065c-0.194,0.13-0.388,0.324-0.583,0.454
			c-8.092,7.12-14.695,17.738-16.573,33.339c-0.388,2.913-0.582,6.086-0.582,9.451V0h1.1c18.709,0,36.317,4.985,51.595,13.66
			c15.083,8.545,27.966,20.651,37.223,35.281c0.971,1.489,1.877,3.042,2.719,4.596c8.739,15.343,13.789,33.016,13.789,51.789
			L218.42,300.765z"/>
		<path style="opacity:0.3;fill:#A3A296;" d="M218.42,300.765c0,0.582-0.065,1.166-0.194,1.747c0,0.065,0,0.13,0,0.13
			c-0.129,0.324-0.194,0.648-0.324,0.907c0,0.065-0.065,0.129-0.065,0.194c-0.064,0.194-0.129,0.388-0.194,0.582
			c-0.065,0.13-0.13,0.259-0.194,0.454v-0.065l-1.812-124.229c0-20.716-6.085-40.072-16.508-56.386
			c-18.709-29.39-51.595-48.94-88.818-48.94h-2.201C70.886,75.16,38,94.71,19.291,124.1C8.869,140.413,2.784,159.77,2.784,180.486
			L0.971,304.714v0.13c-0.064-0.194-0.194-0.324-0.194-0.518c-0.13-0.258-0.259-0.518-0.259-0.776
			c-0.13-0.259-0.259-0.583-0.324-0.907C0.065,302.06,0,301.413,0,300.765l2.784-195.439c0-20.651,6.085-40.007,16.508-56.385
			C38,19.615,70.886,0,108.11,0h2.201c18.709,0,36.317,4.985,51.595,13.66c15.083,8.545,27.966,20.651,37.223,35.281
			c0.971,1.489,1.877,3.042,2.719,4.596c8.739,15.343,13.789,33.016,13.789,51.789L218.42,300.765z"/>
		<path style="fill:#FFFFFF;" d="M110.583,353.273h0.017v-2.128C110.6,351.857,110.594,352.566,110.583,353.273z"/>
		<g style="opacity:0.5;">
			<path style="fill:#FFFFFF;" d="M128.501,307.271c0.036,0.338-0.267,0.615-0.674,0.615H90.592c-0.406,0-0.709-0.277-0.674-0.615
				c0.036-0.338,0.093-0.946,0.129-1.35l14.308-164.384c0.035-0.405,0.294-0.975,0.575-1.268c0,0,2.596-2.704,4.279-2.704
				c1.683,0,4.279,2.704,4.279,2.704c0.281,0.293,0.54,0.863,0.575,1.268l14.308,164.384
				C128.408,306.326,128.466,306.933,128.501,307.271z"/>
		</g>
		<path style="fill:#A09288;" d="M134.91,319.539v116.525c0,14.112-11.588,25.7-25.7,25.7s-25.701-11.588-25.701-25.7V319.539
			c0-5.374,3.625-9.905,8.545-11.199c0.971-0.324,2.007-0.454,3.043-0.454h28.225c1.036,0,2.072,0.13,3.042,0.454
			c0.065,0,0.065,0.065,0.065,0.065c0.583,0.194,1.165,0.388,1.748,0.646c1.165,0.454,2.201,1.166,3.042,2.072
			c0.259,0.194,0.518,0.454,0.712,0.712c0.388,0.324,0.647,0.712,0.842,1.101c0.388,0.453,0.647,0.906,0.842,1.424
			c0.259,0.324,0.388,0.712,0.518,1.036c0.194,0.388,0.324,0.842,0.388,1.294C134.781,317.597,134.91,318.568,134.91,319.539z"/>
		<path style="fill:#D88645;" d="M142.485,356.763V478.79c0,18.255-14.954,33.21-33.275,33.21c-0.712,0-1.36,0-2.007-0.13
			c-16.767-0.971-30.232-14.436-31.138-31.138c-0.13-0.647-0.13-1.294-0.13-1.942V356.763c0-5.568,3.043-10.423,7.574-13.077
			c2.201-1.294,4.791-2.007,7.445-2.007h36.511c2.654,0,5.244,0.713,7.444,2.007c0.583,0.324,1.101,0.712,1.618,1.165
			c2.072,1.489,3.69,3.626,4.726,6.021c0,0.065,0,0.065,0.065,0.065c0.194,0.582,0.453,1.23,0.582,1.812
			C142.29,354.043,142.485,355.339,142.485,356.763z"/>
	</g>
	<path style="opacity:0.04;fill:#040000;" d="M218.42,300.765c0,0.582-0.065,1.166-0.194,1.747c0,0.065,0,0.13,0,0.13
		c-0.129,0.324-0.194,0.648-0.324,0.907c0,0.065-0.065,0.129-0.065,0.194c-0.064,0.194-0.129,0.388-0.194,0.582
		c-0.065,0.13-0.13,0.259-0.194,0.454l-0.064-0.13c-0.518,1.036-1.23,1.942-2.072,2.654c-0.453,0.388-0.842,0.712-1.36,0.971
		c-0.388,0.194-0.777,0.388-1.165,0.518s-0.777,0.258-1.165,0.323c-0.518,0.13-1.101,0.194-1.683,0.194
		c0,0-31.527-14.177-47.517-14.177c-2.007,0-4.337,0.13-6.862,0.518c-0.388,0-0.712,0.065-1.1,0.13
		c-0.906,0.13-1.877,0.323-2.848,0.518c-0.194,0.065-0.388,0.065-0.518,0.13c-1.23,0.259-2.46,0.583-3.754,0.906
		c-0.971,0.323-1.942,0.582-2.913,0.906c-0.777,0.259-1.554,0.582-2.33,0.842c-0.712,0.323-1.489,0.647-2.266,0.971
		c-3.884,1.683-7.704,3.884-11.329,6.668l0.065,1.165h-1.618c-0.194,0.194-0.324,0.324-0.518,0.518
		c0.583,0.194,1.165,0.388,1.748,0.646c1.165,0.518,2.201,1.23,3.042,2.072c0.259,0.194,0.518,0.454,0.712,0.712
		c0.388,0.324,0.647,0.712,0.842,1.101c0.388,0.453,0.647,0.906,0.842,1.424c0.259,0.324,0.388,0.712,0.518,1.036
		c0.194,0.388,0.324,0.842,0.388,1.294c0.259,0.906,0.388,1.878,0.388,2.849v24.211c0.583,0.324,1.101,0.712,1.618,1.1
		c2.072,1.554,3.69,3.626,4.726,6.021c0,0.065,0,0.065,0.065,0.065c0.194,0.582,0.453,1.23,0.582,1.812
		c0.388,1.295,0.583,2.59,0.583,4.014V478.79c0,18.255-14.954,33.21-33.275,33.21V0h1.1c18.709,0,36.317,4.985,51.595,13.66
		c15.083,8.545,27.966,20.651,37.223,35.281c0.971,1.489,1.877,3.042,2.719,4.596c8.739,15.343,13.789,33.016,13.789,51.789
		L218.42,300.765z"/>
</g>
</svg>