<?xml version="1.0" encoding="iso-8859-1"?>
<!-- Uploaded to: SVG Repo, www.svgrepo.com, Generator: SVG Repo Mixer Tools -->
<svg height="800px" width="800px" version="1.1" id="Layer_1" xmlns="http://www.w3.org/2000/svg" xmlns:xlink="http://www.w3.org/1999/xlink" 
	 viewBox="0 0 512 512" xml:space="preserve">
<g>
	<path style="fill:#FF9811;" d="M445.287,189.048c-35.568,0-98.638,28.834-98.638,64.401s63.07,64.401,98.638,64.401
		s64.401-28.834,64.401-64.401S480.856,189.048,445.287,189.048z"/>
	<path style="fill:#FF9811;" d="M320.339,64.401c0,35.568-28.834,98.638-64.401,98.638s-64.401-63.07-64.401-98.638
		S220.369,0,255.937,0S320.339,28.834,320.339,64.401z"/>
	<path style="fill:#FF9811;" d="M320.339,447.599c0-35.568-28.834-98.638-64.401-98.638s-64.401,63.07-64.401,98.638
		S220.369,512,255.937,512S320.339,483.166,320.339,447.599z"/>
	<path style="fill:#FF9811;" d="M66.713,189.048c35.568,0,98.638,28.834,98.638,64.401s-63.07,64.401-98.638,64.401
		S2.311,289.018,2.311,253.449S31.144,189.048,66.713,189.048z"/>
</g>
<g>
	<path style="fill:#EE8700;" d="M403.129,88.765c-34.135,9.997-86.558,55.394-76.562,89.529s78.629,44.079,112.763,34.082
		s53.701-45.772,43.705-79.906C473.039,98.335,437.264,78.768,403.129,88.765z"/>
	<path style="fill:#EE8700;" d="M213.212,67.928c10.486,33.987,1.526,102.755-32.462,113.24
		c-33.987,10.486-80.132-41.283-90.618-75.27s8.567-70.04,42.555-80.525S202.728,33.94,213.212,67.928z"/>
	<path style="fill:#EE8700;" d="M108.745,408.115c34.135-9.997,86.558-55.394,76.562-89.529
		c-9.997-34.135-78.629-44.079-112.763-34.082s-53.701,45.772-43.705,79.906S74.61,418.112,108.745,408.115z"/>
	<path style="fill:#EE8700;" d="M298.661,428.953c-10.486-33.987-1.526-102.755,32.462-113.24
		c33.987-10.486,80.132,41.283,90.618,75.27c10.486,33.987-8.567,70.039-42.555,80.525
		C345.198,481.993,309.146,462.94,298.661,428.953z"/>
</g>
<g>
	<path style="fill:#CC7400;" d="M298.661,67.928c-10.486,33.987-1.526,102.755,32.462,113.24
		c33.987,10.486,80.132-41.283,90.618-75.27c10.486-33.987-8.567-70.04-42.555-80.525S309.146,33.94,298.661,67.928z"/>
	<path style="fill:#CC7400;" d="M108.745,88.765c34.135,9.997,86.558,55.394,76.562,89.529
		c-9.997,34.135-78.629,44.079-112.763,34.082s-53.701-45.772-43.705-79.906S74.61,78.768,108.745,88.765z"/>
	<path style="fill:#CC7400;" d="M213.212,428.953c10.486-33.987,1.526-102.755-32.462-113.24
		c-33.987-10.486-80.132,41.283-90.618,75.27s8.567,70.039,42.555,80.525C166.676,481.993,202.728,462.94,213.212,428.953z"/>
	<path style="fill:#CC7400;" d="M403.129,408.115c-34.135-9.997-86.558-55.394-76.562-89.529s78.629-44.079,112.763-34.082
		s53.701,45.772,43.705,79.906C473.039,398.545,437.264,418.112,403.129,408.115z"/>
</g>
<g>
	<path style="fill:#FFA733;" d="M370.604,229.222c-25.151,25.151-90.136,49.359-115.287,24.209s-0.941-90.136,24.209-115.287
		s65.927-25.151,91.077,0C395.754,163.296,395.754,204.072,370.604,229.222z"/>
	<path style="fill:#FFA733;" d="M231.108,368.717c25.151-25.151,49.359-90.136,24.209-115.287s-90.136-0.941-115.287,24.209
		c-25.151,25.151-25.151,65.927,0,91.077C165.182,393.868,205.959,393.868,231.108,368.717z"/>
	<path style="fill:#FFA733;" d="M231.108,138.145c25.151,25.151,49.359,90.136,24.209,115.287s-90.136,0.941-115.287-24.209
		s-25.151-65.927,0-91.077S205.959,112.994,231.108,138.145z"/>
	<path style="fill:#FFA733;" d="M370.604,277.64c-25.151-25.151-90.136-49.359-115.287-24.209s-0.941,90.136,24.209,115.287
		c25.151,25.151,65.927,25.151,91.077,0C395.754,343.568,395.754,302.791,370.604,277.64z"/>
</g>
<g>
	<path style="fill:#FFC477;" d="M320.339,154.811c0,35.568-28.834,98.638-64.401,98.638s-64.401-63.07-64.401-98.638
		s28.833-64.401,64.401-64.401S320.339,119.244,320.339,154.811z"/>
	<path style="fill:#FFC477;" d="M320.339,352.088c0-35.568-28.834-98.638-64.401-98.638s-64.401,63.07-64.401,98.638
		s28.834,64.401,64.401,64.401S320.339,387.656,320.339,352.088z"/>
</g>
<g>
	<path style="fill:#FFB655;" d="M157.299,189.048c35.568,0,98.638,28.834,98.638,64.401s-63.07,64.401-98.638,64.401
		s-64.401-28.834-64.401-64.401S121.731,189.048,157.299,189.048z"/>
	<path style="fill:#FFB655;" d="M354.575,189.048c-35.568,0-98.638,28.834-98.638,64.401s63.07,64.401,98.638,64.401
		s64.401-28.834,64.401-64.401S390.143,189.048,354.575,189.048z"/>
</g>
<circle style="fill:#FFA733;" cx="256" cy="256" r="22.738"/>
</svg>