<?xml version="1.0" encoding="iso-8859-1"?>
<!-- Uploaded to: SVG Repo, www.svgrepo.com, Generator: SVG Repo Mixer Tools -->
<svg height="800px" width="800px" version="1.1" id="Layer_1" xmlns="http://www.w3.org/2000/svg" xmlns:xlink="http://www.w3.org/1999/xlink" 
	 viewBox="0 0 512 512" xml:space="preserve">
<path style="fill:#FFDB2D;" d="M445.707,264.589c-5.99-3.459-14.401-6.323-25.167-8.589c10.767-2.267,19.176-5.13,25.167-8.589
	c20.22-11.675,34.685-30.525,40.729-53.079s2.941-46.111-8.733-66.331c-11.674-20.22-30.525-34.685-53.078-40.729
	c-22.554-6.042-46.11-2.942-66.331,8.733c-5.99,3.459-12.675,9.311-20.023,17.502c3.418-10.459,5.144-19.174,5.144-26.091
	C343.414,39.214,304.2,0,256,0s-87.415,39.214-87.415,87.415c0,6.917,1.726,15.632,5.145,26.091
	c-7.347-8.191-14.033-14.043-20.023-17.502C111.966,71.905,58.399,86.256,34.297,128c-11.675,20.22-14.777,43.779-8.733,66.331
	s20.507,41.405,40.729,53.079c5.99,3.459,14.401,6.323,25.167,8.589c-10.767,2.267-19.176,5.13-25.167,8.589
	c-20.22,11.675-34.685,30.525-40.729,53.079S22.624,363.78,34.297,384s30.525,34.685,53.078,40.729
	c7.531,2.017,15.174,3.016,22.768,3.016c15.146,0,30.096-3.972,43.565-11.749c5.99-3.459,12.675-9.311,20.023-17.502
	c-3.42,10.459-5.146,19.174-5.146,26.091c0,48.2,39.214,87.415,87.415,87.415s87.415-39.214,87.415-87.415
	c0-6.917-1.726-15.632-5.145-26.091c7.347,8.191,14.033,14.043,20.023,17.502c13.733,7.928,28.738,11.694,43.56,11.694
	c30.232,0,59.678-15.68,75.85-43.69c11.675-20.22,14.777-43.779,8.733-66.331C480.39,295.116,465.927,276.264,445.707,264.589z"/>
<path style="fill:#FFAE33;" d="M445.707,264.589c-5.99-3.459-14.401-6.323-25.167-8.589c10.767-2.267,19.176-5.13,25.167-8.589
	c20.22-11.675,34.685-30.525,40.729-53.079s2.941-46.111-8.733-66.331c-11.674-20.22-30.525-34.685-53.078-40.729
	c-22.554-6.042-46.11-2.942-66.331,8.733c-5.99,3.459-12.675,9.311-20.023,17.502c3.418-10.459,5.144-19.174,5.144-26.091
	C343.414,39.214,304.2,0,256,0v512c48.2,0,87.415-39.214,87.415-87.415c0-6.917-1.726-15.632-5.145-26.091
	c7.347,8.191,14.033,14.043,20.023,17.502c13.733,7.928,28.738,11.694,43.56,11.694c30.232,0,59.678-15.68,75.85-43.69
	c11.675-20.22,14.777-43.779,8.733-66.331C480.39,295.116,465.927,276.264,445.707,264.589z"/>
<circle style="fill:#BF256B;" cx="256" cy="137.366" r="18.732"/>
<g>
	<circle style="fill:#FF318F;" cx="153.262" cy="196.683" r="18.732"/>
	<circle style="fill:#FF318F;" cx="153.262" cy="315.317" r="18.732"/>
</g>
<g>
	<circle style="fill:#BF256B;" cx="256" cy="374.634" r="18.732"/>
	<circle style="fill:#BF256B;" cx="358.737" cy="315.317" r="18.732"/>
	<circle style="fill:#BF256B;" cx="358.737" cy="196.683" r="18.732"/>
</g>
<circle style="fill:#FF318F;" cx="256" cy="256" r="62.439"/>
<path style="fill:#BF256B;" d="M256,193.561c34.484,0,62.439,27.955,62.439,62.439S290.483,318.439,256,318.439"/>
<path style="fill:#FFAE33;" d="M256,337.171c-44.758,0-81.171-36.413-81.171-81.171s36.413-81.171,81.171-81.171
	S337.17,211.242,337.17,256S300.757,337.171,256,337.171z M256,212.293c-24.1,0-43.707,19.607-43.707,43.707
	s19.607,43.707,43.707,43.707S299.707,280.1,299.707,256S280.1,212.293,256,212.293z"/>
<path id="SVGCleanerId_0" style="fill:#FF9900;" d="M256,174.829v37.463c24.1,0,43.707,19.607,43.707,43.707
	S280.1,299.707,256,299.707v37.463c44.758,0,81.171-36.413,81.171-81.171S300.757,174.829,256,174.829z"/>
<g>
	<path id="SVGCleanerId_0_1_" style="fill:#FF9900;" d="M256,174.829v37.463c24.1,0,43.707,19.607,43.707,43.707
		S280.1,299.707,256,299.707v37.463c44.758,0,81.171-36.413,81.171-81.171S300.757,174.829,256,174.829z"/>
</g>
</svg>