<?xml version="1.0" encoding="iso-8859-1"?>
<!-- Uploaded to: SVG Repo, www.svgrepo.com, Generator: SVG Repo Mixer Tools -->
<svg height="800px" width="800px" version="1.1" id="Layer_1" xmlns="http://www.w3.org/2000/svg" xmlns:xlink="http://www.w3.org/1999/xlink" 
	 viewBox="0 0 512 512" xml:space="preserve">
<path style="fill:#FFE0B2;" d="M79.608,263.256c-5.065,1.729-10.022,3.984-14.761,6.712C24.989,292.989,11.283,344.146,34.304,384
	c11.142,19.31,29.142,33.12,50.685,38.896c7.196,1.924,14.49,2.881,21.739,2.881c14.467,0,28.739-3.793,41.587-11.212
	c4.696-2.707,9.163-5.897,13.272-9.479L79.608,263.256z"/>
<g>
	<path style="fill:#FDCD99;" d="M477.696,128c-11.142-19.31-29.142-33.12-50.685-38.896c-21.554-5.767-44.043-2.809-63.327,8.331
		c-4.696,2.707-9.163,5.897-13.272,9.479l76.576,142.739c1.793,0,3.62-0.294,5.403-0.907c5.065-1.729,10.022-3.984,14.761-6.712
		C487.011,219.011,500.717,167.854,477.696,128z"/>
	<path style="fill:#FDCD99;" d="M447.131,269.951c-4.717-2.712-9.673-4.967-14.739-6.696l-81.978,141.832
		c4.108,3.582,8.576,6.772,13.261,9.468c12.859,7.43,27.13,11.223,41.598,11.223c7.25,0,14.554-0.956,21.739-2.881
		c21.543-5.777,39.543-19.587,50.685-38.896C500.717,344.146,487.011,292.989,447.131,269.951z"/>
</g>
<g>
	<path style="fill:#FFE0B2;" d="M148.326,97.446c-19.305-11.157-41.815-14.109-63.337-8.342C63.446,94.88,45.446,108.69,34.304,128
		c-23.022,39.854-9.315,91.011,30.565,114.049c4.717,2.712,9.673,4.968,14.739,6.696c1.783,0.614,3.608,0.907,5.403,0.907
		l76.576-142.739C157.478,103.332,153.011,100.142,148.326,97.446z"/>
	<path style="fill:#FFE0B2;" d="M337.924,412.403H174.076c-1.032,5.304-1.554,10.728-1.554,16.119
		C172.522,474.554,209.968,512,256,512s83.478-37.446,83.478-83.478C339.478,423.13,338.956,417.706,337.924,412.403z"/>
</g>
<path style="fill:#FDCD99;" d="M256,412.403V512c46.032,0,83.478-37.446,83.478-83.478c0-5.392-0.522-10.815-1.554-16.119H256z"/>
<path style="fill:#FFE0B2;" d="M256,0c-46.032,0-83.478,37.446-83.478,83.478c0,5.392,0.522,10.815,1.554,16.119h163.848
	c1.033-5.304,1.555-10.728,1.555-16.119C339.478,37.446,302.032,0,256,0z"/>
<path style="fill:#FDCD99;" d="M337.924,99.597c1.032-5.304,1.554-10.728,1.554-16.119C339.478,37.446,302.032,0,256,0v99.597
	H337.924z"/>
<path style="fill:#FF9F19;" d="M256,445.217c-104.337,0-189.217-84.881-189.217-189.217S151.663,66.783,256,66.783
	S445.217,151.663,445.217,256S360.337,445.217,256,445.217z"/>
<path style="fill:#F28618;" d="M445.217,256c0-104.337-84.881-189.217-189.217-189.217v378.435
	C360.337,445.217,445.217,360.337,445.217,256z"/>
<path style="fill:#FFC033;" d="M256,411.826c-85.924,0-155.826-69.902-155.826-155.826S170.076,100.174,256,100.174
	S411.826,170.076,411.826,256S341.924,411.826,256,411.826z"/>
<path style="fill:#F9A926;" d="M411.826,256c0-85.924-69.902-155.826-155.826-155.826v311.652
	C341.924,411.826,411.826,341.924,411.826,256z"/>
<path style="fill:#FFE0B2;" d="M256,166.957c-49.097,0-89.043,39.946-89.043,89.043s39.946,89.043,89.043,89.043
	s89.043-39.946,89.043-89.043S305.097,166.957,256,166.957z"/>
<path style="fill:#FDCD99;" d="M345.043,256c0-49.097-39.946-89.043-89.043-89.043v178.087
	C305.097,345.043,345.043,305.097,345.043,256z"/>
</svg>