<?xml version="1.0" encoding="iso-8859-1"?>
<!-- Uploaded to: SVG Repo, www.svgrepo.com, Generator: SVG Repo Mixer Tools -->
<svg height="800px" width="800px" version="1.1" id="Layer_1" xmlns="http://www.w3.org/2000/svg" xmlns:xlink="http://www.w3.org/1999/xlink" 
	 viewBox="0 0 512.002 512.002" xml:space="preserve">
<path style="fill:#FFDB2D;" d="M421.977,177.598c-3.653-0.216-10.823-0.631-25.33,2.714c10.151-10.892,13.376-17.309,15.015-20.577
	c23.65-47.107,4.566-104.671-42.541-128.321c-22.406-11.249-47.985-12.719-72.022-4.133c-15.09,5.387-29.186,14.554-41.1,26.553
	c-11.916-11.999-26.011-21.167-41.1-26.553c-24.037-8.583-49.616-7.114-72.022,4.133c-47.108,23.65-66.191,81.214-42.541,128.32
	c1.641,3.268,4.864,9.687,15.019,20.582c-14.512-3.346-21.683-2.93-25.333-2.716C37.401,180.672-2.908,225.981,0.165,278.6
	c1.461,25.026,12.978,47.912,32.432,64.441c12.211,10.375,27.197,17.998,43.546,22.317c-4.434,16.319-5.326,33.108-2.446,48.869
	c4.587,25.111,18.646,46.528,39.591,60.308c16.153,10.628,34.365,15.707,52.392,15.706c31.117-0.002,61.663-15.143,80.007-43.025
	c2.011-3.055,5.957-9.056,10.314-23.296c4.358,14.24,8.303,20.241,10.314,23.296c18.347,27.884,48.888,43.025,80.007,43.025
	c18.023,0,36.241-5.081,52.392-15.706c20.943-13.778,35.004-35.197,39.591-60.308c2.88-15.761,1.988-32.55-2.446-48.869
	c16.35-4.32,31.336-11.942,43.546-22.317c19.453-16.529,30.971-39.414,32.432-64.441
	C514.908,225.98,474.599,180.671,421.977,177.598z"/>
<path style="fill:#FFAE33;" d="M421.977,177.598c-3.653-0.216-10.823-0.631-25.33,2.714c10.151-10.892,13.376-17.309,15.015-20.577
	c23.65-47.107,4.566-104.671-42.541-128.321c-22.406-11.249-47.985-12.719-72.022-4.133c-15.09,5.387-29.186,14.554-41.1,26.553
	v370.086c4.358,14.24,8.303,20.241,10.314,23.296c18.347,27.884,48.888,43.025,80.007,43.025c18.023,0,36.241-5.081,52.392-15.706
	c20.943-13.778,35.004-35.197,39.591-60.308c2.88-15.761,1.988-32.55-2.446-48.869c16.35-4.32,31.336-11.942,43.546-22.317
	c19.453-16.529,30.971-39.414,32.432-64.441C514.908,225.98,474.599,180.671,421.977,177.598z"/>
<circle style="fill:#FF318F;" cx="255.996" cy="261.517" r="59.745"/>
<path style="fill:#BF256B;" d="M256,201.77c32.996,0,59.745,26.749,59.745,59.745S288.996,321.26,256,321.26"/>
<path style="fill:#FFAE33;" d="M256,339.184c-42.828,0-77.669-34.842-77.669-77.669s34.841-77.669,77.669-77.669
	c42.827,0,77.669,34.842,77.669,77.669S298.826,339.184,256,339.184z M256,219.693c-23.06,0-41.822,18.761-41.822,41.822
	c0,23.06,18.761,41.822,41.822,41.822s41.822-18.761,41.822-41.822C297.821,238.454,279.06,219.693,256,219.693z"/>
<path style="fill:#FF9900;" d="M256,183.846v35.847c23.06,0,41.822,18.761,41.822,41.822c0,23.06-18.761,41.822-41.822,41.822
	v35.847c42.827,0,77.669-34.842,77.669-77.669S298.826,183.846,256,183.846z"/>
</svg>