<?xml version="1.0" encoding="iso-8859-1"?>
<!-- Uploaded to: SVG Repo, www.svgrepo.com, Generator: SVG Repo Mixer Tools -->
<svg version="1.1" id="Layer_1" xmlns="http://www.w3.org/2000/svg" xmlns:xlink="http://www.w3.org/1999/xlink" 
	 viewBox="0 0 512.001 512.001" xml:space="preserve">
<path style="fill:#00C47A;" d="M256,241.52l-2.283-10.012c-0.221-0.968-5.496-24.011-13.317-49.877
	c-15.053-49.791-25.695-64.45-32.39-71.145l0,0c-6.695-6.695-21.355-17.338-71.145-32.391c-25.867-7.821-48.91-13.095-49.878-13.317
	l-28.768-6.558l6.558,28.768c0.221,0.968,5.496,24.011,13.317,49.877c15.053,49.791,25.696,64.45,32.39,71.145
	c6.695,6.695,21.355,17.338,71.145,32.391c25.867,7.82,48.908,13.095,49.878,13.317L241.521,256l-10.013,2.283
	c-0.968,0.221-24.011,5.496-49.878,13.317c-49.791,15.054-64.45,25.696-71.145,32.391c-6.695,6.695-17.338,21.355-32.391,71.145
	c-7.821,25.865-13.095,48.908-13.317,49.877l-6.558,28.768l28.768-6.558c0.968-0.221,24.011-5.496,49.878-13.317
	c49.791-15.054,64.451-25.696,71.146-32.391c6.695-6.695,17.337-21.355,32.39-71.145c7.821-25.865,13.095-48.908,13.317-49.877
	L256,270.48L256,241.52L256,241.52z"/>
<path style="fill:#00925B;" d="M256.089,241.52l2.283-10.012c0.221-0.968,5.496-24.011,13.317-49.877
	c15.054-49.791,25.695-64.45,32.39-71.145l0,0c6.695-6.695,21.355-17.338,71.145-32.391c25.866-7.82,48.91-13.095,49.878-13.317
	l28.768-6.558l-6.558,28.768c-0.221,0.968-5.496,24.011-13.317,49.877c-15.054,49.791-25.696,64.45-32.39,71.145
	c-6.697,6.695-21.355,17.338-71.145,32.391c-25.867,7.82-48.91,13.095-49.878,13.317L270.568,256l10.013,2.283
	c0.968,0.221,24.011,5.496,49.878,13.317c49.791,15.054,64.449,25.696,71.144,32.391c6.695,6.695,17.338,21.355,32.391,71.145
	c7.82,25.865,13.095,48.908,13.317,49.877l6.558,28.768l-28.768-6.558c-0.968-0.221-24.011-5.496-49.878-13.317
	c-49.791-15.054-64.45-25.696-71.145-32.391c-6.695-6.695-17.337-21.355-32.39-71.145c-7.82-25.865-13.095-48.908-13.317-49.877
	l-2.283-10.012L256.089,241.52L256.089,241.52z"/>
<path style="fill:#6FC8F1;" d="M507.751,251.669c-3.614-3.683-89.064-90.188-139.86-90.188c-6.641,0-13.12,0.696-19.379,2.006
	c1.31-6.259,2.006-12.738,2.006-19.379c0-50.797-86.505-136.247-90.188-139.86L256,0l-4.33,4.249
	c-3.683,3.614-90.188,89.064-90.188,139.86c0,6.64,0.696,13.12,2.006,19.379c-6.258-1.31-12.738-2.006-19.378-2.006
	c-50.798,0-136.248,86.505-139.86,90.188L0,256l4.248,4.331c3.612,3.683,89.062,90.188,139.86,90.188
	c6.641,0,13.12-0.696,19.378-2.006c-1.31,6.259-2.006,12.739-2.006,19.379c0,50.797,86.505,136.247,90.188,139.86l4.33,4.249
	l4.331-4.249c3.683-3.614,90.188-89.064,90.188-139.86c0-6.64-0.696-13.12-2.006-19.379c6.259,1.31,12.738,2.006,19.379,2.006
	c50.797,0,136.247-86.505,139.86-90.188l4.249-4.331L507.751,251.669z"/>
<path style="fill:#4BBAED;" d="M507.751,251.669c-3.614-3.683-89.064-90.188-139.86-90.188c-6.641,0-13.12,0.696-19.379,2.006
	c1.31-6.259,2.006-12.738,2.006-19.379c0-50.797-86.505-136.247-90.188-139.86L256,0l0,0v512l0,0l4.331-4.249
	c3.683-3.614,90.188-89.064,90.188-139.86c0-6.64-0.696-13.12-2.006-19.379c6.259,1.31,12.738,2.006,19.379,2.006
	c50.797,0,136.247-86.505,139.86-90.188l4.249-4.331L507.751,251.669z"/>
<g>
	<rect x="237.444" y="132.325" style="fill:#FFDB2D;" width="37.101" height="61.834"/>
	<rect x="132.325" y="237.444" style="fill:#FFDB2D;" width="61.834" height="37.101"/>
	<rect x="237.444" y="317.828" style="fill:#FFDB2D;" width="37.101" height="61.834"/>
	<rect x="317.828" y="237.444" style="fill:#FFDB2D;" width="61.834" height="37.101"/>
</g>
<circle style="fill:#FF318F;" cx="255.994" cy="255.994" r="61.834"/>
<path style="fill:#BF256B;" d="M256,194.166c34.15,0,61.834,27.684,61.834,61.834S290.15,317.834,256,317.834"/>
<path style="fill:#FFE257;" d="M256,336.385c-44.324,0-80.385-36.06-80.385-80.385s36.061-80.385,80.385-80.385
	c44.325,0,80.385,36.061,80.385,80.385S300.325,336.385,256,336.385z M256,212.716c-23.867,0-43.284,19.417-43.284,43.284
	s19.417,43.284,43.284,43.284s43.284-19.417,43.284-43.284S279.867,212.716,256,212.716z"/>
<path style="fill:#FFAE33;" d="M256,175.615v37.101c23.867,0,43.284,19.417,43.284,43.284S279.867,299.284,256,299.284v37.101
	c44.325,0,80.385-36.06,80.385-80.385S300.325,175.615,256,175.615z"/>
</svg>