<?xml version="1.0" encoding="iso-8859-1"?>
<!-- Uploaded to: SVG Repo, www.svgrepo.com, Generator: SVG Repo Mixer Tools -->
<svg height="800px" width="800px" version="1.1" id="Layer_1" xmlns="http://www.w3.org/2000/svg" xmlns:xlink="http://www.w3.org/1999/xlink" 
	 viewBox="0 0 512 512" xml:space="preserve">
<g>
	<path style="fill:#E6E6E6;" d="M288.784,167.882c18.587-31.123,31.029-80.822,31.029-104.076C319.812,28.559,291.241,0,256.006,0
		c-35.247,0-63.818,28.559-63.818,63.807c0,23.254,12.442,72.952,31.029,104.076"/>
	<path style="fill:#E6E6E6;" d="M341.495,216.871c35.141-8.862,79.096-35.224,95.533-51.66c24.908-24.92,24.908-65.319,0-90.239
		c-24.92-24.92-65.331-24.92-90.251,0c-16.448,16.448-42.798,60.392-51.648,95.544"/>
	<path style="fill:#E6E6E6;" d="M344.118,288.784c31.123,18.587,80.822,31.017,104.076,31.017c35.235,0,63.806-28.559,63.806-63.807
		c0-35.235-28.571-63.807-63.806-63.807c-23.254,0-72.952,12.442-104.076,31.029"/>
	<path style="fill:#E6E6E6;" d="M341.495,295.117c35.141,8.862,79.096,35.224,95.533,51.66c24.908,24.92,24.908,65.319,0,90.239
		c-24.92,24.92-65.331,24.92-90.251,0c-16.436-16.436-42.786-60.38-51.648-95.533"/>
	<path style="fill:#E6E6E6;" d="M167.882,288.784c-31.123,18.587-80.822,31.017-104.076,31.017C28.571,319.801,0,291.241,0,255.994
		c0-35.235,28.571-63.807,63.807-63.807c23.254,0,72.952,12.442,104.076,31.017"/>
	<path style="fill:#E6E6E6;" d="M216.883,170.505c-8.862-35.141-35.224-79.096-51.66-95.533c-24.92-24.92-65.319-24.92-90.239,0
		s-24.92,65.319,0,90.239c16.436,16.436,60.38,42.786,95.521,51.66"/>
	<path style="fill:#E6E6E6;" d="M216.883,341.495c-8.874,35.141-35.224,79.085-51.66,95.521c-24.92,24.92-65.319,24.92-90.239,0
		s-24.92-65.319,0-90.239c16.436-16.436,60.38-42.786,95.521-51.66"/>
	<path style="fill:#E6E6E6;" d="M288.795,344.118c18.575,31.123,31.017,80.822,31.017,104.064c0,35.247-28.571,63.818-63.806,63.818
		c-35.247,0-63.818-28.571-63.818-63.818c0-23.242,12.442-72.94,31.017-104.064"/>
</g>
<circle style="fill:#FCC447;" cx="256.006" cy="255.994" r="98.498"/>
<circle style="fill:#FC675B;" cx="256.006" cy="255.994" r="69.652"/>
</svg>