<?xml version="1.0" encoding="iso-8859-1"?>
<!-- Uploaded to: SVG Repo, www.svgrepo.com, Generator: SVG Repo Mixer Tools -->
<svg height="800px" width="800px" version="1.1" id="Layer_1" xmlns="http://www.w3.org/2000/svg" xmlns:xlink="http://www.w3.org/1999/xlink" 
	 viewBox="0 0 512 512" xml:space="preserve">
<path style="fill:#A2DBB1;" d="M448.129,81.111l-1.231-16.008l-16.008-1.231c-59.549-4.583-102.707,8.774-128.26,39.694
	c-37.412,45.268-20.43,109.634-19.69,112.353l2.816,10.327l10.327,2.816c1.309,0.357,16.915,4.481,37.808,4.481
	c22.481,0,51.081-4.779,74.545-24.17C439.355,183.818,452.71,140.665,448.129,81.111z"/>
<path style="fill:#BDEA9C;" d="M285.756,226.244l10.327,2.816c1.309,0.357,16.915,4.481,37.808,4.481
	c22.481,0,51.081-4.779,74.545-24.17c30.92-25.554,44.276-68.707,39.694-128.26l-1.231-16.008"/>
<path style="fill:#A2DBB1;" d="M81.111,63.871l-16.008,1.231l-1.231,16.008c-4.583,59.549,8.774,102.707,39.694,128.26
	c45.268,37.412,109.634,20.43,112.353,19.69l10.327-2.816l2.816-10.327c0.357-1.309,4.481-16.915,4.481-37.808
	c0-22.481-4.779-51.081-24.17-74.545C183.818,72.645,140.665,59.29,81.111,63.871z"/>
<path style="fill:#BDEA9C;" d="M226.244,226.244l2.816-10.327c0.357-1.309,4.481-16.915,4.481-37.808
	c0-22.481-4.779-51.081-24.17-74.545c-25.554-30.92-68.707-44.276-128.26-39.694l-16.008,1.231"/>
<path style="fill:#A2DBB1;" d="M63.871,430.889l1.231,16.008l16.008,1.231c59.549,4.583,102.707-8.774,128.26-39.694
	c37.412-45.268,20.43-109.634,19.69-112.353l-2.816-10.327l-10.327-2.816c-1.309-0.357-16.915-4.481-37.808-4.481
	c-22.481,0-51.081,4.779-74.545,24.17C72.645,328.182,59.29,371.335,63.871,430.889z"/>
<path style="fill:#BDEA9C;" d="M226.244,285.756l-10.327-2.816c-1.309-0.357-16.915-4.481-37.808-4.481
	c-22.481,0-51.081,4.779-74.545,24.17c-30.92,25.554-44.276,68.707-39.694,128.26l1.231,16.008"/>
<path style="fill:#A2DBB1;" d="M430.889,448.129l16.008-1.231l1.231-16.008c4.583-59.549-8.774-102.707-39.694-128.26
	c-45.268-37.412-109.634-20.43-112.353-19.69l-10.327,2.816l-2.816,10.327c-0.357,1.309-4.481,16.915-4.481,37.808
	c0,22.481,4.779,51.081,24.17,74.545C328.182,439.355,371.335,452.71,430.889,448.129z"/>
<path style="fill:#BDEA9C;" d="M285.756,285.756l-2.816,10.327c-0.357,1.309-4.481,16.915-4.481,37.808
	c0,22.481,4.779,51.081,24.17,74.545c25.554,30.92,68.707,44.277,128.26,39.694l16.008-1.231"/>
<path style="fill:#F285B9;" d="M418.341,162.341c-24.661,0-70.631,21.032-111.271,42.588c21.556-40.64,42.588-86.61,42.588-111.271
	C349.659,42.015,307.643,0,256,0s-93.659,42.015-93.659,93.659c0,24.661,21.032,70.631,42.59,111.271
	c-40.642-21.556-86.612-42.588-111.273-42.588C42.015,162.341,0,204.357,0,256s42.015,93.659,93.659,93.659
	c24.661,0,70.631-21.032,111.273-42.588c-21.558,40.64-42.59,86.61-42.59,111.271C162.341,469.985,204.357,512,256,512
	s93.659-42.015,93.659-93.659c0-24.661-21.032-70.631-42.588-111.271c40.64,21.556,86.61,42.588,111.271,42.588
	C469.985,349.659,512,307.643,512,256S469.985,162.341,418.341,162.341z"/>
<path style="fill:#EE5DA2;" d="M418.341,162.341c-24.661,0-70.631,21.032-111.271,42.588c21.556-40.64,42.588-86.61,42.588-111.271
	C349.659,42.015,307.643,0,256,0v512c51.643,0,93.659-42.015,93.659-93.659c0-24.661-21.032-70.631-42.588-111.271
	c40.64,21.556,86.61,42.588,111.271,42.588C469.985,349.659,512,307.643,512,256S469.985,162.341,418.341,162.341z"/>
<path style="fill:#FFF0B4;" d="M256,212.293c-24.1,0-43.707,19.607-43.707,43.707S231.9,299.707,256,299.707
	S299.707,280.1,299.707,256S280.1,212.293,256,212.293z"/>
<path style="fill:#FFDA44;" d="M256,299.707c24.1,0,43.707-19.607,43.707-43.707S280.1,212.293,256,212.293"/>
</svg>