<?xml version="1.0" encoding="iso-8859-1"?>
<!-- Uploaded to: SVG Repo, www.svgrepo.com, Generator: SVG Repo Mixer Tools -->
<svg height="800px" width="800px" version="1.1" id="Layer_1" xmlns="http://www.w3.org/2000/svg" xmlns:xlink="http://www.w3.org/1999/xlink" 
	 viewBox="0 0 512 512" xml:space="preserve">
<path style="fill:#FFDB2D;" d="M255.999,51.828c-14.063-15.494-34.352-25.237-56.875-25.237v39.887
	c20.365,0,36.933,16.568,36.933,36.932v226.303h39.887V103.41c-0.001-20.364,16.567-36.932,36.932-36.932V26.592
	C290.353,26.592,270.064,36.335,255.999,51.828z"/>
<path style="fill:#FF318F;" d="M482.027,97.039c-62.354,0-120.973,24.366-165.056,68.61c-30.248,30.357-51.052,67.52-60.972,107.958
	c-9.919-40.438-30.724-77.601-60.972-107.958c-44.083-44.243-102.702-68.61-165.056-68.61h-6.648v141.637
	c0,61.573,24.359,119.768,68.59,163.868c42.531,42.406,98.219,66.625,157.438,68.649v0.184l6.648-0.041l6.648,0.041v-0.184
	c59.221-2.022,114.907-26.243,157.438-68.649c44.231-44.099,68.59-102.295,68.59-163.868V97.039H482.027z"/>
<circle style="fill:#FFAE33;" cx="176.222" cy="39.887" r="39.887"/>
<circle style="fill:#FF9900;" cx="335.771" cy="39.887" r="39.887"/>
<path style="fill:#BF256B;" d="M482.027,97.039c-62.354,0-120.973,24.366-165.056,68.61c-30.248,30.357-51.052,67.52-60.972,107.958
	v197.728l6.648,0.041v-0.183c59.221-2.022,114.907-26.243,157.438-68.649c44.231-44.099,68.59-102.295,68.59-163.868V97.039H482.027
	z"/>
<path style="fill:#60DD4D;" d="M495.291,382.429c-25.883-25.391-60.006-39.314-96.252-39.314c-0.537,0-1.078,0.003-1.614,0.009
	c-36.643,0.416-70.852,15.044-96.329,41.189l-45.095,45.967l-45.095-45.967c-25.477-26.145-59.686-40.773-96.329-41.189
	c-36.853-0.453-71.6,13.539-97.866,39.306L2.472,396.396l73.326,74.746c26.695,27.211,62.206,40.859,97.821,40.858
	c28.961-0.003,57.985-9.038,82.381-27.139C280.396,502.964,309.416,512,338.38,512c35.61-0.001,71.128-13.651,97.821-40.858
	l73.326-74.746L495.291,382.429z"/>
<path style="fill:#00C47A;" d="M495.291,382.429c-25.883-25.391-60.006-39.314-96.252-39.314c-0.537,0-1.078,0.003-1.614,0.009
	c-36.643,0.416-70.852,15.044-96.329,41.189l-45.095,45.967v54.582C280.397,502.964,309.418,512,338.381,512
	c35.61-0.001,71.128-13.651,97.821-40.858l73.326-74.746L495.291,382.429z"/>
</svg>