<?xml version="1.0" encoding="iso-8859-1"?>
<!-- Uploaded to: SVG Repo, www.svgrepo.com, Generator: SVG Repo Mixer Tools -->
<svg xmlns="http://www.w3.org/2000/svg" xmlns:xlink="http://www.w3.org/1999/xlink" version="1.1" id="Capa_1"  viewBox="0 0 455 455" xml:space="preserve" width="512" height="512">
<g>
	<path style="fill:#FFD764;" d="M227.5,0v190c27.61,0,50-42.53,50-95C277.5,42.53,255.11,0,227.5,0z"/>
	<path style="fill:#FFE29E;" d="M227.5,0c11.05,0,20,42.53,20,95s-8.95,95-20,95c-27.61,0-50-42.53-50-95S199.89,0,227.5,0z"/>
	<path style="fill:#FFE29E;" d="M66.633,66.633l134.35,134.35c19.523-19.523,5.282-65.429-31.82-102.53   C132.062,61.351,86.156,47.11,66.633,66.633z"/>
	<path style="fill:#FFF1CF;" d="M66.633,66.633c7.814-7.814,44.215,15.931,81.317,53.033s60.847,73.504,53.033,81.317   c-19.523,19.523-65.429,5.282-102.53-31.82S47.11,86.156,66.633,66.633z"/>
	<path style="fill:#FFD764;" d="M0,227.5h190c0-27.61-42.53-50-95-50C42.53,177.5,0,199.89,0,227.5z"/>
	<path style="fill:#FFE29E;" d="M0,227.5c0-11.05,42.53-20,95-20s95,8.95,95,20c0,27.61-42.53,50-95,50S0,255.11,0,227.5z"/>
	<path style="fill:#FFD764;" d="M66.633,388.367l134.35-134.35c-19.523-19.523-65.429-5.282-102.53,31.82   C61.351,322.938,47.11,368.844,66.633,388.367z"/>
	<path style="fill:#FFE29E;" d="M66.633,388.367c-7.814-7.814,15.931-44.215,53.033-81.317s73.504-60.847,81.317-53.033   c19.523,19.523,5.282,65.429-31.82,102.53S86.156,407.89,66.633,388.367z"/>
	<path style="fill:#FFE29E;" d="M227.5,455V265c-27.61,0-50,42.53-50,95C177.5,412.47,199.89,455,227.5,455z"/>
	<path style="fill:#FFF1CF;" d="M227.5,455c-11.05,0-20-42.53-20-95s8.95-95,20-95c27.61,0,50,42.53,50,95S255.11,455,227.5,455z"/>
	<path style="fill:#FFD764;" d="M388.367,388.367l-134.35-134.35c-19.523,19.523-5.282,65.429,31.82,102.53   C322.938,393.649,368.844,407.89,388.367,388.367z"/>
	<path style="fill:#FFE29E;" d="M388.367,388.367c-7.814,7.814-44.215-15.931-81.317-53.033s-60.847-73.504-53.033-81.317   c19.523-19.523,65.429-5.282,102.53,31.82S407.89,368.844,388.367,388.367z"/>
	<path style="fill:#FFE29E;" d="M455,227.5H265c0,27.61,42.53,50,95,50C412.47,277.5,455,255.11,455,227.5z"/>
	<path style="fill:#FFF1CF;" d="M455,227.5c0,11.05-42.53,20-95,20s-95-8.95-95-20c0-27.61,42.53-50,95-50S455,199.89,455,227.5z"/>
	<path style="fill:#FFD764;" d="M388.367,66.633l-134.35,134.35c19.523,19.523,65.429,5.282,102.53-31.82   C393.649,132.062,407.89,86.156,388.367,66.633z"/>
	<path style="fill:#FFE29E;" d="M388.367,66.633c7.814,7.814-15.931,44.215-53.033,81.317s-73.504,60.847-81.317,53.033   c-19.523-19.523-5.282-65.429,31.82-102.53S368.844,47.11,388.367,66.633z"/>
	<circle style="fill:#FFF1CF;" cx="112.5" cy="352.5" r="7.5"/>
	<circle style="fill:#FFF1CF;" cx="207.5" cy="80.382" r="7.5"/>
	<circle style="fill:#FFF1CF;" cx="217.5" cy="50.382" r="7.5"/>
	<path style="fill:#FF973E;" d="M227.5,157.5v140c38.66,0,70-31.34,70-70S266.16,157.5,227.5,157.5z"/>
	<path style="fill:#FFB751;" d="M227.5,157.5c22.09,0,40,31.34,40,70s-17.91,70-40,70c-38.66,0-70-31.34-70-70   S188.84,157.5,227.5,157.5z"/>
	<circle style="fill:#FF973E;" cx="247.5" cy="230" r="7.5"/>
	<circle style="fill:#FF973E;" cx="227.5" cy="210" r="7.5"/>
</g>















</svg>