<?xml version="1.0" encoding="iso-8859-1"?>
<!-- Uploaded to: SVG Repo, www.svgrepo.com, Generator: SVG Repo Mixer Tools -->
<svg xmlns="http://www.w3.org/2000/svg" xmlns:xlink="http://www.w3.org/1999/xlink" version="1.1" id="Capa_1"  viewBox="0 0 454.983 454.983" xml:space="preserve" width="512" height="512">
<g>
	<path style="fill:#6CDFB4;" d="M227.483,7.935v216.35c44.81,0,81.13-48.43,81.13-108.18   C308.614,56.365,272.293,7.935,227.483,7.935z"/>
	<path style="fill:#7BFFCD;" d="M227.483,7.935c28.24,0,51.13,48.43,51.13,108.17c0,59.75-22.89,108.18-51.13,108.18   c-44.8,0-81.12-48.43-81.12-108.18C146.363,56.365,182.683,7.935,227.483,7.935z"/>
	<path style="fill:#7BFFCD;" d="M3.034,171.023l205.761,66.856c13.847-42.617-20.989-92.125-77.815-110.589   C74.165,108.829,16.881,128.406,3.034,171.023z"/>
	<path style="fill:#6CDFB4;" d="M3.034,171.023c8.727-26.858,61.86-33.662,118.676-15.201   c56.826,18.464,95.812,55.199,87.085,82.057c-13.844,42.607-71.127,62.184-127.953,43.72   C24.027,263.138-10.81,213.63,3.034,171.023z"/>
	<path style="fill:#6CDFB4;" d="M88.781,434.883l127.167-175.031c-36.252-26.339-94.102-8.506-129.222,39.832   C51.612,348.015,52.529,408.545,88.781,434.883z"/>
	<path style="fill:#7BFFCD;" d="M88.781,434.883c-22.847-16.599-12.899-69.234,22.216-117.565   c35.12-48.339,82.105-74.065,104.952-57.466c36.244,26.333,37.161,86.862,2.041,135.201   C182.875,443.384,125.025,461.216,88.781,434.883z"/>
	<path style="fill:#5DC09A;" d="M366.225,434.87L239.058,259.839c-36.252,26.339-37.169,86.868-2.049,135.207   C272.123,443.377,329.973,461.209,366.225,434.87z"/>
	<path style="fill:#6CDFB4;" d="M366.225,434.87c-22.847,16.599-69.831-9.127-104.946-57.458   c-35.12-48.339-45.068-100.974-22.222-117.573c36.244-26.333,94.094-8.5,129.214,39.838   C403.386,348.008,402.469,408.537,366.225,434.87z"/>
	<path style="fill:#4DA081;" d="M451.948,171.002l-205.761,66.856c13.847,42.617,71.13,62.194,127.956,43.73   C430.958,263.127,465.795,213.619,451.948,171.002z"/>
	<path style="fill:#5DC09A;" d="M451.948,171.002c8.727,26.858-30.26,63.593-87.076,82.054   c-56.826,18.464-109.959,11.66-118.685-15.198c-13.844-42.607,20.992-92.115,77.818-110.579   C380.82,108.818,438.104,128.394,451.948,171.002z"/>
	<circle style="fill:#864941;" cx="227.494" cy="243.943" r="33"/>
	<path style="fill:#FFFFFF;" d="M227.494,142.964c-4.143,0-7.5,3.358-7.5,7.5v42h15v-42   C234.994,146.322,231.637,142.964,227.494,142.964z"/>
	<path style="fill:#FFFFFF;" d="M131.458,212.738c-1.28,3.94,0.876,8.171,4.815,9.451l39.944,12.979l4.635-14.266l-39.944-12.979   C136.969,206.643,132.738,208.799,131.458,212.738z"/>
	<path style="fill:#FFFFFF;" d="M168.141,325.636c3.351,2.435,8.041,1.692,10.476-1.659l24.687-33.979l-12.135-8.817l-24.687,33.979   C164.047,318.511,164.789,323.201,168.141,325.636z"/>
	<path style="fill:#FFFFFF;" d="M286.848,325.636c3.351-2.435,4.094-7.125,1.659-10.476l-24.687-33.979l-12.135,8.817l24.687,33.979   C278.807,327.328,283.496,328.071,286.848,325.636z"/>
	<path style="fill:#FFFFFF;" d="M323.531,212.739c-1.28-3.94-5.511-6.095-9.451-4.815l-39.944,12.979l4.635,14.266l39.944-12.979   C322.655,220.909,324.811,216.678,323.531,212.739z"/>
	<circle style="fill:#7BFFCD;" cx="59.828" cy="216.561" r="7.5"/>
	<circle style="fill:#5DC09A;" cx="341.828" cy="364.751" r="7.5"/>
	<circle style="fill:#7BFFCD;" cx="79.828" cy="186.561" r="7.5"/>
	<circle style="fill:#FFD764;" cx="227.494" cy="203.959" r="23.5"/>
	<circle style="fill:#FFB751;" cx="189.452" cy="231.598" r="23.5"/>
	<circle style="fill:#FFD764;" cx="203.983" cy="276.319" r="23.5"/>
	<circle style="fill:#FFB751;" cx="251.006" cy="276.319" r="23.5"/>
	<circle style="fill:#FFD764;" cx="265.537" cy="231.598" r="23.5"/>
</g>















</svg>